<?xml version="1.0" encoding="UTF-8" standalone="no"?>
<svg
   xmlns:dc="http://purl.org/dc/elements/1.1/"
   xmlns:cc="http://creativecommons.org/ns#"
   xmlns:rdf="http://www.w3.org/1999/02/22-rdf-syntax-ns#"
   xmlns:svg="http://www.w3.org/2000/svg"
   xmlns="http://www.w3.org/2000/svg"
   viewBox="0 0 1122.6667 793.33331"
   height="793.33331"
   width="1122.6667"
   xml:space="preserve"
   id="svg2"
   version="1.1"><metadata
     id="metadata8"><rdf:RDF><cc:Work
         rdf:about=""><dc:format>image/svg+xml</dc:format><dc:type
           rdf:resource="http://purl.org/dc/dcmitype/StillImage" /></cc:Work></rdf:RDF></metadata><defs
     id="defs6"><clipPath
       id="clipPath20"
       clipPathUnits="userSpaceOnUse"><path
         id="path18"
         d="m 403.328,120 h 7613.34 V 5830 H 403.328 Z" /></clipPath></defs><g
     transform="matrix(1.3333333,0,0,-1.3333333,0,793.33333)"
     id="g10"><g
       transform="scale(0.1)"
       id="g12"><g
         id="g14"><g
           clip-path="url(#clipPath20)"
           id="g16"><path
             id="path22"
             style="fill:#ffffff;fill-opacity:1;fill-rule:nonzero;stroke:none"
             d="m 403.328,120 h 7613.34 V 5830 H 403.328 Z" /><path
             id="path24"
             style="fill:#005282;fill-opacity:1;fill-rule:nonzero;stroke:none"
             d="m 403.328,4994.02 h 7613.34 V 5830 H 403.328 Z" /><path
             id="path26"
             style="fill:#ffffff;fill-opacity:1;fill-rule:nonzero;stroke:none"
             d="m 855.375,5589.66 c 2.703,10.23 3.313,13.23 24.688,13.23 5.718,0 8.421,0 8.421,5.74 0,3 -2.109,3 -7.828,3 h -36.125 c -7.531,0 -7.828,-0.3 -11.14,-5.11 L 723.5,5432.8 700.922,5605 c -0.906,6.63 -1.203,6.63 -9.031,6.63 h -37.328 c -5.719,0 -8.438,0 -8.438,-5.72 0,-3.02 2.719,-3.02 7.234,-3.02 18.36,0 18.36,-2.41 18.36,-5.72 0,-0.59 0,-2.4 -1.203,-6.92 L 631.984,5436.7 c -3.625,-14.45 -10.546,-21.06 -30.718,-21.97 -0.907,0 -4.516,-0.29 -4.516,-5.42 0,-3.31 2.719,-3.31 3.922,-3.31 6.016,0 21.375,0.61 27.391,0.61 h 14.453 c 4.218,0 9.328,-0.61 13.547,-0.61 2.109,0 5.421,0 5.421,5.72 0,2.72 -3.015,3.01 -4.218,3.01 -9.938,0.3 -19.563,2.11 -19.563,12.94 0,3.02 0,3.31 1.203,7.53 l 41.547,165.89 h 0.297 l 24.984,-186.96 c 0.907,-7.22 1.204,-8.13 3.922,-8.13 3.313,0 4.813,2.41 6.313,5.13 L 837,5602.59 h 0.313 l -43.657,-174.31 c -2.718,-10.55 -3.312,-13.55 -24.39,-13.55 -5.719,0 -8.735,0 -8.735,-5.42 0,-3.31 2.719,-3.31 4.516,-3.31 5.125,0 11.141,0.61 16.266,0.61 h 35.515 c 5.125,0 11.453,-0.61 16.563,-0.61 2.406,0 5.718,0 5.718,5.72 0,3.01 -2.703,3.01 -7.218,3.01 -18.375,0 -18.375,2.41 -18.375,5.43 0,0.29 0,2.4 0.609,4.81 l 41.25,164.69" /><path
             id="path28"
             style="fill:#ffffff;fill-opacity:1;fill-rule:nonzero;stroke:none"
             d="m 1107.23,5475.84 c 0.32,0.91 1.22,3.02 1.22,4.22 0,1.5 -1.22,3.02 -3.01,3.02 -1.21,0 -1.81,-0.31 -2.72,-1.2 -0.59,-0.32 -0.59,-0.91 -3.3,-6.94 -17.76,-42.14 -30.72,-60.21 -78.89,-60.21 h -43.952 c -4.219,0 -4.812,0 -6.625,0.3 -3.312,0.3 -3.609,0.91 -3.609,3.31 0,2.11 0.594,3.91 1.203,6.63 l 20.781,83.09 h 29.802 c 23.48,0 25.29,-5.12 25.29,-14.15 0,-3 0,-5.72 -2.11,-14.75 -0.61,-1.21 -0.9,-2.41 -0.9,-3.32 0,-2.11 1.5,-3 3.31,-3 2.7,0 3.01,2.1 4.22,6.32 l 17.15,69.84 c 0,1.52 -1.2,3.02 -3.01,3.02 -2.7,0 -3,-1.21 -4.22,-5.43 -6.02,-23.17 -12.03,-29.79 -38.83,-29.79 h -28.608 l 18.668,74.06 c 2.71,10.53 3.32,11.44 15.66,11.44 h 43.05 c 37.03,0 44.56,-9.94 44.56,-32.82 0,-0.31 0,-8.73 -1.2,-18.67 -0.3,-1.2 -0.61,-3.01 -0.61,-3.61 0,-2.4 1.51,-3.31 3.31,-3.31 2.11,0 3.31,1.2 3.92,6.63 l 6.33,52.68 c 0,0.91 0.59,3.91 0.59,4.52 0,3.31 -2.7,3.31 -8.12,3.31 H 969.656 c -5.718,0 -8.734,0 -8.734,-5.42 0,-3.31 2.109,-3.31 7.234,-3.31 18.657,0 18.657,-2.11 18.657,-5.42 0,-1.5 -0.297,-2.71 -1.204,-6.02 l -40.64,-162.58 c -2.719,-10.55 -3.313,-13.55 -24.391,-13.55 -5.719,0 -8.734,0 -8.734,-5.42 0,-3.31 1.812,-3.31 7.828,-3.31 h 151.138 c 6.63,0 6.92,0.3 9.03,5.13 l 27.39,64.71" /><path
             id="path30"
             style="fill:#ffffff;fill-opacity:1;fill-rule:nonzero;stroke:none"
             d="m 1160.59,5531.13 22.19,21.56 c 32.67,28.89 45.24,40.2 45.24,61.14 0,23.86 -18.85,40.61 -44.39,40.61 -23.66,0 -39.16,-19.27 -39.16,-37.89 0,-11.72 10.47,-11.72 11.09,-11.72 3.57,0 10.89,2.5 10.89,11.09 0,5.44 -3.76,10.88 -11.09,10.88 -1.67,0 -2.09,0 -2.72,-0.21 4.81,13.61 16.11,21.36 28.27,21.36 19.04,0 28.04,-16.97 28.04,-34.12 0,-16.75 -10.47,-33.3 -21.98,-46.28 l -40.2,-44.8 c -2.3,-2.31 -2.3,-2.72 -2.3,-7.75 h 77.67 l 5.88,36.44 h -5.24 c -1.05,-6.28 -2.51,-15.5 -4.61,-18.64 -1.47,-1.67 -15.28,-1.67 -19.89,-1.67 h -37.69" /><path
             id="path32"
             style="fill:#ffffff;fill-opacity:1;fill-rule:nonzero;stroke:none"
             d="m 1278.5,5536.66 v -20.77 h 20.78 v 20.77 z m 0,-109.58 v -20.78 h 20.78 v 20.78 h -20.78" /><path
             id="path34"
             style="fill:#ffffff;fill-opacity:1;fill-rule:nonzero;stroke:none"
             d="M 1484.91,5612.53 V 5406.3 h 113.79 v 16.56 h -92.42 v 189.67 h -21.37" /><path
             id="path36"
             style="fill:#ffffff;fill-opacity:1;fill-rule:nonzero;stroke:none"
             d="m 1727.22,5436.41 c -13.55,-9.63 -25.89,-17.16 -42.45,-17.16 -24.69,0 -45.77,21.97 -45.77,52.38 h 89.72 c 0,31.62 -11.75,69.25 -49.99,69.25 -36.71,0 -56,-37.94 -56,-69.85 v -1.5 c 0.61,-32.83 24.4,-65.94 60.83,-65.94 14.75,0 29.21,5.11 41.24,13.55 1.81,1.5 3.92,2.7 3.92,5.11 0,1.22 -0.3,2.11 -0.61,3.02 -0.3,3.61 -0.59,7.53 -0.89,11.14 z m -86.72,49.37 c 2.11,17.47 17.77,39.44 38.23,39.44 h 1.21 c 22.28,0 32.22,-20.77 35.23,-39.44 h -74.67" /><path
             id="path38"
             style="fill:#ffffff;fill-opacity:1;fill-rule:nonzero;stroke:none"
             d="m 1762.78,5511.97 c 13.25,7.83 25.3,13.56 40.35,13.56 h 3.6 c 19.29,0 26.21,-19.87 26.21,-36.73 v -10.55 c -30.72,0 -79.19,-7.52 -79.19,-40.34 0,-15.96 10.84,-34.32 29.81,-34.32 17.46,0 36.72,3.32 49.97,14.75 v -12.04 h 18.38 v 70.15 c 0,4.52 0.29,9.03 0.29,13.55 0,25.28 -15.36,50.88 -46.06,50.88 -11.75,0 -44.86,-6.32 -44.86,-14.46 0,-4.81 1.2,-9.62 1.5,-14.45 z m 70.16,-46.66 v -20.47 c 0,-16.56 -15.06,-25.89 -34.03,-25.89 -12.64,0 -28.3,6.32 -28.3,19.57 v 0.61 c 0,15.04 21.67,21.06 33.72,23.46 9.34,1.82 18.97,2.11 28.61,2.72" /><path
             id="path40"
             style="fill:#ffffff;fill-opacity:1;fill-rule:nonzero;stroke:none"
             d="m 1911.16,5509.88 v 28 h -17.47 V 5406.3 h 18.36 v 59.61 c 0,23.79 8.43,43.97 33.42,53.89 5.42,2.11 11.44,3.01 17.16,3.01 v 16.57 c -19.86,0 -43.35,-12.05 -51.47,-29.5" /><path
             id="path42"
             style="fill:#ffffff;fill-opacity:1;fill-rule:nonzero;stroke:none"
             d="m 2009.75,5516.48 v 21.4 h -18.06 V 5406.3 h 18.97 v 68.34 c 0,19.27 4.51,49.08 30.11,49.08 9.32,0 18.65,-2.11 24.68,-9.64 5.11,-6.31 6.02,-14.14 6.02,-22.28 0,-3.91 -0.3,-7.82 -0.3,-11.44 v -74.06 h 18.97 v 84.61 c 0,10.53 -0.61,21.37 -5.42,31 -6.33,12.34 -19.88,17.76 -33.42,17.76 -17.16,0 -34.63,-9.62 -41.55,-23.19" /><path
             id="path44"
             style="fill:#ffffff;fill-opacity:1;fill-rule:nonzero;stroke:none"
             d="M 2139.98,5536.66 V 5406.3 h 18.38 v 130.36 z m -1.79,67.14 v -21.67 h 21.67 v 21.67 h -21.67" /><path
             id="path46"
             style="fill:#ffffff;fill-opacity:1;fill-rule:nonzero;stroke:none"
             d="m 2225.75,5516.48 v 21.4 h -18.06 V 5406.3 h 18.97 v 68.34 c 0,19.27 4.51,49.08 30.11,49.08 9.32,0 18.65,-2.11 24.68,-9.64 5.11,-6.31 6.02,-14.14 6.02,-22.28 0,-3.91 -0.3,-7.82 -0.3,-11.44 v -74.06 h 18.97 v 84.61 c 0,10.53 -0.61,21.37 -5.42,31 -6.33,12.34 -19.88,17.76 -33.42,17.76 -17.16,0 -34.63,-9.62 -41.55,-23.19" /><path
             id="path48"
             style="fill:#ffffff;fill-opacity:1;fill-rule:nonzero;stroke:none"
             d="m 2359,5415.94 c -11.75,-4.52 -20.17,-18.97 -20.17,-31.31 0,-34.93 53.59,-39.74 65.03,-39.74 23.19,0 58.41,9.92 62.31,36.42 v 2.41 c 0,35.53 -34.61,41.25 -65.62,41.25 h -20.78 c -9.33,0 -15.05,8.12 -15.05,16.56 v 0.89 c 0.3,4.22 1.81,7.53 3.61,11.46 7.23,-5.13 14.45,-8.15 22.89,-9.04 h 2.7 c 24.99,0 43.36,20.77 44.56,44.55 v 2.11 c 0,11.14 -3.31,21.08 -9.64,30.41 l 14.16,0.9 h 27.09 l -2.7,16.57 c -13.25,0 -26.8,-2.41 -39.45,-6.93 -1.8,-0.9 -3.91,-2.11 -6.02,-2.11 h -0.59 c -2.72,0 -11.75,7.22 -20.49,8.43 -2.4,0.31 -4.81,0.61 -7.21,0.61 h -2.72 c -23.49,-2.72 -40.35,-23.19 -40.35,-47.58 0,-9.33 2.42,-16.86 6.63,-24.69 0.61,-1.2 2.11,-2.7 2.11,-4.2 0,-1.82 -1.8,-3.32 -2.71,-4.83 -3.31,-6.02 -5.12,-12.94 -5.12,-19.86 0,-9.03 3.31,-14.75 7.53,-22.28 z m 17.47,-8.74 c 2.09,0.3 4.51,0.3 6.61,0.3 4.51,0 9.03,-0.3 13.55,-0.3 h 7.23 c 17.77,0 44.86,-1.81 44.86,-22.87 0,-21.69 -37.03,-25 -46.36,-25 -16.86,0 -46.06,5.42 -46.06,25.3 0,11.43 9.03,21.37 20.17,22.57 z m 15.05,117.72 h 2.4 c 19.88,0 28.3,-16.86 28.3,-32.51 0,-15.36 -6.92,-30.41 -24.69,-33.13 h -2.4 c -19.88,0 -28.3,16.88 -28.3,32.52 0,15.36 6.92,30.42 24.69,33.12" /><path
             id="path50"
             style="fill:#ffffff;fill-opacity:1;fill-rule:nonzero;stroke:none"
             d="M 2599.2,5612.53 V 5406.3 h 20.78 v 95.43 h 44.86 l 3.91,-0.59 52.69,-87.92 4.51,-6.31 h 21.08 l -59.31,97.23 c 25.89,5.74 51.19,25.3 51.19,54.8 0,38.54 -46.68,53.59 -76.18,53.59 z m 20.78,-95.14 v 80.39 h 34.32 c 23.78,0 61.72,-3.01 64.73,-38.84 0,-19.27 -13.86,-31.91 -30.11,-37.63 -11.14,-3.92 -22.58,-3.92 -34.33,-3.92 h -34.61" /><path
             id="path52"
             style="fill:#ffffff;fill-opacity:1;fill-rule:nonzero;stroke:none"
             d="M 2779.98,5536.66 V 5406.3 h 18.38 v 130.36 z m -1.79,67.14 v -21.67 h 21.67 v 21.67 h -21.67" /><path
             id="path54"
             style="fill:#ffffff;fill-opacity:1;fill-rule:nonzero;stroke:none"
             d="m 2833.84,5433.09 c -1.51,-4.51 -2.71,-11.14 -2.71,-14.75 0,-6.92 29.2,-12.95 32.81,-13.54 4.83,-0.91 10.25,-1.21 15.65,-1.21 21.69,0 46.68,8.43 46.68,40.05 0,23.17 -20.77,34.92 -40.64,39.13 -12.96,2.71 -35.54,4.51 -35.54,23.48 0,13.25 13.85,19.58 25.6,19.58 9.64,0 18.97,-1.2 28,-3.92 5.11,-1.8 9.94,-4.52 15.04,-6.63 l 2.72,16.27 c -13.54,6.33 -26.79,9.33 -41.54,9.33 -21.99,0 -47.27,-8.43 -47.27,-37.04 0,-50.57 76.16,-25.28 76.16,-62.62 0,-15.05 -14.14,-21.67 -29.5,-21.67 -16.57,0 -31,5.72 -45.46,13.54" /><path
             id="path56"
             style="fill:#ffffff;fill-opacity:1;fill-rule:nonzero;stroke:none"
             d="M 2958.3,5620.97 V 5406.3 h 17.15 v 38.23 l 0.6,4.52 24.09,25.29 47.56,-67.43 20.18,-0.61 c -4.22,6.92 -9.33,13.54 -13.85,20.17 -12.95,18.37 -25.3,36.12 -37.94,54.5 -0.9,1.5 -3.01,3.31 -3.01,5.11 v 0.61 c 0.61,2.7 8.14,8.12 12.05,12.64 11.43,13.25 25.59,23.78 36.43,37.33 h -15.06 c -1.2,0 -2.7,0.31 -4.22,0.31 -4.51,0 -7.22,-4.22 -9.92,-7.24 -18.08,-19.56 -37.64,-37.93 -56.31,-57.2 v 148.44 h -17.75" /><path
             id="path58"
             style="fill:#ffffff;fill-opacity:1;fill-rule:nonzero;stroke:none"
             d="m 3076.91,5536.66 c 17.76,-42.14 37.64,-83.1 54.5,-125.24 0.61,-1.51 1.5,-3.31 1.81,-4.81 0,-3.63 -3.02,-8.14 -4.22,-12.05 -5.72,-12.95 -10.53,-34.62 -23.48,-34.62 -7.83,0 -15.05,1.81 -22.29,3.61 l 0.91,-10.83 c 0,-6.94 10.24,-7.53 17.45,-7.53 h 4.22 c 22.28,0 30.11,30.11 37.03,47.26 19.58,47.88 39.44,96.05 58.11,144.21 l -18.67,-0.6 -32.2,-82.79 -6.33,-18.97 -2.41,-12.64 c -2.71,7.53 -3.92,15.36 -6.62,22.87 -11.14,30.11 -22.58,60.52 -37.03,89.13 -0.91,2.4 -1.81,3 -4.22,3 h -16.56" /><path
             id="path60"
             style="fill:#ffffff;fill-opacity:1;fill-rule:nonzero;stroke:none"
             d="m 3385.3,5612.53 -76.17,-206.23 h 18.37 l 17.16,46.97 6.92,16.26 6.62,0.6 h 80.08 l 21.38,-58.71 2.42,-4.51 h 21.67 l -76.17,205.62 z m -28.91,-127.65 34.33,96.34 3.91,13.55 3.62,-13.25 34.31,-96.64 h -76.17" /><path
             id="path62"
             style="fill:#ffffff;fill-opacity:1;fill-rule:nonzero;stroke:none"
             d="m 3534.16,5509.88 v 28 h -17.47 V 5406.3 h 18.36 v 59.61 c 0,23.79 8.43,43.97 33.42,53.89 5.42,2.11 11.44,3.01 17.16,3.01 v 16.57 c -19.86,0 -43.35,-12.05 -51.47,-29.5" /><path
             id="path64"
             style="fill:#ffffff;fill-opacity:1;fill-rule:nonzero;stroke:none"
             d="m 3706.22,5436.41 c -13.55,-9.63 -25.89,-17.16 -42.45,-17.16 -24.69,0 -45.77,21.97 -45.77,52.38 h 89.72 c 0,31.62 -11.75,69.25 -49.99,69.25 -36.71,0 -56,-37.94 -56,-69.85 v -1.5 c 0.61,-32.83 24.4,-65.94 60.83,-65.94 14.75,0 29.21,5.11 41.24,13.55 1.81,1.5 3.92,2.7 3.92,5.11 0,1.22 -0.3,2.11 -0.61,3.02 -0.3,3.61 -0.59,7.53 -0.89,11.14 z m -86.72,49.37 c 2.11,17.47 17.77,39.44 38.23,39.44 h 1.21 c 22.28,0 32.22,-20.77 35.23,-39.44 h -74.67" /><path
             id="path66"
             style="fill:#ffffff;fill-opacity:1;fill-rule:nonzero;stroke:none"
             d="m 3741.78,5511.97 c 13.25,7.83 25.3,13.56 40.35,13.56 h 3.6 c 19.29,0 26.21,-19.87 26.21,-36.73 v -10.55 c -30.72,0 -79.19,-7.52 -79.19,-40.34 0,-15.96 10.84,-34.32 29.81,-34.32 17.46,0 36.72,3.32 49.97,14.75 v -12.04 h 18.38 v 70.15 c 0,4.52 0.29,9.03 0.29,13.55 0,25.28 -15.36,50.88 -46.06,50.88 -11.75,0 -44.86,-6.32 -44.86,-14.46 0,-4.81 1.2,-9.62 1.5,-14.45 z m 70.16,-46.66 v -20.47 c 0,-16.56 -15.06,-25.89 -34.03,-25.89 -12.64,0 -28.3,6.32 -28.3,19.57 v 0.61 c 0,15.04 21.67,21.06 33.72,23.46 9.34,1.82 18.97,2.11 28.61,2.72" /><path
             id="path68"
             style="fill:#ffffff;fill-opacity:1;fill-rule:nonzero;stroke:none"
             d="m 3865.84,5433.09 c -1.51,-4.51 -2.71,-11.14 -2.71,-14.75 0,-6.92 29.2,-12.95 32.81,-13.54 4.83,-0.91 10.25,-1.21 15.65,-1.21 21.69,0 46.68,8.43 46.68,40.05 0,23.17 -20.77,34.92 -40.64,39.13 -12.96,2.71 -35.54,4.51 -35.54,23.48 0,13.25 13.85,19.58 25.6,19.58 9.64,0 18.97,-1.2 28,-3.92 5.11,-1.8 9.94,-4.52 15.04,-6.63 l 2.72,16.27 c -13.54,6.33 -26.79,9.33 -41.54,9.33 -21.99,0 -47.27,-8.43 -47.27,-37.04 0,-50.57 76.16,-25.28 76.16,-62.62 0,-15.05 -14.14,-21.67 -29.5,-21.67 -16.57,0 -31,5.72 -45.46,13.54" /><path
             id="path70"
             style="fill:#ffffff;fill-opacity:1;fill-rule:nonzero;stroke:none"
             d="m 600.234,5241.64 v -130.45 h 38.719 c 3.391,0 6.766,-0.19 10.344,-0.19 33.266,0 61.469,26.5 61.469,64.28 0,33.66 -23.125,66.55 -62.032,66.55 -3.765,0 -7.515,-0.19 -11.281,-0.19 z m 17.485,-119.36 v 108.27 h 26.5 c 27.453,0 49.062,-19.74 49.062,-54.89 0,-26.5 -14.656,-53.38 -48.312,-53.38 h -27.25" /><path
             id="path72"
             style="fill:#ffffff;fill-opacity:1;fill-rule:nonzero;stroke:none"
             d="m 737.219,5194.66 v -61.47 c 0,-6.02 0,-12.99 4.14,-17.86 3.766,-4.89 9.782,-6.2 15.797,-6.2 11.844,0 25.563,3.18 34.016,10.89 v -8.83 h 15.234 v 83.47 h -15.797 v -52.64 c 0,-3.96 0,-7.52 -1.875,-11.1 -4.328,-7.51 -12.593,-10.72 -20.875,-10.72 -6.765,0 -14.843,0.39 -14.843,12.03 v 62.43 h -15.797" /><path
             id="path74"
             style="fill:#ffffff;fill-opacity:1;fill-rule:nonzero;stroke:none"
             d="m 836.984,5176.23 c 2.813,1.5 5.438,3.57 8.266,5.07 6.578,3.39 14.094,4.7 21.609,4.7 12.219,0 15.797,-13.34 15.797,-22.94 v -5.62 c -19.734,0 -53.39,-4.14 -53.39,-24.63 0,-12.03 8.468,-23.68 22,-23.68 10.718,0 23.312,2.25 31.953,9.2 v -7.14 h 15.234 v 44.73 c 0,2.83 0.188,5.64 0.188,8.47 0,17.09 -11.844,33.45 -31.969,33.45 -9.391,0 -18.609,-1.87 -27.063,-6.2 -1.687,-0.75 -3.765,-1.5 -3.765,-3.58 0,-3.93 0.953,-7.89 1.14,-11.83 z m 45.672,-28.95 v -9.03 c 0,-11.27 -8.828,-16.91 -21.422,-16.91 -6.406,0 -17.296,2.82 -17.296,12.22 0.375,9.02 15.781,11.47 22.171,12.41 5.454,0.75 11.094,1.31 16.547,1.31" /><path
             id="path76"
             style="fill:#ffffff;fill-opacity:1;fill-rule:nonzero;stroke:none"
             d="m 929.406,5247.47 v -136.28 h 15.235 v 136.28 h -15.235" /><path
             id="path78"
             style="fill:#ffffff;fill-opacity:1;fill-rule:nonzero;stroke:none"
             d="m 1044.17,5194.66 h -14.09 V 5183 h 14.09 v -71.81 h 15.24 V 5183 h 20.86 v 11.66 h -21.44 v 18.79 c 0,2.07 -0.19,4.13 -0.19,6.21 0,9.39 5.08,17.65 19.19,17.65 5.06,-0.37 9.01,-2.06 14.09,-3.18 v 11.46 c 0,3.75 -11.09,3.94 -14.47,3.94 h -0.76 c -19.36,0 -32.52,-15.97 -32.52,-36.08 v -18.79" /><path
             id="path80"
             style="fill:#ffffff;fill-opacity:1;fill-rule:nonzero;stroke:none"
             d="m 1129.48,5197.84 c -24.62,-2.43 -40.03,-23.12 -40.03,-45.11 0,-22.56 17.68,-43.6 42.86,-43.6 23.13,0 42.67,19.35 42.67,43.42 0,23.11 -17.48,45.48 -43.04,45.48 -0.94,0 -1.71,-0.19 -2.46,-0.19 z m -24.25,-46.23 c 0,0.94 -0.18,2.06 -0.18,3.19 0,15.98 9.97,30.64 27.08,30.64 17.1,0 27.06,-14.28 27.06,-31.02 0,-16.36 -9.21,-32.33 -27.06,-32.33 -15.99,0 -25.19,12.6 -26.9,29.52" /><path
             id="path82"
             style="fill:#ffffff;fill-opacity:1;fill-rule:nonzero;stroke:none"
             d="m 1204.7,5178.86 v 16.92 h -14.29 v -84.59 h 15.23 v 37.59 c 0,18.8 11.66,34.41 32.52,34.41 v 13.53 c -12.6,0 -28,-6.95 -33.46,-17.86" /><path
             id="path84"
             style="fill:#ffffff;fill-opacity:1;fill-rule:nonzero;stroke:none"
             d="m 1271.08,5182.63 v 13.15 h -14.86 v -84.59 h 15.8 v 42.48 c 0,11.85 2.25,30.83 18.98,30.83 5.27,0 11.47,-1.12 15.05,-5.45 3.37,-3.96 3.93,-9.21 3.93,-14.28 0,-2.46 -0.18,-4.71 -0.18,-6.96 v -46.62 h 15.79 v 42.48 c 0,11.85 2.25,30.83 18.99,30.83 5.26,0 11.47,-1.12 15.03,-5.45 3.39,-3.96 3.95,-9.21 3.95,-14.28 0,-2.46 -0.18,-4.71 -0.18,-6.96 v -46.62 h 15.78 v 53.58 c 0,6.95 -0.38,14.09 -3.57,20.29 -4.32,8.46 -13.53,11.66 -22.75,11.66 -10.9,0 -24.81,-6.2 -29.14,-15.42 -4.5,10.72 -12.4,15.42 -24.62,15.42 -10.52,0 -22.55,-5.08 -28,-14.09" /><path
             id="path86"
             style="fill:#ffffff;fill-opacity:1;fill-rule:nonzero;stroke:none"
             d="m 1410.22,5194.66 v -61.47 c 0,-6.02 0,-12.99 4.14,-17.86 3.77,-4.89 9.78,-6.2 15.8,-6.2 11.84,0 25.56,3.18 34.01,10.89 v -8.83 h 15.24 v 83.47 h -15.8 v -52.64 c 0,-3.96 0,-7.52 -1.88,-11.1 -4.32,-7.51 -12.59,-10.72 -20.87,-10.72 -6.77,0 -14.84,0.39 -14.84,12.03 v 62.43 h -15.8" /><path
             id="path88"
             style="fill:#ffffff;fill-opacity:1;fill-rule:nonzero;stroke:none"
             d="m 1510.41,5247.47 v -136.28 h 15.23 v 136.28 h -15.23" /><path
             id="path90"
             style="fill:#ffffff;fill-opacity:1;fill-rule:nonzero;stroke:none"
             d="m 1556.98,5176.23 c 2.82,1.5 5.44,3.57 8.27,5.07 6.58,3.39 14.09,4.7 21.61,4.7 12.22,0 15.8,-13.34 15.8,-22.94 v -5.62 c -19.74,0 -53.39,-4.14 -53.39,-24.63 0,-12.03 8.46,-23.68 22,-23.68 10.71,0 23.31,2.25 31.95,9.2 v -7.14 h 15.23 v 44.73 c 0,2.83 0.19,5.64 0.19,8.47 0,17.09 -11.84,33.45 -31.97,33.45 -9.39,0 -18.61,-1.87 -27.06,-6.2 -1.69,-0.75 -3.77,-1.5 -3.77,-3.58 0,-3.93 0.96,-7.89 1.14,-11.83 z m 45.68,-28.95 v -9.03 c 0,-11.27 -8.83,-16.91 -21.43,-16.91 -6.4,0 -17.29,2.82 -17.29,12.22 0.37,9.02 15.78,11.47 22.17,12.41 5.45,0.75 11.09,1.31 16.55,1.31" /><path
             id="path92"
             style="fill:#ffffff;fill-opacity:1;fill-rule:nonzero;stroke:none"
             d="m 1654.11,5218.52 v -23.86 h -16.53 V 5183 h 15.97 v -33.28 c 0,-3.56 -0.19,-7.33 -0.19,-10.89 0,-8.47 0,-29.7 15.8,-29.7 10.51,0 19.73,2.81 29.12,6.95 l -3.19,11.84 c -5.26,-3.39 -10.53,-6.01 -17.11,-6.01 -8.26,0 -9.76,9.2 -9.76,16.34 V 5183 h 26.87 v 11.66 h -26.87 v 23.86 h -14.11" /><path
             id="path94"
             style="fill:#ffffff;fill-opacity:1;fill-rule:nonzero;stroke:none"
             d="m 1719.41,5194.66 v -83.47 h 15.23 v 83.47 z m -1.5,45.11 v -18.05 h 18.04 v 18.05 h -18.04" /><path
             id="path96"
             style="fill:#ffffff;fill-opacity:1;fill-rule:nonzero;stroke:none"
             d="m 1795.48,5197.84 c -24.62,-2.43 -40.03,-23.12 -40.03,-45.11 0,-22.56 17.68,-43.6 42.86,-43.6 23.13,0 42.67,19.35 42.67,43.42 0,23.11 -17.48,45.48 -43.04,45.48 -0.94,0 -1.71,-0.19 -2.46,-0.19 z m -24.25,-46.23 c 0,0.94 -0.18,2.06 -0.18,3.19 0,15.98 9.97,30.64 27.08,30.64 17.1,0 27.06,-14.28 27.06,-31.02 0,-16.36 -9.21,-32.33 -27.06,-32.33 -15.99,0 -25.19,12.6 -26.9,29.52" /><path
             id="path98"
             style="fill:#ffffff;fill-opacity:1;fill-rule:nonzero;stroke:none"
             d="m 1876.08,5182.63 v 13.15 h -14.86 v -84.59 h 15.8 v 42.67 c 0,11.47 2.06,30.64 18.98,30.64 12.41,0 18.8,-6.95 18.8,-19.55 0,-2.45 -0.19,-4.7 -0.19,-6.95 v -46.81 h 15.8 v 53.58 c 0,6.95 -0.38,13.71 -3.39,19.92 -4.14,8.64 -13.35,12.22 -22.57,12.22 -10.7,0 -23.11,-5.27 -28.37,-14.28" /><path
             id="path100"
             style="fill:#005282;fill-opacity:1;fill-rule:nonzero;stroke:none"
             d="m 823.188,4247.72 c -12.61,-9.63 -18.797,-19.02 -20.641,-22 -10.313,-15.81 -12.141,-30.27 -12.141,-30.49 0,-2.75 2.75,-2.75 4.578,-2.75 3.907,0 4.125,0.46 5.047,4.58 5.282,22.47 18.797,41.72 44.703,52.27 2.75,0.92 3.438,1.37 3.438,2.98 0,1.61 -1.375,2.3 -1.828,2.52 -10.094,3.9 -37.828,15.36 -46.547,53.87 -0.688,2.75 -0.906,3.44 -4.813,3.44 -1.828,0 -4.578,0 -4.578,-2.75 0,-0.45 2.063,-14.91 11.688,-30.26 4.594,-6.88 11.234,-14.9 21.094,-22.24 H 652.859 c -4.125,0 -8.25,0 -8.25,-4.58 0,-4.59 4.125,-4.59 8.25,-4.59 h 170.329" /><path
             id="path102"
             style="fill:#000000;fill-opacity:1;fill-rule:nonzero;stroke:none"
             d="m 1029.16,4219.98 c -10.32,-7.1 -20.64,-13.06 -33.926,-13.06 -13.296,0 -25.453,8.25 -30.953,21.55 -2.515,5.73 -3.218,11.69 -3.906,17.87 h 70.845 c 0,14.91 -2.3,31.19 -12.38,42.64 -7.11,8.04 -17.42,11.93 -27.965,11.93 -29.109,0 -45.625,-29.11 -45.625,-55.02 v -1.14 c 0.469,-26.14 20.172,-52.05 48.828,-52.05 11.692,0 23.612,3.68 33.012,9.63 1.83,1.39 3.44,1.84 3.44,4.14 0,4.34 -1.14,8.94 -1.37,13.51 z m -67.176,39.21 c 3.219,13.53 14.219,27.51 28.891,27.51 h 0.688 c 16.267,0 23.377,-13.98 27.047,-27.51 h -56.626" /><path
             id="path104"
             style="fill:#000000;fill-opacity:1;fill-rule:nonzero;stroke:none"
             d="m 1039.38,4297.02 c 2.98,-4.6 7.1,-8.49 10.54,-12.61 l 27.97,-32.57 c 0.91,-1.14 2.99,-2.51 2.99,-4.12 v -0.22 c 0,-1.16 -1.61,-2.53 -2.54,-3.44 l -8.01,-9.86 c -6.88,-8.25 -13.53,-16.28 -20.41,-24.53 -3.9,-4.81 -8.25,-9.4 -11.92,-14.44 l 19.48,0.22 31.65,42.19 33.23,-42.19 19.72,-0.22 c -3.67,4.82 -7.8,9.18 -11.69,13.75 l -29.58,34.61 c -0.92,0.93 -2.98,2.75 -2.98,4.13 0,2.3 7.34,9.17 10.55,13.3 l 19.48,23.39 c 3.44,4.12 7.34,8.01 10.31,12.61 l -19.25,-0.24 -29.34,-36.67 -27.74,33.69 -2.98,2.98 -5.95,0.24 h -13.53" /><path
             id="path106"
             style="fill:#000000;fill-opacity:1;fill-rule:nonzero;stroke:none"
             d="m 1177.53,4286.23 v 10.79 h -17.42 v -146.27 h 18.11 v 54.56 c 8.72,-7.79 19.03,-12.61 30.95,-12.61 26.6,0 41.27,29.13 41.27,53.88 0,19.25 -8.72,53.19 -36.24,53.19 -12.37,0 -27.04,-4.82 -36.67,-13.54 z m 55.7,-43.32 c -1.6,-17.64 -13.75,-35.99 -33.46,-35.99 -8.49,0 -21.55,7.33 -21.55,16.28 v 47.68 c 1.14,6.87 14.44,13.75 23.61,13.75 19.72,0 31.64,-20.18 31.64,-37.82 0,-1.37 0,-2.53 -0.24,-3.9" /><path
             id="path108"
             style="fill:#000000;fill-opacity:1;fill-rule:nonzero;stroke:none"
             d="m 1287.39,4278.44 v 19.72 h -16.28 v -102.93 h 17.42 v 46.54 c 0,15.36 5.05,32.78 25.45,39.65 4.13,1.61 8.71,2.3 13.07,2.3 v 15.81 c -16.28,0 -28.89,-7.8 -39.66,-21.09" /><path
             id="path110"
             style="fill:#000000;fill-opacity:1;fill-rule:nonzero;stroke:none"
             d="m 1422.16,4219.98 c -10.32,-7.1 -20.64,-13.06 -33.93,-13.06 -13.29,0 -25.45,8.25 -30.95,21.55 -2.51,5.73 -3.22,11.69 -3.9,17.87 h 70.84 c 0,14.91 -2.3,31.19 -12.38,42.64 -7.11,8.04 -17.42,11.93 -27.96,11.93 -29.11,0 -45.63,-29.11 -45.63,-55.02 v -1.14 c 0.47,-26.14 20.17,-52.05 48.83,-52.05 11.69,0 23.61,3.68 33.01,9.63 1.83,1.39 3.44,1.84 3.44,4.14 0,4.34 -1.14,8.94 -1.37,13.51 z m -67.18,39.21 c 3.22,13.53 14.22,27.51 28.9,27.51 h 0.68 c 16.27,0 23.38,-13.98 27.05,-27.51 h -56.63" /><path
             id="path112"
             style="fill:#000000;fill-opacity:1;fill-rule:nonzero;stroke:none"
             d="m 1440.17,4219.06 c -0.45,-3.89 -1.15,-7.56 -1.84,-11.45 -0.22,-0.92 -0.69,-2.3 -0.69,-3.44 0,-5.73 23.84,-10.09 26.38,-10.54 3.89,-0.69 8.01,-0.93 12.14,-0.93 17.42,0 36.9,7.57 36.9,31.64 0,14.68 -11,26.36 -24.29,30.49 -11.46,3.67 -33.47,2.53 -33.47,18.34 0,8.94 7.79,13.99 17.65,13.99 7.57,0 15.6,-0.93 22.93,-3.91 3.67,-1.37 7.1,-3.66 10.78,-5.03 l 2.75,15.36 c -11.02,5.03 -21.57,7.33 -33.47,7.33 -17.66,0 -37.61,-7.8 -37.61,-29.8 0,-13.98 10.55,-24.08 22.94,-28.66 10.76,-3.67 35.29,-2.51 35.29,-19.72 0,-11.92 -11.68,-15.35 -22,-15.35 -13.53,0 -22.25,5.28 -34.39,11.68" /><path
             id="path114"
             style="fill:#000000;fill-opacity:1;fill-rule:nonzero;stroke:none"
             d="m 1528.17,4219.06 c -0.45,-3.89 -1.15,-7.56 -1.84,-11.45 -0.22,-0.92 -0.69,-2.3 -0.69,-3.44 0,-5.73 23.84,-10.09 26.38,-10.54 3.89,-0.69 8.01,-0.93 12.14,-0.93 17.42,0 36.9,7.57 36.9,31.64 0,14.68 -11,26.36 -24.29,30.49 -11.46,3.67 -33.47,2.53 -33.47,18.34 0,8.94 7.79,13.99 17.65,13.99 7.57,0 15.6,-0.93 22.93,-3.91 3.67,-1.37 7.1,-3.66 10.78,-5.03 l 2.75,15.36 c -11.02,5.03 -21.57,7.33 -33.47,7.33 -17.66,0 -37.61,-7.8 -37.61,-29.8 0,-13.98 10.55,-24.08 22.94,-28.66 10.76,-3.67 35.29,-2.51 35.29,-19.72 0,-11.92 -11.68,-15.35 -22,-15.35 -13.53,0 -22.25,5.28 -34.39,11.68" /><path
             id="path116"
             style="fill:#000000;fill-opacity:1;fill-rule:nonzero;stroke:none"
             d="m 1705.84,4326.13 v -29.11 h -19.71 v -13.77 h 19.03 v -61.89 c 0,-11.45 3.2,-28.66 18.56,-28.66 12.16,0 23.61,3.44 34.16,8.94 l -3.68,13.77 c -7.09,-4.6 -12.14,-7.8 -20.62,-7.8 -10.55,0 -11.47,12.37 -11.47,20.17 v 55.47 h 31.87 v 13.77 h -31.87 v 29.11 h -16.27" /><path
             id="path118"
             style="fill:#000000;fill-opacity:1;fill-rule:nonzero;stroke:none"
             d="m 1781.66,4362.58 v -167.35 h 18.11 v 52.49 c 0,14.45 2.51,37.61 22.68,37.61 6.43,0 13.53,-1.39 18.11,-6.42 4.13,-4.82 4.82,-11.02 4.82,-17.21 0,-2.97 -0.22,-5.72 -0.22,-8.47 v -58 h 18.11 v 67.16 c 0,16.74 -3.68,37.14 -31.19,37.14 -11.92,0 -26.81,-5.95 -32.78,-16.28 l -0.22,79.33 h -17.42" /><path
             id="path120"
             style="fill:#000000;fill-opacity:1;fill-rule:nonzero;stroke:none"
             d="m 1973.16,4219.98 c -10.32,-7.1 -20.64,-13.06 -33.93,-13.06 -13.29,0 -25.45,8.25 -30.95,21.55 -2.51,5.73 -3.22,11.69 -3.9,17.87 h 70.84 c 0,14.91 -2.3,31.19 -12.38,42.64 -7.11,8.04 -17.42,11.93 -27.96,11.93 -29.11,0 -45.63,-29.11 -45.63,-55.02 v -1.14 c 0.47,-26.14 20.17,-52.05 48.83,-52.05 11.69,0 23.61,3.68 33.01,9.63 1.83,1.39 3.44,1.84 3.44,4.14 0,4.34 -1.14,8.94 -1.37,13.51 z m -67.18,39.21 c 3.22,13.53 14.22,27.51 28.9,27.51 h 0.68 c 16.27,0 23.38,-13.98 27.05,-27.51 h -56.63" /><path
             id="path122"
             style="fill:#000000;fill-opacity:1;fill-rule:nonzero;stroke:none"
             d="m 2078.78,4354.33 v -159.1 h 92.16 v 15.36 h -73.36 v 143.74 h -18.8" /><path
             id="path124"
             style="fill:#000000;fill-opacity:1;fill-rule:nonzero;stroke:none"
             d="m 2199.8,4275.23 c 12.61,7.33 20.4,11.93 35.53,11.93 h 1.14 c 12.84,-1.61 17.66,-14.44 17.66,-26.83 v -8.02 c -23.85,0 -62.58,-5.5 -62.58,-30.95 0,-13.52 8.7,-28.66 24.98,-28.66 13.06,0 27.74,2.53 38.28,10.78 v -8.25 h 17.42 v 64.41 c 0,21.55 -12.82,41.27 -37.35,41.27 -11.24,0 -22.24,-2.3 -32.1,-7.57 -1.61,-0.68 -4.36,-1.61 -4.36,-4.12 0,-4.59 1.14,-9.41 1.38,-13.99 z m 54.33,-34.84 v -12.84 c 0,-15.36 -11.24,-20.63 -25.68,-20.63 -8.25,0 -21.09,3.89 -21.09,15.13 0,11.47 18.34,15.36 26.83,16.51 6.64,1.14 13.29,1.83 19.94,1.83" /><path
             id="path126"
             style="fill:#000000;fill-opacity:1;fill-rule:nonzero;stroke:none"
             d="m 2310.86,4202.33 c -8.02,-3.66 -14.44,-13.75 -14.44,-23.14 0,-22.02 29.8,-31.19 50.42,-31.19 18.58,0 48.38,7.58 50.44,29.13 v 1.59 c 0,13.98 -8.01,24.53 -21.09,28.89 -10.08,3.44 -20.63,3.67 -31.17,3.67 h -16.05 c -7.8,0 -11.45,5.72 -11.45,12.38 v 1.82 c 0.45,2.07 1.37,3.91 2.06,5.97 7.09,-3.9 12.83,-6.65 20.62,-6.65 h 2.3 c 21.08,2.06 33.92,19.03 33.92,37.59 v 1.84 c -0.45,8.25 -3.44,14.68 -7.79,21.32 0.92,-0.69 1.84,-0.69 2.98,-0.69 6.42,0 12.37,0.69 18.8,0.69 3.43,0 6.65,-0.46 10.09,-0.69 l -2.53,14.67 c -11.24,0 -21.31,-2.06 -31.86,-5.5 -1.14,-0.45 -2.75,-1.37 -4.13,-1.37 -1.37,0 -4.12,2.29 -5.73,3.2 -5.05,2.3 -10.31,3.67 -15.81,3.67 -19.49,0 -36,-16.73 -36,-37.14 0,-6.87 1.61,-13.51 5.04,-19.48 0.69,-0.91 1.83,-2.28 1.83,-3.44 -0.68,-2.97 -3.65,-6.42 -4.81,-9.63 -1.14,-3.2 -1.59,-6.64 -1.59,-10.07 0,-6.21 1.82,-12.39 5.95,-17.44 z m 15.12,-8.02 h 24.08 c 12.14,0 30.72,-1.83 30.72,-15.59 0,-9.86 -13.98,-15.13 -23.39,-16.74 -3.44,-0.45 -7.09,-0.68 -10.76,-0.68 -12.38,0 -33.94,4.12 -33.94,18.11 0,7.11 6.2,13.98 13.29,14.9 z m 12.16,91.92 h 1.83 c 15.14,0 21.33,-11.92 21.33,-23.6 0,-11.69 -5.05,-22.47 -18.58,-24.54 h -1.83 c -15.12,0 -21.31,11.93 -21.31,23.61 0,11.71 5.03,22.47 18.56,24.53" /><path
             id="path128"
             style="fill:#000000;fill-opacity:1;fill-rule:nonzero;stroke:none"
             d="m 2438.39,4278.44 v 19.72 h -16.28 v -102.93 h 17.42 v 46.54 c 0,15.36 5.05,32.78 25.45,39.65 4.13,1.61 8.71,2.3 13.07,2.3 v 15.81 c -16.28,0 -28.89,-7.8 -39.66,-21.09" /><path
             id="path130"
             style="fill:#000000;fill-opacity:1;fill-rule:nonzero;stroke:none"
             d="m 2499.8,4275.23 c 12.61,7.33 20.4,11.93 35.53,11.93 h 1.14 c 12.84,-1.61 17.66,-14.44 17.66,-26.83 v -8.02 c -23.85,0 -62.58,-5.5 -62.58,-30.95 0,-13.52 8.7,-28.66 24.98,-28.66 13.06,0 27.74,2.53 38.28,10.78 v -8.25 h 17.42 v 64.41 c 0,21.55 -12.82,41.27 -37.35,41.27 -11.24,0 -22.24,-2.3 -32.1,-7.57 -1.61,-0.68 -4.36,-1.61 -4.36,-4.12 0,-4.59 1.14,-9.41 1.38,-13.99 z m 54.33,-34.84 v -12.84 c 0,-15.36 -11.24,-20.63 -25.68,-20.63 -8.25,0 -21.09,3.89 -21.09,15.13 0,11.47 18.34,15.36 26.83,16.51 6.64,1.14 13.29,1.83 19.94,1.83" /><path
             id="path132"
             style="fill:#000000;fill-opacity:1;fill-rule:nonzero;stroke:none"
             d="m 2624.61,4282.8 v 15.36 h -16.95 v -102.93 h 18.11 v 52.49 c 0,14.45 2.51,37.61 22.68,37.61 6.43,0 13.53,-1.39 18.11,-6.42 4.13,-4.82 4.82,-11.02 4.82,-17.21 0,-2.97 -0.22,-5.72 -0.22,-8.47 v -58 h 18.11 v 54.79 c 0,3.9 0.21,8.03 0.21,12.15 0,16.74 -3.89,37.36 -31.17,37.36 -13.98,0 -24.75,-6.42 -33.7,-16.73" /><path
             id="path134"
             style="fill:#000000;fill-opacity:1;fill-rule:nonzero;stroke:none"
             d="m 2727.86,4202.33 c -8.02,-3.66 -14.44,-13.75 -14.44,-23.14 0,-22.02 29.8,-31.19 50.42,-31.19 18.58,0 48.38,7.58 50.44,29.13 v 1.59 c 0,13.98 -8.01,24.53 -21.09,28.89 -10.08,3.44 -20.63,3.67 -31.17,3.67 h -16.05 c -7.8,0 -11.45,5.72 -11.45,12.38 v 1.82 c 0.45,2.07 1.37,3.91 2.06,5.97 7.09,-3.9 12.83,-6.65 20.62,-6.65 h 2.3 c 21.08,2.06 33.92,19.03 33.92,37.59 v 1.84 c -0.45,8.25 -3.44,14.68 -7.79,21.32 0.92,-0.69 1.84,-0.69 2.98,-0.69 6.42,0 12.37,0.69 18.8,0.69 3.43,0 6.65,-0.46 10.09,-0.69 l -2.53,14.67 c -11.24,0 -21.31,-2.06 -31.86,-5.5 -1.14,-0.45 -2.75,-1.37 -4.13,-1.37 -1.37,0 -4.12,2.29 -5.73,3.2 -5.05,2.3 -10.31,3.67 -15.81,3.67 -19.49,0 -36,-16.73 -36,-37.14 0,-6.87 1.61,-13.51 5.04,-19.48 0.69,-0.91 1.83,-2.28 1.83,-3.44 -0.68,-2.97 -3.65,-6.42 -4.81,-9.63 -1.14,-3.2 -1.59,-6.64 -1.59,-10.07 0,-6.21 1.82,-12.39 5.95,-17.44 z m 15.12,-8.02 h 24.08 c 12.14,0 30.72,-1.83 30.72,-15.59 0,-9.86 -13.98,-15.13 -23.39,-16.74 -3.44,-0.45 -7.09,-0.68 -10.76,-0.68 -12.38,0 -33.94,4.12 -33.94,18.11 0,7.11 6.2,13.98 13.29,14.9 z m 12.16,91.92 h 1.83 c 15.14,0 21.33,-11.92 21.33,-23.6 0,-11.69 -5.05,-22.47 -18.58,-24.54 h -1.83 c -15.12,0 -21.31,11.93 -21.31,23.61 0,11.71 5.03,22.47 18.56,24.53" /><path
             id="path136"
             style="fill:#000000;fill-opacity:1;fill-rule:nonzero;stroke:none"
             d="m 2839.11,4297.02 v -101.79 h 17.42 v 101.79 z m -1.61,54.09 v -20.41 h 20.41 v 20.41 h -20.41" /><path
             id="path138"
             style="fill:#000000;fill-opacity:1;fill-rule:nonzero;stroke:none"
             d="m 2892.8,4275.23 c 12.61,7.33 20.4,11.93 35.53,11.93 h 1.14 c 12.84,-1.61 17.66,-14.44 17.66,-26.83 v -8.02 c -23.85,0 -62.58,-5.5 -62.58,-30.95 0,-13.52 8.7,-28.66 24.98,-28.66 13.06,0 27.74,2.53 38.28,10.78 v -8.25 h 17.42 v 64.41 c 0,21.55 -12.82,41.27 -37.35,41.27 -11.24,0 -22.24,-2.3 -32.1,-7.57 -1.61,-0.68 -4.36,-1.61 -4.36,-4.12 0,-4.59 1.14,-9.41 1.38,-13.99 z m 54.33,-34.84 v -12.84 c 0,-15.36 -11.24,-20.63 -25.68,-20.63 -8.25,0 -21.09,3.89 -21.09,15.13 0,11.47 18.34,15.36 26.83,16.51 6.64,1.14 13.29,1.83 19.94,1.83" /><path
             id="path140"
             style="fill:#000000;fill-opacity:1;fill-rule:nonzero;stroke:none"
             d="m 3017.61,4282.8 v 15.36 h -16.95 v -102.93 h 18.11 v 52.49 c 0,14.45 2.51,37.61 22.68,37.61 6.43,0 13.53,-1.39 18.11,-6.42 4.13,-4.82 4.82,-11.02 4.82,-17.21 0,-2.97 -0.22,-5.72 -0.22,-8.47 v -58 h 18.11 v 54.79 c 0,3.9 0.21,8.03 0.21,12.15 0,16.74 -3.89,37.36 -31.17,37.36 -13.98,0 -24.75,-6.42 -33.7,-16.73" /><path
             id="path142"
             style="fill:#000000;fill-opacity:1;fill-rule:nonzero;stroke:none"
             d="m 3217.27,4216.31 c 12.37,19.27 16.28,33.94 19.25,46.08 8.03,31.64 16.73,59.16 30.95,74.97 2.75,2.98 4.58,5.05 11.92,5.05 15.81,0 16.27,-15.83 16.27,-19.03 0,-4.13 -1.14,-7.35 -1.14,-8.49 0,-1.61 1.37,-1.61 1.61,-1.61 3.67,0 9.85,2.53 15.57,6.66 4.14,3.2 6.21,5.5 6.21,14.9 0,12.38 -6.43,21.77 -19.27,21.77 -7.33,0 -27.5,-1.83 -49.97,-24.53 -18.34,-18.8 -29.11,-60.05 -33.47,-77.25 -4.12,-15.81 -5.97,-22.92 -12.84,-36.67 -1.59,-2.75 -7.56,-12.85 -10.77,-15.83 -6.18,-5.72 -8.48,-9.85 -8.48,-11 0,-0.45 0.45,-1.38 2.06,-1.38 0.92,0 5.74,0.93 11.69,4.82 3.91,2.29 4.36,2.75 9.62,8.25 11.47,-0.22 19.49,-2.29 33.94,-6.41 11.69,-3.22 23.38,-6.66 35.06,-6.66 18.58,0 37.38,13.99 44.71,24.08 4.59,6.19 5.97,11.92 5.97,12.61 0,1.59 -1.38,1.59 -1.61,1.59 -3.67,0 -9.17,-2.51 -13.07,-5.26 -6.18,-3.91 -6.65,-5.28 -8.03,-9.17 -1.14,-3.67 -2.51,-5.5 -3.43,-6.88 -1.83,-2.75 -2.07,-2.75 -5.5,-2.75 -11,0 -22.47,3.44 -37.6,7.56 -6.42,1.83 -19.03,5.5 -30.48,5.5 -2.99,0 -6.19,-0.23 -9.17,-0.92" /><path
             id="path144"
             style="fill:#000000;fill-opacity:1;fill-rule:nonzero;stroke:none"
             d="m 3427.11,4297.02 v -101.79 h 17.42 v 101.79 z m -1.61,54.09 v -20.41 h 20.41 v 20.41 h -20.41" /><path
             id="path146"
             style="fill:#000000;fill-opacity:1;fill-rule:nonzero;stroke:none"
             d="m 3497.61,4282.8 v 15.36 h -16.95 v -102.93 h 18.11 v 52.49 c 0,14.45 2.51,37.61 22.68,37.61 6.43,0 13.53,-1.39 18.11,-6.42 4.13,-4.82 4.82,-11.02 4.82,-17.21 0,-2.97 -0.22,-5.72 -0.22,-8.47 v -58 h 18.11 v 54.79 c 0,3.9 0.21,8.03 0.21,12.15 0,16.74 -3.89,37.36 -31.17,37.36 -13.98,0 -24.75,-6.42 -33.7,-16.73" /><path
             id="path148"
             style="fill:#000000;fill-opacity:1;fill-rule:nonzero;stroke:none"
             d="m 3673.3,4220.22 c -10.55,-7.11 -20.63,-12.61 -35.07,-12.61 -21.56,0 -32.78,19.25 -32.78,39.2 0,19.71 11,39.21 34.16,39.21 6.64,0 13.28,-1.16 19.48,-3.68 4.13,-2.06 7.79,-4.59 11.69,-6.87 0.92,3.66 1.38,7.33 2.06,11 0.24,0.69 0.46,1.83 0.46,2.98 0,8.02 -29.11,11.46 -34.85,11.46 -29.79,0 -48.82,-25.22 -49.97,-52.03 v -2.3 c 0,-25.91 17.43,-53.88 49.29,-53.88 11.46,0 23.61,3.22 33.46,9.41 1.38,1.14 3.44,1.83 3.44,4.12 0,4.36 -1.14,9.4 -1.37,13.99" /><path
             id="path150"
             style="fill:#000000;fill-opacity:1;fill-rule:nonzero;stroke:none"
             d="m 3699.11,4362.58 v -167.35 h 17.42 v 167.35 h -17.42" /><path
             id="path152"
             style="fill:#000000;fill-opacity:1;fill-rule:nonzero;stroke:none"
             d="m 3752.66,4297.02 v -74.74 c 0,-7.56 0.22,-15.36 5.03,-22.01 4.59,-6.19 11.92,-7.57 19.26,-7.57 13.99,0 29.8,4.36 39.89,13.77 v -11.24 h 17.43 v 101.79 h -18.11 v -63.5 c 0,-18.8 -11.24,-27.74 -29.35,-27.74 -8.72,0 -16.04,2.75 -16.04,15.13 v 76.11 h -18.11" /><path
             id="path154"
             style="fill:#000000;fill-opacity:1;fill-rule:nonzero;stroke:none"
             d="m 3933.38,4362.58 v -75.19 c -8.94,7.78 -21.32,12.38 -33.24,12.38 -24.98,0 -39.66,-29.11 -39.66,-52.27 v -1.16 c 0,-22.92 11.24,-53.64 40.11,-53.64 11.93,0 23.61,5.97 32.1,13.99 v -11.46 h 18.11 v 167.35 z m -55.93,-120.13 c 0,1.38 -0.23,2.75 -0.23,4.13 0,18.34 11.23,38.75 33.47,38.75 7.33,0 20.4,-4.83 22,-13.08 0.23,-1.37 0.23,-2.75 0.23,-4.12 0,-2.75 -0.23,-5.5 -0.23,-8.25 v -34.85 c 0,-10.09 -14.89,-18.11 -24.06,-18.11 -19.96,0 -29.58,18.11 -31.18,35.53" /><path
             id="path156"
             style="fill:#000000;fill-opacity:1;fill-rule:nonzero;stroke:none"
             d="m 3987.11,4297.02 v -101.79 h 17.42 v 101.79 z m -1.61,54.09 v -20.41 h 20.41 v 20.41 h -20.41" /><path
             id="path158"
             style="fill:#000000;fill-opacity:1;fill-rule:nonzero;stroke:none"
             d="m 4056.61,4282.8 v 15.36 h -16.95 v -102.93 h 18.11 v 52.49 c 0,14.45 2.51,37.61 22.68,37.61 6.43,0 13.53,-1.39 18.11,-6.42 4.13,-4.82 4.82,-11.02 4.82,-17.21 0,-2.97 -0.22,-5.72 -0.22,-8.47 v -58 h 18.11 v 54.79 c 0,3.9 0.21,8.03 0.21,12.15 0,16.74 -3.89,37.36 -31.17,37.36 -13.98,0 -24.75,-6.42 -33.7,-16.73" /><path
             id="path160"
             style="fill:#000000;fill-opacity:1;fill-rule:nonzero;stroke:none"
             d="m 4159.86,4202.33 c -8.02,-3.66 -14.44,-13.75 -14.44,-23.14 0,-22.02 29.8,-31.19 50.42,-31.19 18.58,0 48.38,7.58 50.44,29.13 v 1.59 c 0,13.98 -8.01,24.53 -21.09,28.89 -10.08,3.44 -20.63,3.67 -31.17,3.67 h -16.05 c -7.8,0 -11.45,5.72 -11.45,12.38 v 1.82 c 0.45,2.07 1.37,3.91 2.06,5.97 7.09,-3.9 12.83,-6.65 20.62,-6.65 h 2.3 c 21.08,2.06 33.92,19.03 33.92,37.59 v 1.84 c -0.45,8.25 -3.44,14.68 -7.79,21.32 0.92,-0.69 1.84,-0.69 2.98,-0.69 6.42,0 12.37,0.69 18.8,0.69 3.43,0 6.65,-0.46 10.09,-0.69 l -2.53,14.67 c -11.24,0 -21.31,-2.06 -31.86,-5.5 -1.14,-0.45 -2.75,-1.37 -4.13,-1.37 -1.37,0 -4.12,2.29 -5.73,3.2 -5.05,2.3 -10.31,3.67 -15.81,3.67 -19.49,0 -36,-16.73 -36,-37.14 0,-6.87 1.61,-13.51 5.04,-19.48 0.69,-0.91 1.83,-2.28 1.83,-3.44 -0.68,-2.97 -3.65,-6.42 -4.81,-9.63 -1.14,-3.2 -1.59,-6.64 -1.59,-10.07 0,-6.21 1.82,-12.39 5.95,-17.44 z m 15.12,-8.02 h 24.08 c 12.14,0 30.72,-1.83 30.72,-15.59 0,-9.86 -13.98,-15.13 -23.39,-16.74 -3.44,-0.45 -7.09,-0.68 -10.76,-0.68 -12.38,0 -33.94,4.12 -33.94,18.11 0,7.11 6.2,13.98 13.29,14.9 z m 12.16,91.92 h 1.83 c 15.14,0 21.33,-11.92 21.33,-23.6 0,-11.69 -5.05,-22.47 -18.58,-24.54 h -1.83 c -15.12,0 -21.31,11.93 -21.31,23.61 0,11.71 5.03,22.47 18.56,24.53" /><path
             id="path162"
             style="fill:#000000;fill-opacity:1;fill-rule:nonzero;stroke:none"
             d="m 4352.84,4326.13 v -29.11 h -19.71 v -13.77 h 19.03 v -61.89 c 0,-11.45 3.2,-28.66 18.56,-28.66 12.16,0 23.61,3.44 34.16,8.94 l -3.68,13.77 c -7.09,-4.6 -12.14,-7.8 -20.62,-7.8 -10.55,0 -11.47,12.37 -11.47,20.17 v 55.47 h 31.87 v 13.77 h -31.87 v 29.11 h -16.27" /><path
             id="path164"
             style="fill:#000000;fill-opacity:1;fill-rule:nonzero;stroke:none"
             d="m 4428.66,4362.58 v -167.35 h 18.11 v 52.49 c 0,14.45 2.51,37.61 22.68,37.61 6.43,0 13.53,-1.39 18.11,-6.42 4.13,-4.82 4.82,-11.02 4.82,-17.21 0,-2.97 -0.22,-5.72 -0.22,-8.47 v -58 h 18.11 v 67.16 c 0,16.74 -3.68,37.14 -31.19,37.14 -11.92,0 -26.81,-5.95 -32.78,-16.28 l -0.22,79.33 h -17.42" /><path
             id="path166"
             style="fill:#000000;fill-opacity:1;fill-rule:nonzero;stroke:none"
             d="m 4620.16,4219.98 c -10.32,-7.1 -20.64,-13.06 -33.93,-13.06 -13.29,0 -25.45,8.25 -30.95,21.55 -2.51,5.73 -3.22,11.69 -3.9,17.87 h 70.84 c 0,14.91 -2.3,31.19 -12.38,42.64 -7.11,8.04 -17.42,11.93 -27.96,11.93 -29.11,0 -45.63,-29.11 -45.63,-55.02 v -1.14 c 0.47,-26.14 20.17,-52.05 48.83,-52.05 11.69,0 23.61,3.68 33.01,9.63 1.83,1.39 3.44,1.84 3.44,4.14 0,4.34 -1.14,8.94 -1.37,13.51 z m -67.18,39.21 c 3.22,13.53 14.22,27.51 28.9,27.51 h 0.68 c 16.27,0 23.38,-13.98 27.05,-27.51 h -56.63" /><path
             id="path168"
             style="fill:#000000;fill-opacity:1;fill-rule:nonzero;stroke:none"
             d="m 4797.3,4220.22 c -10.55,-7.11 -20.63,-12.61 -35.07,-12.61 -21.56,0 -32.78,19.25 -32.78,39.2 0,19.71 11,39.21 34.16,39.21 6.64,0 13.28,-1.16 19.48,-3.68 4.13,-2.06 7.79,-4.59 11.69,-6.87 0.92,3.66 1.38,7.33 2.06,11 0.24,0.69 0.46,1.83 0.46,2.98 0,8.02 -29.11,11.46 -34.85,11.46 -29.79,0 -48.82,-25.22 -49.97,-52.03 v -2.3 c 0,-25.91 17.43,-53.88 49.29,-53.88 11.46,0 23.61,3.22 33.46,9.41 1.38,1.14 3.44,1.83 3.44,4.12 0,4.36 -1.14,9.4 -1.37,13.99" /><path
             id="path170"
             style="fill:#000000;fill-opacity:1;fill-rule:nonzero;stroke:none"
             d="m 4858.64,4300.91 c -28.19,-2.99 -46.31,-28.43 -46.31,-54.78 0,-20.86 11.23,-43.11 35.31,-51.13 4.58,-1.61 9.39,-2.3 14.44,-2.3 27.05,0 49.28,24.08 49.28,53.19 0,25.67 -17.64,55.02 -49.97,55.02 z m -29.34,-56.39 c -0.24,1.37 -0.24,2.75 -0.24,4.12 0,19.03 12.16,38.06 32.78,38.06 20.64,0 32.57,-18.57 32.57,-38.75 0,-17.65 -9.18,-40.34 -32.33,-40.34 -19.03,0 -30.72,15.81 -32.78,36.91" /><path
             id="path172"
             style="fill:#000000;fill-opacity:1;fill-rule:nonzero;stroke:none"
             d="m 4953.61,4282.8 v 15.36 h -16.95 v -102.93 h 18.11 v 52.49 c 0,14.45 2.51,37.61 22.68,37.61 6.43,0 13.53,-1.39 18.11,-6.42 4.13,-4.82 4.82,-11.02 4.82,-17.21 0,-2.97 -0.22,-5.72 -0.22,-8.47 v -58 h 18.11 v 54.79 c 0,3.9 0.21,8.03 0.21,12.15 0,16.74 -3.89,37.36 -31.17,37.36 -13.98,0 -24.75,-6.42 -33.7,-16.73" /><path
             id="path174"
             style="fill:#000000;fill-opacity:1;fill-rule:nonzero;stroke:none"
             d="m 5045.17,4219.06 c -0.45,-3.89 -1.15,-7.56 -1.84,-11.45 -0.22,-0.92 -0.69,-2.3 -0.69,-3.44 0,-5.73 23.84,-10.09 26.38,-10.54 3.89,-0.69 8.01,-0.93 12.14,-0.93 17.42,0 36.9,7.57 36.9,31.64 0,14.68 -11,26.36 -24.29,30.49 -11.46,3.67 -33.47,2.53 -33.47,18.34 0,8.94 7.79,13.99 17.65,13.99 7.57,0 15.6,-0.93 22.93,-3.91 3.67,-1.37 7.1,-3.66 10.78,-5.03 l 2.75,15.36 c -11.02,5.03 -21.57,7.33 -33.47,7.33 -17.66,0 -37.61,-7.8 -37.61,-29.8 0,-13.98 10.55,-24.08 22.94,-28.66 10.76,-3.67 35.29,-2.51 35.29,-19.72 0,-11.92 -11.68,-15.35 -22,-15.35 -13.53,0 -22.25,5.28 -34.39,11.68" /><path
             id="path176"
             style="fill:#000000;fill-opacity:1;fill-rule:nonzero;stroke:none"
             d="m 5146.84,4326.13 v -29.11 h -19.71 v -13.77 h 19.03 v -61.89 c 0,-11.45 3.2,-28.66 18.56,-28.66 12.16,0 23.61,3.44 34.16,8.94 l -3.68,13.77 c -7.09,-4.6 -12.14,-7.8 -20.62,-7.8 -10.55,0 -11.47,12.37 -11.47,20.17 v 55.47 h 31.87 v 13.77 h -31.87 v 29.11 h -16.27" /><path
             id="path178"
             style="fill:#000000;fill-opacity:1;fill-rule:nonzero;stroke:none"
             d="m 5239.39,4278.44 v 19.72 h -16.28 v -102.93 h 17.42 v 46.54 c 0,15.36 5.05,32.78 25.45,39.65 4.13,1.61 8.71,2.3 13.07,2.3 v 15.81 c -16.28,0 -28.89,-7.8 -39.66,-21.09" /><path
             id="path180"
             style="fill:#000000;fill-opacity:1;fill-rule:nonzero;stroke:none"
             d="m 5301.8,4275.23 c 12.61,7.33 20.4,11.93 35.53,11.93 h 1.14 c 12.84,-1.61 17.66,-14.44 17.66,-26.83 v -8.02 c -23.85,0 -62.58,-5.5 -62.58,-30.95 0,-13.52 8.7,-28.66 24.98,-28.66 13.06,0 27.74,2.53 38.28,10.78 v -8.25 h 17.42 v 64.41 c 0,21.55 -12.82,41.27 -37.35,41.27 -11.24,0 -22.24,-2.3 -32.1,-7.57 -1.61,-0.68 -4.36,-1.61 -4.36,-4.12 0,-4.59 1.14,-9.41 1.38,-13.99 z m 54.33,-34.84 v -12.84 c 0,-15.36 -11.24,-20.63 -25.68,-20.63 -8.25,0 -21.09,3.89 -21.09,15.13 0,11.47 18.34,15.36 26.83,16.51 6.64,1.14 13.29,1.83 19.94,1.83" /><path
             id="path182"
             style="fill:#000000;fill-opacity:1;fill-rule:nonzero;stroke:none"
             d="m 5410.11,4297.02 v -101.79 h 17.42 v 101.79 z m -1.61,54.09 v -20.41 h 20.41 v 20.41 h -20.41" /><path
             id="path184"
             style="fill:#000000;fill-opacity:1;fill-rule:nonzero;stroke:none"
             d="m 5480.61,4282.8 v 15.36 h -16.95 v -102.93 h 18.11 v 52.49 c 0,14.45 2.51,37.61 22.68,37.61 6.43,0 13.53,-1.39 18.11,-6.42 4.13,-4.82 4.82,-11.02 4.82,-17.21 0,-2.97 -0.22,-5.72 -0.22,-8.47 v -58 h 18.11 v 54.79 c 0,3.9 0.21,8.03 0.21,12.15 0,16.74 -3.89,37.36 -31.17,37.36 -13.98,0 -24.75,-6.42 -33.7,-16.73" /><path
             id="path186"
             style="fill:#000000;fill-opacity:1;fill-rule:nonzero;stroke:none"
             d="m 5585.84,4326.13 v -29.11 h -19.71 v -13.77 h 19.03 v -61.89 c 0,-11.45 3.2,-28.66 18.56,-28.66 12.16,0 23.61,3.44 34.16,8.94 l -3.68,13.77 c -7.09,-4.6 -12.14,-7.8 -20.62,-7.8 -10.55,0 -11.47,12.37 -11.47,20.17 v 55.47 h 31.87 v 13.77 h -31.87 v 29.11 h -16.27" /><path
             id="path188"
             style="fill:#000000;fill-opacity:1;fill-rule:nonzero;stroke:none"
             d="m 5654.17,4219.06 c -0.45,-3.89 -1.15,-7.56 -1.84,-11.45 -0.22,-0.92 -0.69,-2.3 -0.69,-3.44 0,-5.73 23.84,-10.09 26.38,-10.54 3.89,-0.69 8.01,-0.93 12.14,-0.93 17.42,0 36.9,7.57 36.9,31.64 0,14.68 -11,26.36 -24.29,30.49 -11.46,3.67 -33.47,2.53 -33.47,18.34 0,8.94 7.79,13.99 17.65,13.99 7.57,0 15.6,-0.93 22.93,-3.91 3.67,-1.37 7.1,-3.66 10.78,-5.03 l 2.75,15.36 c -11.02,5.03 -21.57,7.33 -33.47,7.33 -17.66,0 -37.61,-7.8 -37.61,-29.8 0,-13.98 10.55,-24.08 22.94,-28.66 10.76,-3.67 35.29,-2.51 35.29,-19.72 0,-11.92 -11.68,-15.35 -22,-15.35 -13.53,0 -22.25,5.28 -34.39,11.68" /><path
             id="path190"
             style="fill:#005282;fill-opacity:1;fill-rule:nonzero;stroke:none"
             d="m 823.188,3963.72 c -12.61,-9.63 -18.797,-19.02 -20.641,-22 -10.313,-15.81 -12.141,-30.27 -12.141,-30.49 0,-2.75 2.75,-2.75 4.578,-2.75 3.907,0 4.125,0.46 5.047,4.58 5.282,22.47 18.797,41.72 44.703,52.27 2.75,0.92 3.438,1.37 3.438,2.98 0,1.61 -1.375,2.3 -1.828,2.52 -10.094,3.9 -37.828,15.36 -46.547,53.87 -0.688,2.75 -0.906,3.44 -4.813,3.44 -1.828,0 -4.578,0 -4.578,-2.75 0,-0.45 2.063,-14.91 11.688,-30.26 4.594,-6.88 11.234,-14.9 21.094,-22.24 H 652.859 c -4.125,0 -8.25,0 -8.25,-4.58 0,-4.59 4.125,-4.59 8.25,-4.59 h 170.329" /><path
             id="path192"
             style="fill:#000000;fill-opacity:1;fill-rule:nonzero;stroke:none"
             d="m 1029.16,3935.98 c -10.32,-7.1 -20.64,-13.06 -33.926,-13.06 -13.296,0 -25.453,8.25 -30.953,21.55 -2.515,5.73 -3.218,11.69 -3.906,17.87 h 70.845 c 0,14.91 -2.3,31.19 -12.38,42.64 -7.11,8.04 -17.42,11.93 -27.965,11.93 -29.109,0 -45.625,-29.11 -45.625,-55.02 v -1.14 c 0.469,-26.14 20.172,-52.05 48.828,-52.05 11.692,0 23.612,3.68 33.012,9.63 1.83,1.39 3.44,1.84 3.44,4.14 0,4.34 -1.14,8.94 -1.37,13.51 z m -67.176,39.21 c 3.219,13.53 14.219,27.51 28.891,27.51 h 0.688 c 16.267,0 23.377,-13.98 27.047,-27.51 h -56.626" /><path
             id="path194"
             style="fill:#000000;fill-opacity:1;fill-rule:nonzero;stroke:none"
             d="m 1039.38,4013.02 c 2.98,-4.6 7.1,-8.49 10.54,-12.61 l 27.97,-32.57 c 0.91,-1.14 2.99,-2.51 2.99,-4.12 v -0.22 c 0,-1.16 -1.61,-2.53 -2.54,-3.44 l -8.01,-9.86 c -6.88,-8.25 -13.53,-16.28 -20.41,-24.53 -3.9,-4.81 -8.25,-9.4 -11.92,-14.44 l 19.48,0.22 31.65,42.19 33.23,-42.19 19.72,-0.22 c -3.67,4.82 -7.8,9.18 -11.69,13.75 l -29.58,34.61 c -0.92,0.93 -2.98,2.75 -2.98,4.13 0,2.3 7.34,9.17 10.55,13.3 l 19.48,23.39 c 3.44,4.12 7.34,8.01 10.31,12.61 l -19.25,-0.24 -29.34,-36.67 -27.74,33.69 -2.98,2.98 -5.95,0.24 h -13.53" /><path
             id="path196"
             style="fill:#000000;fill-opacity:1;fill-rule:nonzero;stroke:none"
             d="m 1177.53,4002.23 v 10.79 h -17.42 v -146.27 h 18.11 v 54.56 c 8.72,-7.79 19.03,-12.61 30.95,-12.61 26.6,0 41.27,29.13 41.27,53.88 0,19.25 -8.72,53.19 -36.24,53.19 -12.37,0 -27.04,-4.82 -36.67,-13.54 z m 55.7,-43.32 c -1.6,-17.64 -13.75,-35.99 -33.46,-35.99 -8.49,0 -21.55,7.33 -21.55,16.28 v 47.68 c 1.14,6.87 14.44,13.75 23.61,13.75 19.72,0 31.64,-20.18 31.64,-37.82 0,-1.37 0,-2.53 -0.24,-3.9" /><path
             id="path198"
             style="fill:#000000;fill-opacity:1;fill-rule:nonzero;stroke:none"
             d="m 1287.39,3994.44 v 19.72 h -16.28 v -102.93 h 17.42 v 46.54 c 0,15.36 5.05,32.78 25.45,39.65 4.13,1.61 8.71,2.3 13.07,2.3 v 15.81 c -16.28,0 -28.89,-7.8 -39.66,-21.09" /><path
             id="path200"
             style="fill:#000000;fill-opacity:1;fill-rule:nonzero;stroke:none"
             d="m 1422.16,3935.98 c -10.32,-7.1 -20.64,-13.06 -33.93,-13.06 -13.29,0 -25.45,8.25 -30.95,21.55 -2.51,5.73 -3.22,11.69 -3.9,17.87 h 70.84 c 0,14.91 -2.3,31.19 -12.38,42.64 -7.11,8.04 -17.42,11.93 -27.96,11.93 -29.11,0 -45.63,-29.11 -45.63,-55.02 v -1.14 c 0.47,-26.14 20.17,-52.05 48.83,-52.05 11.69,0 23.61,3.68 33.01,9.63 1.83,1.39 3.44,1.84 3.44,4.14 0,4.34 -1.14,8.94 -1.37,13.51 z m -67.18,39.21 c 3.22,13.53 14.22,27.51 28.9,27.51 h 0.68 c 16.27,0 23.38,-13.98 27.05,-27.51 h -56.63" /><path
             id="path202"
             style="fill:#000000;fill-opacity:1;fill-rule:nonzero;stroke:none"
             d="m 1440.17,3935.06 c -0.45,-3.89 -1.15,-7.56 -1.84,-11.45 -0.22,-0.92 -0.69,-2.3 -0.69,-3.44 0,-5.73 23.84,-10.09 26.38,-10.54 3.89,-0.69 8.01,-0.93 12.14,-0.93 17.42,0 36.9,7.57 36.9,31.64 0,14.68 -11,26.36 -24.29,30.49 -11.46,3.67 -33.47,2.53 -33.47,18.34 0,8.94 7.79,13.99 17.65,13.99 7.57,0 15.6,-0.93 22.93,-3.91 3.67,-1.37 7.1,-3.66 10.78,-5.03 l 2.75,15.36 c -11.02,5.03 -21.57,7.33 -33.47,7.33 -17.66,0 -37.61,-7.8 -37.61,-29.8 0,-13.98 10.55,-24.08 22.94,-28.66 10.76,-3.67 35.29,-2.51 35.29,-19.72 0,-11.92 -11.68,-15.35 -22,-15.35 -13.53,0 -22.25,5.28 -34.39,11.68" /><path
             id="path204"
             style="fill:#000000;fill-opacity:1;fill-rule:nonzero;stroke:none"
             d="m 1527.17,3935.06 c -0.45,-3.89 -1.15,-7.56 -1.84,-11.45 -0.22,-0.92 -0.69,-2.3 -0.69,-3.44 0,-5.73 23.84,-10.09 26.38,-10.54 3.89,-0.69 8.01,-0.93 12.14,-0.93 17.42,0 36.9,7.57 36.9,31.64 0,14.68 -11,26.36 -24.29,30.49 -11.46,3.67 -33.47,2.53 -33.47,18.34 0,8.94 7.79,13.99 17.65,13.99 7.57,0 15.6,-0.93 22.93,-3.91 3.67,-1.37 7.1,-3.66 10.78,-5.03 l 2.75,15.36 c -11.02,5.03 -21.57,7.33 -33.47,7.33 -17.66,0 -37.61,-7.8 -37.61,-29.8 0,-13.98 10.55,-24.08 22.94,-28.66 10.76,-3.67 35.29,-2.51 35.29,-19.72 0,-11.92 -11.68,-15.35 -22,-15.35 -13.53,0 -22.25,5.28 -34.39,11.68" /><path
             id="path206"
             style="fill:#000000;fill-opacity:1;fill-rule:nonzero;stroke:none"
             d="m 1624.11,4013.02 v -101.79 h 17.42 v 101.79 z m -1.61,54.09 v -20.41 h 20.41 v 20.41 h -20.41" /><path
             id="path208"
             style="fill:#000000;fill-opacity:1;fill-rule:nonzero;stroke:none"
             d="m 1712.64,4016.91 c -28.19,-2.99 -46.31,-28.43 -46.31,-54.78 0,-20.86 11.23,-43.11 35.31,-51.13 4.58,-1.61 9.39,-2.3 14.44,-2.3 27.05,0 49.28,24.08 49.28,53.19 0,25.67 -17.64,55.02 -49.97,55.02 z m -29.34,-56.39 c -0.24,1.37 -0.24,2.75 -0.24,4.12 0,19.03 12.16,38.06 32.78,38.06 20.64,0 32.57,-18.57 32.57,-38.75 0,-17.65 -9.18,-40.34 -32.33,-40.34 -19.03,0 -30.72,15.81 -32.78,36.91" /><path
             id="path210"
             style="fill:#000000;fill-opacity:1;fill-rule:nonzero;stroke:none"
             d="m 1807.61,3998.8 v 15.36 h -16.95 v -102.93 h 18.11 v 52.49 c 0,14.45 2.51,37.61 22.68,37.61 6.43,0 13.53,-1.39 18.11,-6.42 4.13,-4.82 4.82,-11.02 4.82,-17.21 0,-2.97 -0.22,-5.72 -0.22,-8.47 v -58 h 18.11 v 54.79 c 0,3.9 0.21,8.03 0.21,12.15 0,16.74 -3.89,37.36 -31.17,37.36 -13.98,0 -24.75,-6.42 -33.7,-16.73" /><path
             id="path212"
             style="fill:#000000;fill-opacity:1;fill-rule:nonzero;stroke:none"
             d="m 2019.64,4016.91 c -28.19,-2.99 -46.31,-28.43 -46.31,-54.78 0,-20.86 11.23,-43.11 35.31,-51.13 4.58,-1.61 9.39,-2.3 14.44,-2.3 27.05,0 49.28,24.08 49.28,53.19 0,25.67 -17.64,55.02 -49.97,55.02 z m -29.34,-56.39 c -0.24,1.37 -0.24,2.75 -0.24,4.12 0,19.03 12.16,38.06 32.78,38.06 20.64,0 32.57,-18.57 32.57,-38.75 0,-17.65 -9.18,-40.34 -32.33,-40.34 -19.03,0 -30.72,15.81 -32.78,36.91" /><path
             id="path214"
             style="fill:#000000;fill-opacity:1;fill-rule:nonzero;stroke:none"
             d="m 2102.92,4013.02 h -16.73 v -13.77 h 16.73 v -88.02 h 17.42 v 88.02 h 24.99 v 13.77 h -25.67 v 25.67 c 0,2.29 -0.24,4.58 -0.24,7.11 0,12.14 8.72,21.09 20.64,21.09 7.33,0 12.61,-2.08 18.8,-4.14 v 13.53 c 0,4.81 -14.91,4.81 -18.11,4.81 -24.08,0 -37.83,-21.78 -37.83,-44.23 v -23.84" /><path
             id="path216"
             style="fill:#000000;fill-opacity:1;fill-rule:nonzero;stroke:none"
             d="m 2260.53,4002.23 v 10.79 h -17.42 v -146.27 h 18.11 v 54.56 c 8.72,-7.79 19.03,-12.61 30.95,-12.61 26.6,0 41.27,29.13 41.27,53.88 0,19.25 -8.72,53.19 -36.24,53.19 -12.37,0 -27.04,-4.82 -36.67,-13.54 z m 55.7,-43.32 c -1.6,-17.64 -13.75,-35.99 -33.46,-35.99 -8.49,0 -21.55,7.33 -21.55,16.28 v 47.68 c 1.14,6.87 14.44,13.75 23.61,13.75 19.72,0 31.64,-20.18 31.64,-37.82 0,-1.37 0,-2.53 -0.24,-3.9" /><path
             id="path218"
             style="fill:#000000;fill-opacity:1;fill-rule:nonzero;stroke:none"
             d="m 2369.39,3994.44 v 19.72 h -16.28 v -102.93 h 17.42 v 46.54 c 0,15.36 5.05,32.78 25.45,39.65 4.13,1.61 8.71,2.3 13.07,2.3 v 15.81 c -16.28,0 -28.89,-7.8 -39.66,-21.09" /><path
             id="path220"
             style="fill:#000000;fill-opacity:1;fill-rule:nonzero;stroke:none"
             d="m 2431.11,4013.02 v -101.79 h 17.42 v 101.79 z m -1.61,54.09 v -20.41 h 20.41 v 20.41 h -20.41" /><path
             id="path222"
             style="fill:#000000;fill-opacity:1;fill-rule:nonzero;stroke:none"
             d="m 2500.61,3998.8 v 15.36 h -16.95 v -102.93 h 18.11 v 52.49 c 0,14.45 2.51,37.61 22.68,37.61 6.43,0 13.53,-1.39 18.11,-6.42 4.13,-4.82 4.82,-11.02 4.82,-17.21 0,-2.97 -0.22,-5.72 -0.22,-8.47 v -58 h 18.11 v 52.49 c 0,14.45 2.51,37.61 22.68,37.61 6.43,0 13.53,-1.39 18.11,-6.42 4.13,-4.82 4.82,-11.02 4.82,-17.21 0,-2.97 -0.22,-5.72 -0.22,-8.47 v -58 h 18.11 v 67.4 c 0,16.96 -4.36,36.9 -30.96,36.9 -13.29,0 -27.97,-6.42 -34.61,-18.34 -2.98,5.28 -4.36,8.95 -8.48,12.39 -5.97,4.58 -13.53,5.95 -20.86,5.95 -13.77,0 -24.53,-6.64 -33.25,-16.73" /><path
             id="path224"
             style="fill:#000000;fill-opacity:1;fill-rule:nonzero;stroke:none"
             d="m 2664.8,3991.23 c 12.61,7.33 20.4,11.93 35.53,11.93 h 1.14 c 12.84,-1.61 17.66,-14.44 17.66,-26.83 v -8.02 c -23.85,0 -62.58,-5.5 -62.58,-30.95 0,-13.52 8.7,-28.66 24.98,-28.66 13.06,0 27.74,2.53 38.28,10.78 v -8.25 h 17.42 v 64.41 c 0,21.55 -12.82,41.27 -37.35,41.27 -11.24,0 -22.24,-2.3 -32.1,-7.57 -1.61,-0.68 -4.36,-1.61 -4.36,-4.12 0,-4.59 1.14,-9.41 1.38,-13.99 z m 54.33,-34.84 v -12.84 c 0,-15.36 -11.24,-20.63 -25.68,-20.63 -8.25,0 -21.09,3.89 -21.09,15.13 0,11.47 18.34,15.36 26.83,16.51 6.64,1.14 13.29,1.83 19.94,1.83" /><path
             id="path226"
             style="fill:#000000;fill-opacity:1;fill-rule:nonzero;stroke:none"
             d="m 2773.11,4078.58 v -167.35 h 17.42 v 167.35 h -17.42" /><path
             id="path228"
             style="fill:#000000;fill-opacity:1;fill-rule:nonzero;stroke:none"
             d="m 2888.2,4013.02 38.3,-101.79 h 21.08 l 38.28,101.79 h -17.42 l -24.75,-67.18 -4.36,-13.75 -2.06,-8.93 -2.75,11.68 -5.5,16.96 -22.47,61.22 h -18.35" /><path
             id="path230"
             style="fill:#000000;fill-opacity:1;fill-rule:nonzero;stroke:none"
             d="m 3007.8,3991.23 c 12.61,7.33 20.4,11.93 35.53,11.93 h 1.14 c 12.84,-1.61 17.66,-14.44 17.66,-26.83 v -8.02 c -23.85,0 -62.58,-5.5 -62.58,-30.95 0,-13.52 8.7,-28.66 24.98,-28.66 13.06,0 27.74,2.53 38.28,10.78 v -8.25 h 17.42 v 64.41 c 0,21.55 -12.82,41.27 -37.35,41.27 -11.24,0 -22.24,-2.3 -32.1,-7.57 -1.61,-0.68 -4.36,-1.61 -4.36,-4.12 0,-4.59 1.14,-9.41 1.38,-13.99 z m 54.33,-34.84 v -12.84 c 0,-15.36 -11.24,-20.63 -25.68,-20.63 -8.25,0 -21.09,3.89 -21.09,15.13 0,11.47 18.34,15.36 26.83,16.51 6.64,1.14 13.29,1.83 19.94,1.83" /><path
             id="path232"
             style="fill:#000000;fill-opacity:1;fill-rule:nonzero;stroke:none"
             d="m 3126.39,3994.44 v 19.72 h -16.28 v -102.93 h 17.42 v 46.54 c 0,15.36 5.05,32.78 25.45,39.65 4.13,1.61 8.71,2.3 13.07,2.3 v 15.81 c -16.28,0 -28.89,-7.8 -39.66,-21.09" /><path
             id="path234"
             style="fill:#000000;fill-opacity:1;fill-rule:nonzero;stroke:none"
             d="m 3187.11,4013.02 v -101.79 h 17.42 v 101.79 z m -1.61,54.09 v -20.41 h 20.41 v 20.41 h -20.41" /><path
             id="path236"
             style="fill:#000000;fill-opacity:1;fill-rule:nonzero;stroke:none"
             d="m 3241.8,3991.23 c 12.61,7.33 20.4,11.93 35.53,11.93 h 1.14 c 12.84,-1.61 17.66,-14.44 17.66,-26.83 v -8.02 c -23.85,0 -62.58,-5.5 -62.58,-30.95 0,-13.52 8.7,-28.66 24.98,-28.66 13.06,0 27.74,2.53 38.28,10.78 v -8.25 h 17.42 v 64.41 c 0,21.55 -12.82,41.27 -37.35,41.27 -11.24,0 -22.24,-2.3 -32.1,-7.57 -1.61,-0.68 -4.36,-1.61 -4.36,-4.12 0,-4.59 1.14,-9.41 1.38,-13.99 z m 54.33,-34.84 v -12.84 c 0,-15.36 -11.24,-20.63 -25.68,-20.63 -8.25,0 -21.09,3.89 -21.09,15.13 0,11.47 18.34,15.36 26.83,16.51 6.64,1.14 13.29,1.83 19.94,1.83" /><path
             id="path238"
             style="fill:#000000;fill-opacity:1;fill-rule:nonzero;stroke:none"
             d="m 3350.11,4078.58 v -167.35 h 18.11 v 10.08 c 9.17,-7.79 18.56,-12.61 31.17,-12.61 26.14,0 41.05,29.35 41.05,53.64 0,19.96 -9.41,53.19 -36.92,53.19 -12.6,0 -26.13,-4.58 -35.99,-13.06 v 76.11 z m 73.12,-120.13 c -1.37,-17.87 -12.82,-35.76 -33,-35.76 -8.95,0 -22.01,7.56 -22.01,16.73 v 47.92 c 0.45,2.97 3.89,5.72 5.97,7.33 5.03,4.36 11.45,6.66 17.87,6.66 21.55,0 31.41,-20.64 31.41,-37.83 0,-1.61 0,-3.44 -0.24,-5.05" /><path
             id="path240"
             style="fill:#000000;fill-opacity:1;fill-rule:nonzero;stroke:none"
             d="m 3467.11,4078.58 v -167.35 h 17.42 v 167.35 h -17.42" /><path
             id="path242"
             style="fill:#000000;fill-opacity:1;fill-rule:nonzero;stroke:none"
             d="m 3595.16,3935.98 c -10.32,-7.1 -20.64,-13.06 -33.93,-13.06 -13.29,0 -25.45,8.25 -30.95,21.55 -2.51,5.73 -3.22,11.69 -3.9,17.87 h 70.84 c 0,14.91 -2.3,31.19 -12.38,42.64 -7.11,8.04 -17.42,11.93 -27.96,11.93 -29.11,0 -45.63,-29.11 -45.63,-55.02 v -1.14 c 0.47,-26.14 20.17,-52.05 48.83,-52.05 11.69,0 23.61,3.68 33.01,9.63 1.83,1.39 3.44,1.84 3.44,4.14 0,4.34 -1.14,8.94 -1.37,13.51 z m -67.18,39.21 c 3.22,13.53 14.22,27.51 28.9,27.51 h 0.68 c 16.27,0 23.38,-13.98 27.05,-27.51 h -56.63" /><path
             id="path244"
             style="fill:#000000;fill-opacity:1;fill-rule:nonzero;stroke:none"
             d="m 3613.17,3935.06 c -0.45,-3.89 -1.15,-7.56 -1.84,-11.45 -0.22,-0.92 -0.69,-2.3 -0.69,-3.44 0,-5.73 23.84,-10.09 26.38,-10.54 3.89,-0.69 8.01,-0.93 12.14,-0.93 17.42,0 36.9,7.57 36.9,31.64 0,14.68 -11,26.36 -24.29,30.49 -11.46,3.67 -33.47,2.53 -33.47,18.34 0,8.94 7.79,13.99 17.65,13.99 7.57,0 15.6,-0.93 22.93,-3.91 3.67,-1.37 7.1,-3.66 10.78,-5.03 l 2.75,15.36 c -11.02,5.03 -21.57,7.33 -33.47,7.33 -17.66,0 -37.61,-7.8 -37.61,-29.8 0,-13.98 10.55,-24.08 22.94,-28.66 10.76,-3.67 35.29,-2.51 35.29,-19.72 0,-11.92 -11.68,-15.35 -22,-15.35 -13.53,0 -22.25,5.28 -34.39,11.68" /><path
             id="path246"
             style="fill:#000000;fill-opacity:1;fill-rule:nonzero;stroke:none"
             d="m 3770.2,4013.02 c 0.69,-3.22 1.85,-6.19 2.75,-9.18 9.18,-27.96 16.97,-56.39 25.91,-84.36 0.92,-3.21 0.92,-8.48 5.05,-8.48 0.92,0 1.82,0.23 2.51,0.23 h 13.3 c 6.89,25.22 15.83,50.21 21.33,76.11 1.14,4.58 2.06,9.16 2.06,13.75 h 0.23 c 0.69,-9.17 2.97,-18.11 5.27,-26.82 4.58,-18.33 10.09,-36.68 15.81,-54.79 1.16,-3.9 0.92,-8.25 5.05,-8.25 h 12.84 c 0.69,0 1.83,-0.23 2.75,-0.23 3.21,0 3.66,4.36 4.35,6.88 8.48,28.65 17.89,56.85 26.14,85.51 1.14,3.2 2.29,6.41 2.98,9.63 l -16.97,-0.47 -2.29,-6.19 -14.21,-47.45 -8.72,-35.75 c 0,7.32 -2.98,15.12 -4.57,22.45 -5.5,19.72 -11.69,39.67 -17.43,59.37 l -1.61,4.82 c -0.45,1.84 -0.68,3.22 -3.2,3.22 h -11.47 c -3.43,0 -3.2,-2.99 -4.12,-5.5 l -4.81,-15.83 c -6.43,-22 -15.82,-46.99 -17.19,-68.53 h -0.24 c 0,4.34 -0.92,8.93 -2.06,13.29 -5.28,26.13 -15.12,51.58 -21.55,76.57 h -17.89" /><path
             id="path248"
             style="fill:#000000;fill-opacity:1;fill-rule:nonzero;stroke:none"
             d="m 3943,3930.25 v -19.02 h 19.03 v 19.02 H 3943" /><path
             id="path250"
             style="fill:#000000;fill-opacity:1;fill-rule:nonzero;stroke:none"
             d="m 4019.39,3994.44 v 19.72 h -16.28 v -102.93 h 17.42 v 46.54 c 0,15.36 5.05,32.78 25.45,39.65 4.13,1.61 8.71,2.3 13.07,2.3 v 15.81 c -16.28,0 -28.89,-7.8 -39.66,-21.09" /><path
             id="path252"
             style="fill:#000000;fill-opacity:1;fill-rule:nonzero;stroke:none"
             d="m 4084,3930.25 v -19.02 h 19.03 v 19.02 H 4084" /><path
             id="path254"
             style="fill:#000000;fill-opacity:1;fill-rule:nonzero;stroke:none"
             d="m 4148.84,4042.13 v -29.11 h -19.71 v -13.77 h 19.03 v -61.89 c 0,-11.45 3.2,-28.66 18.56,-28.66 12.16,0 23.61,3.44 34.16,8.94 l -3.68,13.77 c -7.09,-4.6 -12.14,-7.8 -20.62,-7.8 -10.55,0 -11.47,12.37 -11.47,20.17 v 55.47 h 31.87 v 13.77 h -31.87 v 29.11 h -16.27" /><path
             id="path256"
             style="fill:#000000;fill-opacity:1;fill-rule:nonzero;stroke:none"
             d="m 4229,3930.25 v -19.02 h 19.03 v 19.02 H 4229" /><path
             id="path258"
             style="fill:#000000;fill-opacity:1;fill-rule:nonzero;stroke:none"
             d="m 4453.38,4078.58 v -75.19 c -8.94,7.78 -21.32,12.38 -33.24,12.38 -24.98,0 -39.66,-29.11 -39.66,-52.27 v -1.16 c 0,-22.92 11.24,-53.64 40.11,-53.64 11.93,0 23.61,5.97 32.1,13.99 v -11.46 h 18.11 v 167.35 z m -55.93,-120.13 c 0,1.38 -0.23,2.75 -0.23,4.13 0,18.34 11.23,38.75 33.47,38.75 7.33,0 20.4,-4.83 22,-13.08 0.23,-1.37 0.23,-2.75 0.23,-4.12 0,-2.75 -0.23,-5.5 -0.23,-8.25 v -34.85 c 0,-10.09 -14.89,-18.11 -24.06,-18.11 -19.96,0 -29.58,18.11 -31.18,35.53" /><path
             id="path260"
             style="fill:#000000;fill-opacity:1;fill-rule:nonzero;stroke:none"
             d="m 4506.66,4013.02 v -74.74 c 0,-7.56 0.22,-15.36 5.03,-22.01 4.59,-6.19 11.92,-7.57 19.26,-7.57 13.99,0 29.8,4.36 39.89,13.77 v -11.24 h 17.43 v 101.79 h -18.11 v -63.5 c 0,-18.8 -11.24,-27.74 -29.35,-27.74 -8.72,0 -16.04,2.75 -16.04,15.13 v 76.11 h -18.11" /><path
             id="path262"
             style="fill:#000000;fill-opacity:1;fill-rule:nonzero;stroke:none"
             d="m 4623.8,3991.23 c 12.61,7.33 20.4,11.93 35.53,11.93 h 1.14 c 12.84,-1.61 17.66,-14.44 17.66,-26.83 v -8.02 c -23.85,0 -62.58,-5.5 -62.58,-30.95 0,-13.52 8.7,-28.66 24.98,-28.66 13.06,0 27.74,2.53 38.28,10.78 v -8.25 h 17.42 v 64.41 c 0,21.55 -12.82,41.27 -37.35,41.27 -11.24,0 -22.24,-2.3 -32.1,-7.57 -1.61,-0.68 -4.36,-1.61 -4.36,-4.12 0,-4.59 1.14,-9.41 1.38,-13.99 z m 54.33,-34.84 v -12.84 c 0,-15.36 -11.24,-20.63 -25.68,-20.63 -8.25,0 -21.09,3.89 -21.09,15.13 0,11.47 18.34,15.36 26.83,16.51 6.64,1.14 13.29,1.83 19.94,1.83" /><path
             id="path264"
             style="fill:#000000;fill-opacity:1;fill-rule:nonzero;stroke:none"
             d="m 4732.11,4078.58 v -167.35 h 17.42 v 167.35 h -17.42" /><path
             id="path266"
             style="fill:#000000;fill-opacity:1;fill-rule:nonzero;stroke:none"
             d="m 4897.64,4016.91 c -28.19,-2.99 -46.31,-28.43 -46.31,-54.78 0,-20.86 11.23,-43.11 35.31,-51.13 4.58,-1.61 9.39,-2.3 14.44,-2.3 27.05,0 49.28,24.08 49.28,53.19 0,25.67 -17.64,55.02 -49.97,55.02 z m -29.34,-56.39 c -0.24,1.37 -0.24,2.75 -0.24,4.12 0,19.03 12.16,38.06 32.78,38.06 20.64,0 32.57,-18.57 32.57,-38.75 0,-17.65 -9.18,-40.34 -32.33,-40.34 -19.03,0 -30.72,15.81 -32.78,36.91" /><path
             id="path268"
             style="fill:#000000;fill-opacity:1;fill-rule:nonzero;stroke:none"
             d="m 4992.61,3998.8 v 15.36 h -16.95 v -102.93 h 18.11 v 52.49 c 0,14.45 2.51,37.61 22.68,37.61 6.43,0 13.53,-1.39 18.11,-6.42 4.13,-4.82 4.82,-11.02 4.82,-17.21 0,-2.97 -0.22,-5.72 -0.22,-8.47 v -58 h 18.11 v 54.79 c 0,3.9 0.21,8.03 0.21,12.15 0,16.74 -3.89,37.36 -31.17,37.36 -13.98,0 -24.75,-6.42 -33.7,-16.73" /><path
             id="path270"
             style="fill:#000000;fill-opacity:1;fill-rule:nonzero;stroke:none"
             d="m 5166.16,3935.98 c -10.32,-7.1 -20.64,-13.06 -33.93,-13.06 -13.29,0 -25.45,8.25 -30.95,21.55 -2.51,5.73 -3.22,11.69 -3.9,17.87 h 70.84 c 0,14.91 -2.3,31.19 -12.38,42.64 -7.11,8.04 -17.42,11.93 -27.96,11.93 -29.11,0 -45.63,-29.11 -45.63,-55.02 v -1.14 c 0.47,-26.14 20.17,-52.05 48.83,-52.05 11.69,0 23.61,3.68 33.01,9.63 1.83,1.39 3.44,1.84 3.44,4.14 0,4.34 -1.14,8.94 -1.37,13.51 z m -67.18,39.21 c 3.22,13.53 14.22,27.51 28.9,27.51 h 0.68 c 16.27,0 23.38,-13.98 27.05,-27.51 h -56.63" /><path
             id="path272"
             style="fill:#000000;fill-opacity:1;fill-rule:nonzero;stroke:none"
             d="m 5185.17,3935.06 c -0.45,-3.89 -1.15,-7.56 -1.84,-11.45 -0.22,-0.92 -0.69,-2.3 -0.69,-3.44 0,-5.73 23.84,-10.09 26.38,-10.54 3.89,-0.69 8.01,-0.93 12.14,-0.93 17.42,0 36.9,7.57 36.9,31.64 0,14.68 -11,26.36 -24.29,30.49 -11.46,3.67 -33.47,2.53 -33.47,18.34 0,8.94 7.79,13.99 17.65,13.99 7.57,0 15.6,-0.93 22.93,-3.91 3.67,-1.37 7.1,-3.66 10.78,-5.03 l 2.75,15.36 c -11.02,5.03 -21.57,7.33 -33.47,7.33 -17.66,0 -37.61,-7.8 -37.61,-29.8 0,-13.98 10.55,-24.08 22.94,-28.66 10.76,-3.67 35.29,-2.51 35.29,-19.72 0,-11.92 -11.68,-15.35 -22,-15.35 -13.53,0 -22.25,5.28 -34.39,11.68" /><path
             id="path274"
             style="fill:#000000;fill-opacity:1;fill-rule:nonzero;stroke:none"
             d="m 5285,4013.02 v -19.04 h 19.03 v 19.04 z m 0,-82.77 v -19.02 h 19.03 v 19.02 H 5285" /><path
             id="path276"
             style="fill:#005282;fill-opacity:1;fill-rule:nonzero;stroke:none"
             d="m 1355.5,3516.45 v -111.64 h -22.02 c -6.18,0 -9.39,-2.97 -9.39,-7.79 0,-4.58 3.44,-7.79 8.94,-7.79 h 69.92 c 5.5,0 8.71,3.44 8.71,7.79 0,4.82 -3.44,7.79 -8.94,7.79 h -20.17 v 129.3 c 0,6.64 -3.44,9.62 -8.72,9.62 -5.27,0 -6.88,-2.75 -9.85,-5.04 -8.03,-7.1 -20.64,-10.08 -30.5,-10.08 h -3.89 c -4.12,-0.47 -7.11,-3.44 -7.11,-7.8 0,-4.36 3.44,-7.79 7.8,-7.79 8.7,0 16.74,2.06 25.22,3.43" /><path
             id="path278"
             style="fill:#005282;fill-opacity:1;fill-rule:nonzero;stroke:none"
             d="m 1452.61,3415.14 c -1.38,-0.47 -1.61,-2.08 -1.61,-3.67 v -18.11 c 0,-2.98 0.69,-4.13 3.91,-4.13 h 14.89 c 1.15,0 2.29,-0.23 3.45,-0.23 2.97,0 3.89,1.38 3.89,4.13 v 18.34 c 0,2.98 -0.92,3.89 -4.12,3.89 h -14.68 c -1.14,0 -2.29,0.23 -3.43,0.23 -0.93,0 -1.61,-0.23 -2.3,-0.45" /><path
             id="path280"
             style="fill:#000000;fill-opacity:1;fill-rule:nonzero;stroke:none"
             d="m 1681.38,3556.58 v -75.19 c -8.94,7.78 -21.32,12.38 -33.24,12.38 -24.98,0 -39.66,-29.11 -39.66,-52.27 v -1.16 c 0,-22.92 11.24,-53.64 40.11,-53.64 11.93,0 23.61,5.97 32.1,13.99 v -11.46 h 18.11 v 167.35 z m -55.93,-120.13 c 0,1.38 -0.23,2.75 -0.23,4.13 0,18.34 11.23,38.75 33.47,38.75 7.33,0 20.4,-4.83 22,-13.08 0.23,-1.37 0.23,-2.75 0.23,-4.12 0,-2.75 -0.23,-5.5 -0.23,-8.25 v -34.85 c 0,-10.09 -14.89,-18.11 -24.06,-18.11 -19.96,0 -29.58,18.11 -31.18,35.53" /><path
             id="path282"
             style="fill:#000000;fill-opacity:1;fill-rule:nonzero;stroke:none"
             d="m 1809.16,3413.98 c -10.32,-7.1 -20.64,-13.06 -33.93,-13.06 -13.29,0 -25.45,8.25 -30.95,21.55 -2.51,5.73 -3.22,11.69 -3.9,17.87 h 70.84 c 0,14.91 -2.3,31.19 -12.38,42.64 -7.11,8.04 -17.42,11.93 -27.96,11.93 -29.11,0 -45.63,-29.11 -45.63,-55.02 v -1.14 c 0.47,-26.14 20.17,-52.05 48.83,-52.05 11.69,0 23.61,3.68 33.01,9.63 1.83,1.39 3.44,1.84 3.44,4.14 0,4.34 -1.14,8.94 -1.37,13.51 z m -67.18,39.21 c 3.22,13.53 14.22,27.51 28.9,27.51 h 0.68 c 16.27,0 23.38,-13.98 27.05,-27.51 h -56.63" /><path
             id="path284"
             style="fill:#000000;fill-opacity:1;fill-rule:nonzero;stroke:none"
             d="m 1852.39,3472.44 v 19.72 h -16.28 v -102.93 h 17.42 v 46.54 c 0,15.36 5.05,32.78 25.45,39.65 4.13,1.61 8.71,2.3 13.07,2.3 v 15.81 c -16.28,0 -28.89,-7.8 -39.66,-21.09" /><path
             id="path286"
             style="fill:#000000;fill-opacity:1;fill-rule:nonzero;stroke:none"
             d="m 1914.11,3491.02 v -101.79 h 17.42 v 101.79 z m -1.61,54.09 v -20.41 h 20.41 v 20.41 h -20.41" /><path
             id="path288"
             style="fill:#000000;fill-opacity:1;fill-rule:nonzero;stroke:none"
             d="m 1952.2,3491.02 38.3,-101.79 h 21.08 l 38.28,101.79 h -17.42 l -24.75,-67.18 -4.36,-13.75 -2.06,-8.93 -2.75,11.68 -5.5,16.96 -22.47,61.22 h -18.35" /><path
             id="path290"
             style="fill:#000000;fill-opacity:1;fill-rule:nonzero;stroke:none"
             d="m 2072.8,3469.23 c 12.61,7.33 20.4,11.93 35.53,11.93 h 1.14 c 12.84,-1.61 17.66,-14.44 17.66,-26.83 v -8.02 c -23.85,0 -62.58,-5.5 -62.58,-30.95 0,-13.52 8.7,-28.66 24.98,-28.66 13.06,0 27.74,2.53 38.28,10.78 v -8.25 h 17.42 v 64.41 c 0,21.55 -12.82,41.27 -37.35,41.27 -11.24,0 -22.24,-2.3 -32.1,-7.57 -1.61,-0.68 -4.36,-1.61 -4.36,-4.12 0,-4.59 1.14,-9.41 1.38,-13.99 z m 54.33,-34.84 v -12.84 c 0,-15.36 -11.24,-20.63 -25.68,-20.63 -8.25,0 -21.09,3.89 -21.09,15.13 0,11.47 18.34,15.36 26.83,16.51 6.64,1.14 13.29,1.83 19.94,1.83" /><path
             id="path292"
             style="fill:#000000;fill-opacity:1;fill-rule:nonzero;stroke:none"
             d="m 2186.84,3520.13 v -29.11 h -19.71 v -13.77 h 19.03 v -61.89 c 0,-11.45 3.2,-28.66 18.56,-28.66 12.16,0 23.61,3.44 34.16,8.94 l -3.68,13.77 c -7.09,-4.6 -12.14,-7.8 -20.62,-7.8 -10.55,0 -11.47,12.37 -11.47,20.17 v 55.47 h 31.87 v 13.77 h -31.87 v 29.11 h -16.27" /><path
             id="path294"
             style="fill:#000000;fill-opacity:1;fill-rule:nonzero;stroke:none"
             d="m 2263.11,3491.02 v -101.79 h 17.42 v 101.79 z m -1.61,54.09 v -20.41 h 20.41 v 20.41 h -20.41" /><path
             id="path296"
             style="fill:#000000;fill-opacity:1;fill-rule:nonzero;stroke:none"
             d="m 2301.2,3491.02 38.3,-101.79 h 21.08 l 38.28,101.79 h -17.42 l -24.75,-67.18 -4.36,-13.75 -2.06,-8.93 -2.75,11.68 -5.5,16.96 -22.47,61.22 h -18.35" /><path
             id="path298"
             style="fill:#000000;fill-opacity:1;fill-rule:nonzero;stroke:none"
             d="m 2495.16,3413.98 c -10.32,-7.1 -20.64,-13.06 -33.93,-13.06 -13.29,0 -25.45,8.25 -30.95,21.55 -2.51,5.73 -3.22,11.69 -3.9,17.87 h 70.84 c 0,14.91 -2.3,31.19 -12.38,42.64 -7.11,8.04 -17.42,11.93 -27.96,11.93 -29.11,0 -45.63,-29.11 -45.63,-55.02 v -1.14 c 0.47,-26.14 20.17,-52.05 48.83,-52.05 11.69,0 23.61,3.68 33.01,9.63 1.83,1.39 3.44,1.84 3.44,4.14 0,4.34 -1.14,8.94 -1.37,13.51 z m -67.18,39.21 c 3.22,13.53 14.22,27.51 28.9,27.51 h 0.68 c 16.27,0 23.38,-13.98 27.05,-27.51 h -56.63" /><path
             id="path300"
             style="fill:#000000;fill-opacity:1;fill-rule:nonzero;stroke:none"
             d="m 2633.64,3494.91 c -28.19,-2.99 -46.31,-28.43 -46.31,-54.78 0,-20.86 11.23,-43.11 35.31,-51.13 4.58,-1.61 9.39,-2.3 14.44,-2.3 27.05,0 49.28,24.08 49.28,53.19 0,25.67 -17.64,55.02 -49.97,55.02 z m -29.34,-56.39 c -0.24,1.37 -0.24,2.75 -0.24,4.12 0,19.03 12.16,38.06 32.78,38.06 20.64,0 32.57,-18.57 32.57,-38.75 0,-17.65 -9.18,-40.34 -32.33,-40.34 -19.03,0 -30.72,15.81 -32.78,36.91" /><path
             id="path302"
             style="fill:#000000;fill-opacity:1;fill-rule:nonzero;stroke:none"
             d="m 2715.92,3491.02 h -16.73 v -13.77 h 16.73 v -88.02 h 17.42 v 88.02 h 24.99 v 13.77 h -25.67 v 25.67 c 0,2.29 -0.24,4.58 -0.24,7.11 0,12.14 8.72,21.09 20.64,21.09 7.33,0 12.61,-2.08 18.8,-4.14 v 13.53 c 0,4.81 -14.91,4.81 -18.11,4.81 -24.08,0 -37.83,-21.78 -37.83,-44.23 v -23.84" /><path
             id="path304"
             style="fill:#000000;fill-opacity:1;fill-rule:nonzero;stroke:none"
             d="m 2879.27,3410.31 c 12.37,19.27 16.28,33.94 19.25,46.08 8.03,31.64 16.73,59.16 30.95,74.97 2.75,2.98 4.58,5.05 11.92,5.05 15.81,0 16.27,-15.83 16.27,-19.03 0,-4.13 -1.14,-7.35 -1.14,-8.49 0,-1.61 1.37,-1.61 1.61,-1.61 3.67,0 9.85,2.53 15.57,6.66 4.14,3.2 6.21,5.5 6.21,14.9 0,12.38 -6.43,21.77 -19.27,21.77 -7.33,0 -27.5,-1.83 -49.97,-24.53 -18.34,-18.8 -29.11,-60.05 -33.47,-77.25 -4.12,-15.81 -5.97,-22.92 -12.84,-36.67 -1.59,-2.75 -7.56,-12.85 -10.77,-15.83 -6.18,-5.72 -8.48,-9.85 -8.48,-11 0,-0.45 0.45,-1.38 2.06,-1.38 0.92,0 5.74,0.93 11.69,4.82 3.91,2.29 4.36,2.75 9.62,8.25 11.47,-0.22 19.49,-2.29 33.94,-6.41 11.69,-3.22 23.38,-6.66 35.06,-6.66 18.58,0 37.38,13.99 44.71,24.08 4.59,6.19 5.97,11.92 5.97,12.61 0,1.59 -1.38,1.59 -1.61,1.59 -3.67,0 -9.17,-2.51 -13.07,-5.26 -6.18,-3.91 -6.65,-5.28 -8.03,-9.17 -1.14,-3.67 -2.51,-5.5 -3.43,-6.88 -1.83,-2.75 -2.07,-2.75 -5.5,-2.75 -11,0 -22.47,3.44 -37.6,7.56 -6.42,1.83 -19.03,5.5 -30.48,5.5 -2.99,0 -6.19,-0.23 -9.17,-0.92" /><path
             id="path306"
             style="fill:#000000;fill-opacity:1;fill-rule:nonzero;stroke:none"
             d="m 3075.2,3491.02 c 0.69,-3.22 1.85,-6.19 2.75,-9.18 9.18,-27.96 16.97,-56.39 25.91,-84.36 0.92,-3.21 0.92,-8.48 5.05,-8.48 0.92,0 1.82,0.23 2.51,0.23 h 13.3 c 6.89,25.22 15.83,50.21 21.33,76.11 1.14,4.58 2.06,9.16 2.06,13.75 h 0.23 c 0.69,-9.17 2.97,-18.11 5.27,-26.82 4.58,-18.33 10.09,-36.68 15.81,-54.79 1.16,-3.9 0.92,-8.25 5.05,-8.25 h 12.84 c 0.69,0 1.83,-0.23 2.75,-0.23 3.21,0 3.66,4.36 4.35,6.88 8.48,28.65 17.89,56.85 26.14,85.51 1.14,3.2 2.29,6.41 2.98,9.63 l -16.97,-0.47 -2.29,-6.19 -14.21,-47.45 -8.72,-35.75 c 0,7.32 -2.98,15.12 -4.57,22.45 -5.5,19.72 -11.69,39.67 -17.43,59.37 l -1.61,4.82 c -0.45,1.84 -0.68,3.22 -3.2,3.22 h -11.47 c -3.43,0 -3.2,-2.99 -4.12,-5.5 l -4.81,-15.83 c -6.43,-22 -15.82,-46.99 -17.19,-68.53 h -0.24 c 0,4.34 -0.92,8.93 -2.06,13.29 -5.28,26.13 -15.12,51.58 -21.55,76.57 h -17.89" /><path
             id="path308"
             style="fill:#000000;fill-opacity:1;fill-rule:nonzero;stroke:none"
             d="m 3249,3408.25 v -19.02 h 19.03 v 19.02 H 3249" /><path
             id="path310"
             style="fill:#000000;fill-opacity:1;fill-rule:nonzero;stroke:none"
             d="m 3324.39,3472.44 v 19.72 h -16.28 v -102.93 h 17.42 v 46.54 c 0,15.36 5.05,32.78 25.45,39.65 4.13,1.61 8.71,2.3 13.07,2.3 v 15.81 c -16.28,0 -28.89,-7.8 -39.66,-21.09" /><path
             id="path312"
             style="fill:#000000;fill-opacity:1;fill-rule:nonzero;stroke:none"
             d="m 3389,3408.25 v -19.02 h 19.03 v 19.02 H 3389" /><path
             id="path314"
             style="fill:#000000;fill-opacity:1;fill-rule:nonzero;stroke:none"
             d="m 3454.84,3520.13 v -29.11 h -19.71 v -13.77 h 19.03 v -61.89 c 0,-11.45 3.2,-28.66 18.56,-28.66 12.16,0 23.61,3.44 34.16,8.94 l -3.68,13.77 c -7.09,-4.6 -12.14,-7.8 -20.62,-7.8 -10.55,0 -11.47,12.37 -11.47,20.17 v 55.47 h 31.87 v 13.77 h -31.87 v 29.11 h -16.27" /><path
             id="path316"
             style="fill:#000000;fill-opacity:1;fill-rule:nonzero;stroke:none"
             d="m 3535,3408.25 v -19.02 h 19.03 v 19.02 H 3535" /><path
             id="path318"
             style="fill:#000000;fill-opacity:1;fill-rule:nonzero;stroke:none"
             d="m 3712.53,3480.23 v 10.79 h -17.42 v -146.27 h 18.11 v 54.56 c 8.72,-7.79 19.03,-12.61 30.95,-12.61 26.6,0 41.27,29.13 41.27,53.88 0,19.25 -8.72,53.19 -36.24,53.19 -12.37,0 -27.04,-4.82 -36.67,-13.54 z m 55.7,-43.32 c -1.6,-17.64 -13.75,-35.99 -33.46,-35.99 -8.49,0 -21.55,7.33 -21.55,16.28 v 47.68 c 1.14,6.87 14.44,13.75 23.61,13.75 19.72,0 31.64,-20.18 31.64,-37.82 0,-1.37 0,-2.53 -0.24,-3.9" /><path
             id="path320"
             style="fill:#000000;fill-opacity:1;fill-rule:nonzero;stroke:none"
             d="m 3822.39,3472.44 v 19.72 h -16.28 v -102.93 h 17.42 v 46.54 c 0,15.36 5.05,32.78 25.45,39.65 4.13,1.61 8.71,2.3 13.07,2.3 v 15.81 c -16.28,0 -28.89,-7.8 -39.66,-21.09" /><path
             id="path322"
             style="fill:#000000;fill-opacity:1;fill-rule:nonzero;stroke:none"
             d="m 3883.11,3491.02 v -101.79 h 17.42 v 101.79 z m -1.61,54.09 v -20.41 h 20.41 v 20.41 h -20.41" /><path
             id="path324"
             style="fill:#000000;fill-opacity:1;fill-rule:nonzero;stroke:none"
             d="m 3953.61,3476.8 v 15.36 h -16.95 v -102.93 h 18.11 v 52.49 c 0,14.45 2.51,37.61 22.68,37.61 6.43,0 13.53,-1.39 18.11,-6.42 4.13,-4.82 4.82,-11.02 4.82,-17.21 0,-2.97 -0.22,-5.72 -0.22,-8.47 v -58 h 18.11 v 52.49 c 0,14.45 2.51,37.61 22.68,37.61 6.43,0 13.53,-1.39 18.11,-6.42 4.13,-4.82 4.82,-11.02 4.82,-17.21 0,-2.97 -0.22,-5.72 -0.22,-8.47 v -58 h 18.11 v 67.4 c 0,16.96 -4.36,36.9 -30.96,36.9 -13.29,0 -27.97,-6.42 -34.61,-18.34 -2.98,5.28 -4.36,8.95 -8.48,12.39 -5.97,4.58 -13.53,5.95 -20.86,5.95 -13.77,0 -24.53,-6.64 -33.25,-16.73" /><path
             id="path326"
             style="fill:#000000;fill-opacity:1;fill-rule:nonzero;stroke:none"
             d="m 4117.8,3469.23 c 12.61,7.33 20.4,11.93 35.53,11.93 h 1.14 c 12.84,-1.61 17.66,-14.44 17.66,-26.83 v -8.02 c -23.85,0 -62.58,-5.5 -62.58,-30.95 0,-13.52 8.7,-28.66 24.98,-28.66 13.06,0 27.74,2.53 38.28,10.78 v -8.25 h 17.42 v 64.41 c 0,21.55 -12.82,41.27 -37.35,41.27 -11.24,0 -22.24,-2.3 -32.1,-7.57 -1.61,-0.68 -4.36,-1.61 -4.36,-4.12 0,-4.59 1.14,-9.41 1.38,-13.99 z m 54.33,-34.84 v -12.84 c 0,-15.36 -11.24,-20.63 -25.68,-20.63 -8.25,0 -21.09,3.89 -21.09,15.13 0,11.47 18.34,15.36 26.83,16.51 6.64,1.14 13.29,1.83 19.94,1.83" /><path
             id="path328"
             style="fill:#000000;fill-opacity:1;fill-rule:nonzero;stroke:none"
             d="m 4226.11,3556.58 v -167.35 h 17.42 v 167.35 h -17.42" /><path
             id="path330"
             style="fill:#000000;fill-opacity:1;fill-rule:nonzero;stroke:none"
             d="m 4340.2,3491.02 38.3,-101.79 h 21.08 l 38.28,101.79 h -17.42 l -24.75,-67.18 -4.36,-13.75 -2.06,-8.93 -2.75,11.68 -5.5,16.96 -22.47,61.22 h -18.35" /><path
             id="path332"
             style="fill:#000000;fill-opacity:1;fill-rule:nonzero;stroke:none"
             d="m 4459.8,3469.23 c 12.61,7.33 20.4,11.93 35.53,11.93 h 1.14 c 12.84,-1.61 17.66,-14.44 17.66,-26.83 v -8.02 c -23.85,0 -62.58,-5.5 -62.58,-30.95 0,-13.52 8.7,-28.66 24.98,-28.66 13.06,0 27.74,2.53 38.28,10.78 v -8.25 h 17.42 v 64.41 c 0,21.55 -12.82,41.27 -37.35,41.27 -11.24,0 -22.24,-2.3 -32.1,-7.57 -1.61,-0.68 -4.36,-1.61 -4.36,-4.12 0,-4.59 1.14,-9.41 1.38,-13.99 z m 54.33,-34.84 v -12.84 c 0,-15.36 -11.24,-20.63 -25.68,-20.63 -8.25,0 -21.09,3.89 -21.09,15.13 0,11.47 18.34,15.36 26.83,16.51 6.64,1.14 13.29,1.83 19.94,1.83" /><path
             id="path334"
             style="fill:#000000;fill-opacity:1;fill-rule:nonzero;stroke:none"
             d="m 4578.39,3472.44 v 19.72 h -16.28 v -102.93 h 17.42 v 46.54 c 0,15.36 5.05,32.78 25.45,39.65 4.13,1.61 8.71,2.3 13.07,2.3 v 15.81 c -16.28,0 -28.89,-7.8 -39.66,-21.09" /><path
             id="path336"
             style="fill:#000000;fill-opacity:1;fill-rule:nonzero;stroke:none"
             d="m 4640.11,3491.02 v -101.79 h 17.42 v 101.79 z m -1.61,54.09 v -20.41 h 20.41 v 20.41 h -20.41" /><path
             id="path338"
             style="fill:#000000;fill-opacity:1;fill-rule:nonzero;stroke:none"
             d="m 4693.8,3469.23 c 12.61,7.33 20.4,11.93 35.53,11.93 h 1.14 c 12.84,-1.61 17.66,-14.44 17.66,-26.83 v -8.02 c -23.85,0 -62.58,-5.5 -62.58,-30.95 0,-13.52 8.7,-28.66 24.98,-28.66 13.06,0 27.74,2.53 38.28,10.78 v -8.25 h 17.42 v 64.41 c 0,21.55 -12.82,41.27 -37.35,41.27 -11.24,0 -22.24,-2.3 -32.1,-7.57 -1.61,-0.68 -4.36,-1.61 -4.36,-4.12 0,-4.59 1.14,-9.41 1.38,-13.99 z m 54.33,-34.84 v -12.84 c 0,-15.36 -11.24,-20.63 -25.68,-20.63 -8.25,0 -21.09,3.89 -21.09,15.13 0,11.47 18.34,15.36 26.83,16.51 6.64,1.14 13.29,1.83 19.94,1.83" /><path
             id="path340"
             style="fill:#000000;fill-opacity:1;fill-rule:nonzero;stroke:none"
             d="m 4802.11,3556.58 v -167.35 h 18.11 v 10.08 c 9.17,-7.79 18.56,-12.61 31.17,-12.61 26.14,0 41.05,29.35 41.05,53.64 0,19.96 -9.41,53.19 -36.92,53.19 -12.6,0 -26.13,-4.58 -35.99,-13.06 v 76.11 z m 73.12,-120.13 c -1.37,-17.87 -12.82,-35.76 -33,-35.76 -8.95,0 -22.01,7.56 -22.01,16.73 v 47.92 c 0.45,2.97 3.89,5.72 5.97,7.33 5.03,4.36 11.45,6.66 17.87,6.66 21.55,0 31.41,-20.64 31.41,-37.83 0,-1.61 0,-3.44 -0.24,-5.05" /><path
             id="path342"
             style="fill:#000000;fill-opacity:1;fill-rule:nonzero;stroke:none"
             d="m 4919.11,3556.58 v -167.35 h 17.42 v 167.35 h -17.42" /><path
             id="path344"
             style="fill:#000000;fill-opacity:1;fill-rule:nonzero;stroke:none"
             d="m 5047.16,3413.98 c -10.32,-7.1 -20.64,-13.06 -33.93,-13.06 -13.29,0 -25.45,8.25 -30.95,21.55 -2.51,5.73 -3.22,11.69 -3.9,17.87 h 70.84 c 0,14.91 -2.3,31.19 -12.38,42.64 -7.11,8.04 -17.42,11.93 -27.96,11.93 -29.11,0 -45.63,-29.11 -45.63,-55.02 v -1.14 c 0.47,-26.14 20.17,-52.05 48.83,-52.05 11.69,0 23.61,3.68 33.01,9.63 1.83,1.39 3.44,1.84 3.44,4.14 0,4.34 -1.14,8.94 -1.37,13.51 z m -67.18,39.21 c 3.22,13.53 14.22,27.51 28.9,27.51 h 0.68 c 16.27,0 23.38,-13.98 27.05,-27.51 h -56.63" /><path
             id="path346"
             style="fill:#000000;fill-opacity:1;fill-rule:nonzero;stroke:none"
             d="m 5065.17,3413.06 c -0.45,-3.89 -1.15,-7.56 -1.84,-11.45 -0.22,-0.92 -0.69,-2.3 -0.69,-3.44 0,-5.73 23.84,-10.09 26.38,-10.54 3.89,-0.69 8.01,-0.93 12.14,-0.93 17.42,0 36.9,7.57 36.9,31.64 0,14.68 -11,26.36 -24.29,30.49 -11.46,3.67 -33.47,2.53 -33.47,18.34 0,8.94 7.79,13.99 17.65,13.99 7.57,0 15.6,-0.93 22.93,-3.91 3.67,-1.37 7.1,-3.66 10.78,-5.03 l 2.75,15.36 c -11.02,5.03 -21.57,7.33 -33.47,7.33 -17.66,0 -37.61,-7.8 -37.61,-29.8 0,-13.98 10.55,-24.08 22.94,-28.66 10.76,-3.67 35.29,-2.51 35.29,-19.72 0,-11.92 -11.68,-15.35 -22,-15.35 -13.53,0 -22.25,5.28 -34.39,11.68" /><path
             id="path348"
             style="fill:#005282;fill-opacity:1;fill-rule:nonzero;stroke:none"
             d="m 1342.89,3126.69 c 14.44,13.29 30.25,25.69 45.61,38.06 13.3,10.55 27.06,23.84 27.97,41.72 v 2.51 c 0,12.85 -4.81,25.46 -13.99,34.63 -10.76,10.31 -25.67,14.89 -40.34,14.89 -22.23,0 -38.28,-11 -47.22,-29.11 -0.45,-0.91 -1.14,-2.28 -1.14,-3.67 v -0.45 c 0.69,-4.13 12.6,-16.5 14.44,-16.5 2.75,0 2.98,4.36 3.67,6.42 4.13,11.22 12.14,22.23 27.27,22.23 16.04,0 29.57,-11.92 29.57,-28.89 -0.23,-24.3 -27.04,-44.23 -39.2,-55.94 l -14.44,-13.75 c -4.57,-4.57 -9.4,-9.17 -14.21,-13.53 -1.83,-1.59 -5.04,-3.65 -5.27,-6.4 v -4.13 c 0,-5.28 0.69,-10.55 9.39,-10.55 h 82.77 c 8.25,0 8.7,5.72 8.7,10.55 v 2.06 c 0,4.58 -0.45,10.32 -8.7,10.32 h -12.61 c -6.88,0 -13.75,-0.24 -20.64,-0.24 h -25.68 c -2.06,0 -3.89,0 -5.95,-0.23" /><path
             id="path350"
             style="fill:#005282;fill-opacity:1;fill-rule:nonzero;stroke:none"
             d="m 1452.61,3130.14 c -1.38,-0.47 -1.61,-2.08 -1.61,-3.67 v -18.11 c 0,-2.98 0.69,-4.13 3.91,-4.13 h 14.89 c 1.15,0 2.29,-0.23 3.45,-0.23 2.97,0 3.89,1.38 3.89,4.13 v 18.34 c 0,2.98 -0.92,3.89 -4.12,3.89 h -14.68 c -1.14,0 -2.29,0.23 -3.43,0.23 -0.93,0 -1.61,-0.23 -2.3,-0.45" /><path
             id="path352"
             style="fill:#000000;fill-opacity:1;fill-rule:nonzero;stroke:none"
             d="m 1609.17,3128.06 c -0.45,-3.89 -1.15,-7.56 -1.84,-11.45 -0.22,-0.92 -0.69,-2.3 -0.69,-3.44 0,-5.73 23.84,-10.09 26.38,-10.54 3.89,-0.69 8.01,-0.93 12.14,-0.93 17.42,0 36.9,7.57 36.9,31.64 0,14.68 -11,26.36 -24.29,30.49 -11.46,3.67 -33.47,2.53 -33.47,18.34 0,8.94 7.79,13.99 17.65,13.99 7.57,0 15.6,-0.93 22.93,-3.91 3.67,-1.37 7.1,-3.66 10.78,-5.03 l 2.75,15.36 c -11.02,5.03 -21.57,7.33 -33.47,7.33 -17.66,0 -37.61,-7.8 -37.61,-29.8 0,-13.98 10.55,-24.08 22.94,-28.66 10.76,-3.67 35.29,-2.51 35.29,-19.72 0,-11.92 -11.68,-15.35 -22,-15.35 -13.53,0 -22.25,5.28 -34.39,11.68" /><path
             id="path354"
             style="fill:#000000;fill-opacity:1;fill-rule:nonzero;stroke:none"
             d="m 1779.16,3128.98 c -10.32,-7.1 -20.64,-13.06 -33.93,-13.06 -13.29,0 -25.45,8.25 -30.95,21.55 -2.51,5.73 -3.22,11.69 -3.9,17.87 h 70.84 c 0,14.91 -2.3,31.19 -12.38,42.64 -7.11,8.04 -17.42,11.93 -27.96,11.93 -29.11,0 -45.63,-29.11 -45.63,-55.02 v -1.14 c 0.47,-26.14 20.17,-52.05 48.83,-52.05 11.69,0 23.61,3.68 33.01,9.63 1.83,1.39 3.44,1.84 3.44,4.14 0,4.34 -1.14,8.94 -1.37,13.51 z m -67.18,39.21 c 3.22,13.53 14.22,27.51 28.9,27.51 h 0.68 c 16.27,0 23.38,-13.98 27.05,-27.51 h -56.63" /><path
             id="path356"
             style="fill:#000000;fill-opacity:1;fill-rule:nonzero;stroke:none"
             d="m 1811.84,3235.13 v -29.11 h -19.71 v -13.77 h 19.03 v -61.89 c 0,-11.45 3.2,-28.66 18.56,-28.66 12.16,0 23.61,3.44 34.16,8.94 l -3.68,13.77 c -7.09,-4.6 -12.14,-7.8 -20.62,-7.8 -10.55,0 -11.47,12.37 -11.47,20.17 v 55.47 h 31.87 v 13.77 h -31.87 v 29.11 h -16.27" /><path
             id="path358"
             style="fill:#000000;fill-opacity:1;fill-rule:nonzero;stroke:none"
             d="m 2027.38,3271.58 v -75.19 c -8.94,7.78 -21.32,12.38 -33.24,12.38 -24.98,0 -39.66,-29.11 -39.66,-52.27 v -1.16 c 0,-22.92 11.24,-53.64 40.11,-53.64 11.93,0 23.61,5.97 32.1,13.99 v -11.46 h 18.11 v 167.35 z m -55.93,-120.13 c 0,1.38 -0.23,2.75 -0.23,4.13 0,18.34 11.23,38.75 33.47,38.75 7.33,0 20.4,-4.83 22,-13.08 0.23,-1.37 0.23,-2.75 0.23,-4.12 0,-2.75 -0.23,-5.5 -0.23,-8.25 v -34.85 c 0,-10.09 -14.89,-18.11 -24.06,-18.11 -19.96,0 -29.58,18.11 -31.18,35.53" /><path
             id="path360"
             style="fill:#000000;fill-opacity:1;fill-rule:nonzero;stroke:none"
             d="m 2155.16,3128.98 c -10.32,-7.1 -20.64,-13.06 -33.93,-13.06 -13.29,0 -25.45,8.25 -30.95,21.55 -2.51,5.73 -3.22,11.69 -3.9,17.87 h 70.84 c 0,14.91 -2.3,31.19 -12.38,42.64 -7.11,8.04 -17.42,11.93 -27.96,11.93 -29.11,0 -45.63,-29.11 -45.63,-55.02 v -1.14 c 0.47,-26.14 20.17,-52.05 48.83,-52.05 11.69,0 23.61,3.68 33.01,9.63 1.83,1.39 3.44,1.84 3.44,4.14 0,4.34 -1.14,8.94 -1.37,13.51 z m -67.18,39.21 c 3.22,13.53 14.22,27.51 28.9,27.51 h 0.68 c 16.27,0 23.38,-13.98 27.05,-27.51 h -56.63" /><path
             id="path362"
             style="fill:#000000;fill-opacity:1;fill-rule:nonzero;stroke:none"
             d="m 2198.39,3187.44 v 19.72 h -16.28 v -102.93 h 17.42 v 46.54 c 0,15.36 5.05,32.78 25.45,39.65 4.13,1.61 8.71,2.3 13.07,2.3 v 15.81 c -16.28,0 -28.89,-7.8 -39.66,-21.09" /><path
             id="path364"
             style="fill:#000000;fill-opacity:1;fill-rule:nonzero;stroke:none"
             d="m 2260.11,3206.02 v -101.79 h 17.42 v 101.79 z m -1.61,54.09 v -20.41 h 20.41 v 20.41 h -20.41" /><path
             id="path366"
             style="fill:#000000;fill-opacity:1;fill-rule:nonzero;stroke:none"
             d="m 2299.2,3206.02 38.3,-101.79 h 21.08 l 38.28,101.79 h -17.42 l -24.75,-67.18 -4.36,-13.75 -2.06,-8.93 -2.75,11.68 -5.5,16.96 -22.47,61.22 h -18.35" /><path
             id="path368"
             style="fill:#000000;fill-opacity:1;fill-rule:nonzero;stroke:none"
             d="m 2418.8,3184.23 c 12.61,7.33 20.4,11.93 35.53,11.93 h 1.14 c 12.84,-1.61 17.66,-14.44 17.66,-26.83 v -8.02 c -23.85,0 -62.58,-5.5 -62.58,-30.95 0,-13.52 8.7,-28.66 24.98,-28.66 13.06,0 27.74,2.53 38.28,10.78 v -8.25 h 17.42 v 64.41 c 0,21.55 -12.82,41.27 -37.35,41.27 -11.24,0 -22.24,-2.3 -32.1,-7.57 -1.61,-0.68 -4.36,-1.61 -4.36,-4.12 0,-4.59 1.14,-9.41 1.38,-13.99 z m 54.33,-34.84 v -12.84 c 0,-15.36 -11.24,-20.63 -25.68,-20.63 -8.25,0 -21.09,3.89 -21.09,15.13 0,11.47 18.34,15.36 26.83,16.51 6.64,1.14 13.29,1.83 19.94,1.83" /><path
             id="path370"
             style="fill:#000000;fill-opacity:1;fill-rule:nonzero;stroke:none"
             d="m 2532.84,3235.13 v -29.11 h -19.71 v -13.77 h 19.03 v -61.89 c 0,-11.45 3.2,-28.66 18.56,-28.66 12.16,0 23.61,3.44 34.16,8.94 l -3.68,13.77 c -7.09,-4.6 -12.14,-7.8 -20.62,-7.8 -10.55,0 -11.47,12.37 -11.47,20.17 v 55.47 h 31.87 v 13.77 h -31.87 v 29.11 h -16.27" /><path
             id="path372"
             style="fill:#000000;fill-opacity:1;fill-rule:nonzero;stroke:none"
             d="m 2609.11,3206.02 v -101.79 h 17.42 v 101.79 z m -1.61,54.09 v -20.41 h 20.41 v 20.41 h -20.41" /><path
             id="path374"
             style="fill:#000000;fill-opacity:1;fill-rule:nonzero;stroke:none"
             d="m 2648.2,3206.02 38.3,-101.79 h 21.08 l 38.28,101.79 h -17.42 l -24.75,-67.18 -4.36,-13.75 -2.06,-8.93 -2.75,11.68 -5.5,16.96 -22.47,61.22 h -18.35" /><path
             id="path376"
             style="fill:#000000;fill-opacity:1;fill-rule:nonzero;stroke:none"
             d="m 2841.16,3128.98 c -10.32,-7.1 -20.64,-13.06 -33.93,-13.06 -13.29,0 -25.45,8.25 -30.95,21.55 -2.51,5.73 -3.22,11.69 -3.9,17.87 h 70.84 c 0,14.91 -2.3,31.19 -12.38,42.64 -7.11,8.04 -17.42,11.93 -27.96,11.93 -29.11,0 -45.63,-29.11 -45.63,-55.02 v -1.14 c 0.47,-26.14 20.17,-52.05 48.83,-52.05 11.69,0 23.61,3.68 33.01,9.63 1.83,1.39 3.44,1.84 3.44,4.14 0,4.34 -1.14,8.94 -1.37,13.51 z m -67.18,39.21 c 3.22,13.53 14.22,27.51 28.9,27.51 h 0.68 c 16.27,0 23.38,-13.98 27.05,-27.51 h -56.63" /><path
             id="path378"
             style="fill:#000000;fill-opacity:1;fill-rule:nonzero;stroke:none"
             d="m 2859.17,3128.06 c -0.45,-3.89 -1.15,-7.56 -1.84,-11.45 -0.22,-0.92 -0.69,-2.3 -0.69,-3.44 0,-5.73 23.84,-10.09 26.38,-10.54 3.89,-0.69 8.01,-0.93 12.14,-0.93 17.42,0 36.9,7.57 36.9,31.64 0,14.68 -11,26.36 -24.29,30.49 -11.46,3.67 -33.47,2.53 -33.47,18.34 0,8.94 7.79,13.99 17.65,13.99 7.57,0 15.6,-0.93 22.93,-3.91 3.67,-1.37 7.1,-3.66 10.78,-5.03 l 2.75,15.36 c -11.02,5.03 -21.57,7.33 -33.47,7.33 -17.66,0 -37.61,-7.8 -37.61,-29.8 0,-13.98 10.55,-24.08 22.94,-28.66 10.76,-3.67 35.29,-2.51 35.29,-19.72 0,-11.92 -11.68,-15.35 -22,-15.35 -13.53,0 -22.25,5.28 -34.39,11.68" /><path
             id="path380"
             style="fill:#000000;fill-opacity:1;fill-rule:nonzero;stroke:none"
             d="m 3036.84,3235.13 v -29.11 h -19.71 v -13.77 h 19.03 v -61.89 c 0,-11.45 3.2,-28.66 18.56,-28.66 12.16,0 23.61,3.44 34.16,8.94 l -3.68,13.77 c -7.09,-4.6 -12.14,-7.8 -20.62,-7.8 -10.55,0 -11.47,12.37 -11.47,20.17 v 55.47 h 31.87 v 13.77 h -31.87 v 29.11 h -16.27" /><path
             id="path382"
             style="fill:#000000;fill-opacity:1;fill-rule:nonzero;stroke:none"
             d="m 3148.64,3209.91 c -28.19,-2.99 -46.31,-28.43 -46.31,-54.78 0,-20.86 11.23,-43.11 35.31,-51.13 4.58,-1.61 9.39,-2.3 14.44,-2.3 27.05,0 49.28,24.08 49.28,53.19 0,25.67 -17.64,55.02 -49.97,55.02 z m -29.34,-56.39 c -0.24,1.37 -0.24,2.75 -0.24,4.12 0,19.03 12.16,38.06 32.78,38.06 20.64,0 32.57,-18.57 32.57,-38.75 0,-17.65 -9.18,-40.34 -32.33,-40.34 -19.03,0 -30.72,15.81 -32.78,36.91" /><path
             id="path384"
             style="fill:#000000;fill-opacity:1;fill-rule:nonzero;stroke:none"
             d="m 3389.45,3177.36 c 0,18.34 -1.15,36.67 -9.17,53.64 -10.55,22 -29.34,25.67 -38.97,25.67 -13.75,0 -30.48,-5.95 -39.89,-27.28 -7.33,-15.81 -8.48,-33.69 -8.48,-52.03 0,-17.2 0.92,-37.83 10.31,-55.25 9.86,-18.56 26.59,-23.16 37.83,-23.16 12.37,0 29.8,4.82 39.89,26.6 7.33,15.81 8.48,33.7 8.48,51.81 z M 3341.08,3104 c -8.94,0 -22.47,5.73 -26.6,27.73 -2.51,13.77 -2.51,34.85 -2.51,48.38 0,14.67 0,29.8 1.83,42.17 4.36,27.28 21.54,29.35 27.28,29.35 7.56,0 22.7,-4.13 27.05,-26.82 2.29,-12.84 2.29,-30.26 2.29,-44.7 0,-17.19 0,-32.78 -2.51,-47.45 -3.44,-21.78 -16.52,-28.66 -26.83,-28.66" /><path
             id="path386"
             style="fill:#005282;fill-opacity:1;fill-rule:nonzero;stroke:none"
             d="m 403.328,120 h 7613.34 V 301.293 H 403.328 Z" /><path
             id="path388"
             style="fill:#ffffff;fill-opacity:1;fill-rule:nonzero;stroke:none"
             d="m 7451.03,251.813 v -9.641 c 6.52,0 13.03,0.5 19.17,2.5 v -58.891 h -18.42 v -9.656 h 50.5 v 9.656 h -18.17 v 74.188 c -0.63,0 -1.38,0.125 -2,0.125 -1.88,0 -3.14,-1.516 -4.64,-2.391 -7.89,-4.765 -17.3,-5.89 -26.44,-5.89" /><path
             id="path390"
             style="fill:#ffffff;fill-opacity:1;fill-rule:nonzero;stroke:none"
             d="m 7516.14,194.922 h 38.22 v -18.797 h 13.28 v 18.797 h 13.66 v 10.156 h -13.66 v 52.625 h -13.78 l -1.38,-0.25 -3.39,-4.515 -32.82,-47.86 -0.13,-3.39 z m 13.53,10.156 c 8.64,13.031 19.42,26.563 24.56,40.969 0.63,1.766 1.13,3.516 1.13,5.391 l 0.12,-46.36 h -25.81" /><path
             id="path392"
             style="fill:#ffffff;fill-opacity:1;fill-rule:nonzero;stroke:none"
             d="m 7694.41,269.984 c -3.14,-0.375 -4.02,-3.375 -5.02,-5.89 -14.55,-35.078 -28.45,-70.797 -43.23,-105.766 -1,-2.625 -3.02,-6.015 -3.02,-8.39 0,-2.766 2.27,-5.141 5.14,-5.141 h 0.25 c 3.77,0 4.77,3.891 5.77,6.391 13.03,31.953 25.68,63.781 38.97,95.609 1.64,3.891 3.26,7.781 4.76,11.656 l 1.38,3.516 c 0.39,0.75 0.76,1.5 0.89,2.375 v 0.625 c 0,2.765 -2.27,5.14 -5.02,5.14 -0.25,0 -0.5,-0.125 -0.87,-0.125" /><path
             id="path394"
             style="fill:#ffffff;fill-opacity:1;fill-rule:nonzero;stroke:none"
             d="m 7769.03,257.703 v -48.5 h 10.02 c 2.01,0 3.14,3.141 4.76,4.766 3.02,2.89 7.39,4.765 11.53,4.765 10.41,0 13.04,-10.156 13.04,-17.421 0,-12.032 -8.27,-17.297 -17.3,-17.297 -9.14,0 -16.53,4.39 -21.8,11.156 l -4.64,-6.391 c -0.37,-0.625 -1.5,-1.75 -1.5,-2.5 0,-0.875 2.75,-3.015 4,-4.015 6.91,-5.516 15.42,-8.391 24.06,-8.391 14.8,0 32.85,9.516 32.85,27.563 0,15.296 -13.16,27.328 -28.08,27.328 -5.14,0 -10.14,-1.391 -14.28,-4.516 v 22.688 h 37.47 v 10.765 h -50.13" /><path
             id="path396"
             style="fill:#ffffff;fill-opacity:1;fill-rule:nonzero;stroke:none"
             d="m 7843.03,251.813 v -9.641 c 6.52,0 13.03,0.5 19.17,2.5 v -58.891 h -18.42 v -9.656 h 50.5 v 9.656 h -18.17 v 74.188 c -0.63,0 -1.38,0.125 -2,0.125 -1.88,0 -3.14,-1.516 -4.64,-2.391 -7.89,-4.765 -17.3,-5.89 -26.44,-5.89" /></g></g></g></g></svg>