<?xml version="1.0" encoding="UTF-8" standalone="no"?>
<!-- Created with Inkscape (http://www.inkscape.org/) -->

<svg
   xmlns:dc="http://purl.org/dc/elements/1.1/"
   xmlns:cc="http://creativecommons.org/ns#"
   xmlns:rdf="http://www.w3.org/1999/02/22-rdf-syntax-ns#"
   xmlns:svg="http://www.w3.org/2000/svg"
   xmlns="http://www.w3.org/2000/svg"
   xmlns:xlink="http://www.w3.org/1999/xlink"
   xmlns:sodipodi="http://sodipodi.sourceforge.net/DTD/sodipodi-0.dtd"
   xmlns:inkscape="http://www.inkscape.org/namespaces/inkscape"
   width="800"
   height="600"
   id="svg3037"
   version="1.1"
   inkscape:version="0.48.3.1 r9886"
   sodipodi:docname="car-counting.svg">
  <defs
     id="defs3039" />
  <sodipodi:namedview
     id="base"
     pagecolor="#ffffff"
     bordercolor="#666666"
     borderopacity="1.0"
     inkscape:pageopacity="0.0"
     inkscape:pageshadow="2"
     inkscape:zoom="0.98994949"
     inkscape:cx="504.03771"
     inkscape:cy="258.9305"
     inkscape:document-units="px"
     inkscape:current-layer="g3078"
     showgrid="false"
     inkscape:window-width="1909"
     inkscape:window-height="993"
     inkscape:window-x="0"
     inkscape:window-y="27"
     inkscape:window-maximized="1" />
  <metadata
     id="metadata3042">
    <rdf:RDF>
      <cc:Work
         rdf:about="">
        <dc:format>image/svg+xml</dc:format>
        <dc:type
           rdf:resource="http://purl.org/dc/dcmitype/StillImage" />
        <dc:title />
      </cc:Work>
    </rdf:RDF>
  </metadata>
  <g
     inkscape:label="Layer 1"
     inkscape:groupmode="layer"
     id="layer1"
     transform="translate(0,-452.36218)">
    <g
       id="g3078"
       transform="matrix(1.0322421,0,0,1.0322421,-517.26347,-35.748025)">
      <image
         y="473.70987"
         x="506.51443"
         id="image3113"
         xlink:href="rue-starts-5cars.jpg"
         height="573.6662"
         width="764.88837" />
      <path
         transform="translate(503.35109,477.01109)"
         d="m 373.42371,292.57626 c 0,21.3987 -18.43979,38.74577 -41.18644,38.74577 -22.74664,0 -41.18644,-17.34707 -41.18644,-38.74577 0,-21.39869 18.4398,-38.74576 41.18644,-38.74576 22.74665,0 41.18644,17.34707 41.18644,38.74576 z"
         sodipodi:ry="38.745762"
         sodipodi:rx="41.18644"
         sodipodi:cy="292.57626"
         sodipodi:cx="332.23727"
         id="path2987"
         style="color:#000000;fill:none;stroke:#ff0000;stroke-width:5;stroke-linecap:butt;stroke-linejoin:miter;stroke-miterlimit:4;stroke-opacity:1;stroke-dasharray:none;stroke-dashoffset:0;marker:none;visibility:visible;display:inline;overflow:visible;enable-background:accumulate"
         sodipodi:type="arc" />
      <path
         transform="matrix(0.85334626,0,0,0.85334626,671.81622,399.32016)"
         d="m 373.42371,292.57626 c 0,21.3987 -18.43979,38.74577 -41.18644,38.74577 -22.74664,0 -41.18644,-17.34707 -41.18644,-38.74577 0,-21.39869 18.4398,-38.74576 41.18644,-38.74576 22.74665,0 41.18644,17.34707 41.18644,38.74576 z"
         sodipodi:ry="38.745762"
         sodipodi:rx="41.18644"
         sodipodi:cy="292.57626"
         sodipodi:cx="332.23727"
         id="path2987-7"
         style="color:#000000;fill:none;stroke:#ff0000;stroke-width:5;stroke-linecap:butt;stroke-linejoin:miter;stroke-miterlimit:4;stroke-opacity:1;stroke-dasharray:none;stroke-dashoffset:0;marker:none;visibility:visible;display:inline;overflow:visible;enable-background:accumulate"
         sodipodi:type="arc" />
      <path
         transform="matrix(0.60361479,0,0,0.60361479,904.40422,381.14683)"
         d="m 373.42371,292.57626 c 0,21.3987 -18.43979,38.74577 -41.18644,38.74577 -22.74664,0 -41.18644,-17.34707 -41.18644,-38.74577 0,-21.39869 18.4398,-38.74576 41.18644,-38.74576 22.74665,0 41.18644,17.34707 41.18644,38.74576 z"
         sodipodi:ry="38.745762"
         sodipodi:rx="41.18644"
         sodipodi:cy="292.57626"
         sodipodi:cx="332.23727"
         id="path2987-7-2"
         style="color:#000000;fill:none;stroke:#ff0000;stroke-width:5;stroke-linecap:butt;stroke-linejoin:miter;stroke-miterlimit:4;stroke-opacity:1;stroke-dasharray:none;stroke-dashoffset:0;marker:none;visibility:visible;display:inline;overflow:visible;enable-background:accumulate"
         sodipodi:type="arc" />
      <path
         transform="matrix(0.57302544,0,0,0.57302544,949.66404,370.74004)"
         d="m 373.42371,292.57626 c 0,21.3987 -18.43979,38.74577 -41.18644,38.74577 -22.74664,0 -41.18644,-17.34707 -41.18644,-38.74577 0,-21.39869 18.4398,-38.74576 41.18644,-38.74576 22.74665,0 41.18644,17.34707 41.18644,38.74576 z"
         sodipodi:ry="38.745762"
         sodipodi:rx="41.18644"
         sodipodi:cy="292.57626"
         sodipodi:cx="332.23727"
         id="path2987-7-2-7"
         style="color:#000000;fill:none;stroke:#ff0000;stroke-width:5;stroke-linecap:butt;stroke-linejoin:miter;stroke-miterlimit:4;stroke-opacity:1;stroke-dasharray:none;stroke-dashoffset:0;marker:none;visibility:visible;display:inline;overflow:visible;enable-background:accumulate"
         sodipodi:type="arc" />
      <path
         transform="matrix(0.60361479,0,0,0.60361479,991.43637,329.65885)"
         d="m 373.42371,292.57626 c 0,21.3987 -18.43979,38.74577 -41.18644,38.74577 -22.74664,0 -41.18644,-17.34707 -41.18644,-38.74577 0,-21.39869 18.4398,-38.74576 41.18644,-38.74576 22.74665,0 41.18644,17.34707 41.18644,38.74576 z"
         sodipodi:ry="38.745762"
         sodipodi:rx="41.18644"
         sodipodi:cy="292.57626"
         sodipodi:cx="332.23727"
         id="path2987-7-2-4"
         style="color:#000000;fill:none;stroke:#ff0000;stroke-width:5;stroke-linecap:butt;stroke-linejoin:miter;stroke-miterlimit:4;stroke-opacity:1;stroke-dasharray:none;stroke-dashoffset:0;marker:none;visibility:visible;display:inline;overflow:visible;enable-background:accumulate"
         sodipodi:type="arc" />
    </g>
    <path
       style="opacity:0.6;fill:#ffffff;stroke:none"
       d="M 4.3723717,352.05937 C 200.47639,341.74147 412.09337,362.84133 587.75722,378.3154 l 213.29375,113.59828 0,110.94346 -799.0509701,0.85714 z"
       id="path3027"
       inkscape:connector-curvature="0"
       transform="translate(0,452.36218)"
       sodipodi:nodetypes="cccccc" />
    <g
       transform="matrix(2.1220731,0,0,-2.1220731,-182.00179,1034.7172)"
       id="g12">
      <g
         id="g20"
         transform="matrix(1,0,0,-1,0,168)">
        <path
           inkscape:connector-curvature="0"
           d="m 88.089127,80.434238 45.437003,0 m 29.63819,90.534662 111.918,0 4.32,-68.32 4.242,68.32 8.637,0 4.32,-79.437002 4.321,79.437002 12.883,0 4.32,-40.64 4.316,-9.2 4.242,-20.32 4.321,38.723 4.32,31.437 21.52,0 4.32,-94.238002 4.32,42.559002 4.239,51.679 90.402,0"
           style="fill:none;stroke:#ff0000;stroke-width:1.60000002;stroke-linecap:butt;stroke-linejoin:miter;stroke-miterlimit:4;stroke-opacity:1;stroke-dasharray:none"
           id="path22"
           sodipodi:nodetypes="cccccccccccccccccccc" />
      </g>
      <g
         id="g26"
         transform="matrix(1,0,0,-1,0,168)">
        <path
           inkscape:connector-curvature="0"
           d="m 88.089127,99.633238 45.437003,0 m 29.63819,71.257662 8.641,0 4.32,0.078 17.199,0 4.32,-0.078 34.399,0 4.32,-2.641 4.32,-6.878 4.239,-7.922 4.32,-10.321 4.32,-12.238 4.321,-2.723 4.32,-0.957 4.238,-1.043 4.321,-5.039 4.32,-2.8 4.32,-1.118 4.242,-2.32 4.321,-6 4.316,-3.84 4.32,-3.441 4.321,2.64 4.242,4.801 4.32,2.879 4.321,2.238 4.32,-3.039 4.316,-1.597 4.242,-1.524 4.321,1.524 4.32,7.199 4.32,8.078 4.321,1.039 4.238,-0.879 4.32,0 4.321,3.281 4.32,5.2 4.32,7.679 4.239,13.442 4.32,16 4.32,0.32 81.762,0"
           style="fill:none;stroke:#00af00;stroke-width:0.80000001;stroke-linecap:butt;stroke-linejoin:miter;stroke-miterlimit:4;stroke-opacity:1;stroke-dasharray:none"
           id="path28"
           sodipodi:nodetypes="ccccccccccccccccccccccccccccccccccccccccccc" />
      </g>
      <g
         id="g32"
         transform="matrix(1,0,0,-1,0,168)">
        <path
           inkscape:connector-curvature="0"
           d="m 88.089127,118.83324 45.437003,0 m 29.63819,52.05766 12.961,0 4.238,0.078 4.32,-0.078 43.04,0 4.32,-0.242 4.32,-5.277 4.32,-6.961 4.239,-8.243 4.32,-9.839 4.32,-10.957 4.321,-10.161 4.32,2.079 4.238,0.082 4.321,2.878 4.32,-3.441 4.32,-2.879 4.242,0.078 4.321,0.082 4.316,-3.84 4.32,-0.878 4.321,4.078 4.242,7.761 4.32,9.68 4.321,4.719 4.32,1.762 4.316,-2.801 4.242,-3.442 4.321,-1.597 4.32,-7.043 4.32,15.043 4.321,4.16 4.238,-5.684 4.32,-12.558 4.321,0.718 4.32,5.922 4.32,9.758 4.239,13.922 4.32,13.039 4.32,0.082 81.762,0"
           style="fill:none;stroke:#00ff00;stroke-width:0.80000001;stroke-linecap:butt;stroke-linejoin:miter;stroke-miterlimit:4;stroke-opacity:1;stroke-dasharray:none"
           id="path34"
           sodipodi:nodetypes="ccccccccccccccccccccccccccccccccccccccccccc" />
      </g>
      <g
         id="g38"
         transform="matrix(1,0,0,-1,0,168)">
        <path
           inkscape:connector-curvature="0"
           d="m 88.089127,138.03624 45.437003,0 m 29.63819,32.45266 4.32,0.082 4.321,0.078 4.32,0.082 8.558,0 4.321,-0.082 4.32,0 4.32,-0.32 4.239,-0.321 4.32,-0.078 4.32,-0.16 4.321,-0.238 4.32,-0.563 4.238,-1.199 4.321,-2.238 4.32,-1.762 4.32,-3.52 4.32,-4.718 4.239,-6.16 4.32,-8.481 4.32,-9.359 4.321,-8.16 4.32,-6.243 4.238,-3.039 4.321,-3.121 4.32,-4.558 4.32,-3.36 4.242,-1.679 4.321,-0.801 4.316,-2.082002 4.32,-1.68 4.321,1.52 4.242,5.121002 4.32,7.281 4.321,4.48 4.32,3.52 4.316,2.398 4.242,1.52 4.321,0.961 4.32,4.32 4.32,7.68 4.321,4 4.238,1.359 4.32,-0.48 4.321,0.32 4.32,1.281 4.32,4.719 4.239,6.16 4.32,8.481 4.32,7.359 4.32,0.961 4.321,0.078 8.558,0 4.321,0.082 4.32,0.078 4.238,0 4.321,0.082 4.32,0 4.32,-0.082 4.321,-0.078 4.242,-0.082 4.316,0 4.32,-0.078 21.524,0"
           style="fill:none;stroke:#000000;stroke-width:0.80000001;stroke-linecap:butt;stroke-linejoin:miter;stroke-miterlimit:4;stroke-opacity:1;stroke-dasharray:none"
           id="path40"
           sodipodi:nodetypes="cccccccccccccccccccccccccccccccccccccccccccccccccccccccccccccccccc" />
      </g>
      <g
         id="g44"
         transform="matrix(1,0,0,-1,0,168)" />
      <g
         id="g48"
         transform="matrix(1,0,0,-1,0,168)" />
    </g>
    <g
       id="g3059"
       transform="matrix(1.7286639,0,0,1.7286639,-35.671384,-435.54235)">
      <path
         sodipodi:nodetypes="csccccccccscscccccssccccccsccccscccccccccccccccccccsccccccsscccccccccssccccccscccccsccccccsscccccccccssccccccscscscscscsscscscscsccccccscssccccccsssccsccccccsscscsccccscsccccccsscccscccsscsscsssscccccccccccccccssccccccsscsssccccscscscccccscscccscscsccccccscscccccsccccsccccccccccccccc"
         id="path18"
         style="fill:#000000;fill-opacity:1;fill-rule:nonzero;stroke:none"
         d="m 91.473392,737.35548 -1.075,0 c -1.1225,0 -1.875,0.15625 -2.265,0.46875 -0.38125,0.3025 -0.68375,0.99625 -0.9175,2.09 l -0.48875,0 0.13625,-3.39875 11.27,0 0.1175,3.39875 -0.46875,0 c -0.235,-1.10375 -0.5425,-1.80625 -0.91875,-2.11 -0.38,-0.2975 -1.1325,-0.44875 -2.265,-0.44875 l -1.075,0 0,10.215 c 0,0.7425 0.1075,1.22125 0.3325,1.42625 0.22,0.21 0.7475,0.34125 1.5825,0.39 l 0,0.37125 -5.84,0 0,-0.37125 c 0.82,-0.0638 1.3325,-0.2 1.5425,-0.41 0.22,-0.22 0.3325,-0.76125 0.3325,-1.62125 z m 19.277498,12.03125 0,0.37125 -5.0975,0 0,-0.37125 c 0.53125,-0.01 0.8975,-0.0638 1.09375,-0.15625 0.205,-0.1025 0.3125,-0.27875 0.3125,-0.5275 0,-0.3225 -0.1325,-0.77125 -0.39125,-1.3475 l -0.82,-1.91375 -5.235,0 -0.917498,2.34375 c -0.1175,0.27375 -0.17625,0.53625 -0.17625,0.78125 0,0.54625 0.455,0.82 1.367498,0.82 l 0,0.37125 -3.964998,0 0,-0.37125 c 0.49375,-0.0387 0.87875,-0.23375 1.1525,-0.58625 0.27375,-0.35125 0.7125,-1.25 1.32875,-2.695 l 4.159998,-9.82375 0.41,0 4.98,11.3475 c 0.3125,0.7425 0.57125,1.21125 0.78125,1.40625 0.22,0.195 0.5575,0.3125 1.01625,0.35125 z m -9.805,-4.765 4.62875,0 -2.32375,-5.50875 z m 23.61375,-6.32875 -5.1175,11.465 -0.27375,0 -5.02,-10.99625 0,8.0475 c 0,1.015 0.1175,1.68875 0.3525,2.01125 0.24375,0.3275 0.75125,0.5175 1.5225,0.56625 l 0,0.37125 -4.70625,0 0,-0.37125 c 0.83,-0.0638 1.3675,-0.25375 1.60125,-0.56625 0.235,-0.3125 0.35125,-0.98125 0.35125,-2.01125 l 0,-8.10625 c 0,-0.7425 -0.1125,-1.21125 -0.33125,-1.40625 -0.225,-0.205 -0.7525,-0.33625 -1.5825,-0.39 l 0,-0.39125 3.965,0 4.62875,10.0975 4.41375,-10.0975 3.985,0 0,0.39125 c -0.7575,0.0675 -1.24,0.205 -1.445,0.41 -0.19625,0.21 -0.29375,0.67375 -0.29375,1.38625 l 0,8.8675 c 0,0.7175 0.1025,1.18625 0.3125,1.40625 0.205,0.21 0.68375,0.34625 1.42625,0.41 l 0,0.37125 -5.60625,0 0,-0.37125 c 0.78125,-0.0638 1.275,-0.205 1.485,-0.43 0.22,-0.23375 0.3325,-0.76625 0.3325,-1.60125 z m 17.7725,0 -5.11625,11.465 -0.27375,0 -5.02,-10.99625 0,8.0475 c 0,1.015 0.1175,1.68875 0.35125,2.01125 0.245,0.3275 0.7525,0.5175 1.52375,0.56625 l 0,0.37125 -4.70625,0 0,-0.37125 c 0.83,-0.0638 1.36625,-0.25375 1.60125,-0.56625 0.23375,-0.3125 0.35125,-0.98125 0.35125,-2.01125 l 0,-8.10625 c 0,-0.7425 -0.1125,-1.21125 -0.3325,-1.40625 -0.22375,-0.205 -0.75125,-0.33625 -1.58125,-0.39 l 0,-0.39125 3.965,0 4.62875,10.0975 4.41375,-10.0975 3.985,0 0,0.39125 c -0.7575,0.0675 -1.24125,0.205 -1.44625,0.41 -0.195,0.21 -0.2925,0.67375 -0.2925,1.38625 l 0,8.8675 c 0,0.7175 0.1025,1.18625 0.3125,1.40625 0.205,0.21 0.68375,0.34625 1.42625,0.41 l 0,0.37125 -5.60625,0 0,-0.37125 c 0.78125,-0.0638 1.275,-0.205 1.485,-0.43 0.21875,-0.23375 0.33125,-0.76625 0.33125,-1.60125 z m 14.2975,2.26625 c 1.27375,0 2.32375,0.42875 3.14375,1.28875 0.83125,0.84875 1.25,1.92375 1.25,3.2225 0,1.39625 -0.42875,2.55875 -1.28875,3.49625 -0.85,0.9275 -1.89375,1.38625 -3.14375,1.38625 -1.25,0 -2.295,-0.44875 -3.125,-1.3475 -0.835,-0.89875 -1.25,-2.01625 -1.25,-3.35875 0,-1.3775 0.41,-2.505 1.23,-3.38 0.82,-0.86875 1.88,-1.3075 3.18375,-1.3075 z m -2.6175,3.69125 c 0,1.435 0.25875,2.65125 0.78125,3.6525 0.5175,1.005 1.19625,1.50375 2.03125,1.50375 0.7525,0 1.3375,-0.3175 1.7575,-0.9575 0.43,-0.64875 0.645,-1.5425 0.645,-2.67625 0,-1.36625 -0.26875,-2.48 -0.80125,-3.33875 -0.53625,-0.87 -1.22,-1.30875 -2.05,-1.30875 -0.71875,0 -1.29,0.2875 -1.71875,0.85875 -0.43,0.57625 -0.645,1.32875 -0.645,2.26625 z m 7.6175,-2.46125 0,-0.3325 c 0.98625,-0.2825 1.91375,-0.585 2.77375,-0.8975 l 0.13625,0.0387 0,1.58125 c 0.67375,-0.63375 1.21125,-1.06375 1.60125,-1.28875 0.40125,-0.22 0.83,-0.33125 1.28875,-0.33125 0.7425,0 1.31875,0.2675 1.73875,0.8 0.415,0.5225 0.625,1.26 0.625,2.2075 l 0,4.57 c 0,0.4975 0.0787,0.83 0.235,0.99625 0.165,0.17125 0.4975,0.28375 0.995,0.3325 l 0,0.2925 -4.16,0 0,-0.2925 c 0.50875,-0.04 0.84,-0.16625 0.99625,-0.39125 0.16625,-0.23375 0.25375,-0.66375 0.25375,-1.28875 l 0,-4.18 c 0,-1.29875 -0.4875,-1.9525 -1.465,-1.9525 -0.32625,0 -0.63375,0.0775 -0.9175,0.23375 -0.27375,0.15625 -0.65375,0.46375 -1.1325,0.9175 l 0,5.60625 c 0,0.36625 0.0875,0.625 0.27375,0.78125 0.195,0.14625 0.54625,0.23375 1.05375,0.27375 l 0,0.2925 -4.2575,0 0,-0.2925 c 0.5075,-0.04 0.84,-0.15625 0.99625,-0.3525 0.16625,-0.195 0.25375,-0.57625 0.25375,-1.1525 l 0,-4.96 c 0,-0.49375 -0.0538,-0.83 -0.15625,-1.01625 -0.1075,-0.18 -0.3025,-0.27375 -0.58625,-0.27375 -0.24875,0 -0.42875,0.03 -0.54625,0.0787 z m 25.5275,-1.66 c 0,0.35125 -0.04,0.6925 -0.1175,1.015 -0.0787,0.3125 -0.235,0.655 -0.46875,1.01625 -0.235,0.36625 -0.5475,0.67875 -0.9375,0.9375 -0.39125,0.24875 -0.9175,0.46375 -1.5825,0.64375 -0.66375,0.17125 -1.435,0.255 -2.30375,0.255 -0.40625,0 -0.87,-0.02 -1.3875,-0.0588 l 0,3.6325 c 0,0.7425 0.1175,1.225 0.35125,1.445 0.235,0.21 0.7425,0.3325 1.52375,0.37125 l 0,0.37125 -5.605,0 0,-0.37125 c 0.76625,-0.0775 1.235,-0.22 1.40625,-0.43 0.18,-0.21875 0.27375,-0.75125 0.27375,-1.60125 l 0,-8.6525 c 0,-0.7275 -0.0937,-1.19125 -0.27375,-1.38625 -0.18625,-0.195 -0.655,-0.3325 -1.40625,-0.41 l 0,-0.39125 5.2925,0 c 0.59625,0 1.1775,0.0588 1.73875,0.17625 0.55625,0.1175 1.1125,0.3025 1.66,0.54625 0.55625,0.25 1.00125,0.62 1.3275,1.11375 0.3375,0.4975 0.50875,1.08875 0.50875,1.7775 z m -6.7975,-2.1875 0,5.195 c 0.45375,0.0387 0.83,0.0587 1.1325,0.0587 2.315,0 3.4775,-0.97625 3.4775,-2.93 0,-1.025 -0.3225,-1.7825 -0.9575,-2.265 -0.64,-0.49375 -1.63125,-0.7425 -2.96875,-0.7425 -0.27375,0 -0.45875,0.0488 -0.54625,0.13625 -0.0937,0.0937 -0.1375,0.27375 -0.1375,0.5475 z m 13.77,11.035 c 0.35125,0 0.67375,-0.02 0.97625,-0.0587 0.2975,-0.0387 0.55625,-0.0775 0.78125,-0.1175 0.235,-0.0487 0.45375,-0.12625 0.66375,-0.23375 0.22,-0.1175 0.39625,-0.205 0.5275,-0.27375 0.1275,-0.0638 0.26375,-0.16625 0.41,-0.3125 0.1425,-0.15625 0.245,-0.26375 0.3125,-0.3325 0.0787,-0.0775 0.16125,-0.2 0.25375,-0.37 0.0888,-0.18125 0.1475,-0.29875 0.17625,-0.3525 0.025,-0.0625 0.0787,-0.18 0.15625,-0.35125 0.0875,-0.18 0.13625,-0.27875 0.13625,-0.2925 l 0.48875,0 -0.9575,3.47625 -10.76125,0 0,-0.37125 c 0.7425,-0.0638 1.21625,-0.2 1.42625,-0.41 0.205,-0.22 0.3125,-0.68875 0.3125,-1.40625 l 0,-8.8675 c 0,-0.7125 -0.1075,-1.17625 -0.3125,-1.38625 -0.21,-0.22 -0.68375,-0.35625 -1.42625,-0.41 l 0,-0.39125 5.645,0 0,0.39125 c -0.78125,0.0538 -1.29,0.19 -1.52375,0.41 -0.225,0.21 -0.3325,0.67375 -0.3325,1.38625 l 0,9.45375 c 0,0.35125 0.1025,0.58125 0.3125,0.68375 0.205,0.0925 0.67375,0.13625 1.40625,0.13625 z m 12.55875,-1.91375 c 0,-0.625 -0.225,-1.1775 -0.665,-1.66 -0.42875,-0.49375 -0.95625,-0.90875 -1.58125,-1.25 -0.625,-0.3525 -1.25,-0.70875 -1.875,-1.075 -0.625,-0.37625 -1.1625,-0.84875 -1.60125,-1.425 -0.43,-0.57125 -0.645,-1.23625 -0.645,-1.9925 0,-1.01625 0.33625,-1.83625 1.015,-2.46125 0.68875,-0.635 1.505,-0.9575 2.4425,-0.9575 0.55625,0 1.16125,0.1175 1.81625,0.3525 0.64875,0.22375 1.04,0.33125 1.17125,0.33125 0.35125,0 0.56625,-0.22375 0.645,-0.68375 l 0.43,0 0.42875,4.25875 -0.4875,0 c -0.3275,-1.1725 -0.82125,-2.03625 -1.485,-2.5975 -0.65375,-0.5575 -1.38125,-0.84 -2.1875,-0.84 -0.615,0 -1.1125,0.175 -1.50375,0.5275 -0.38125,0.34125 -0.56625,0.78125 -0.56625,1.3275 0,0.5375 0.22,1.045 0.66375,1.52375 0.45375,0.48375 1.21125,1.015 2.26625,1.60125 1.3275,0.70375 2.285,1.40125 2.87125,2.09 0.585,0.67875 0.87875,1.435 0.87875,2.265 0,1.03125 -0.40125,1.895 -1.19125,2.59875 -0.78125,0.6925 -1.74875,1.035 -2.89125,1.035 -0.66375,0 -1.3425,-0.1125 -2.03125,-0.3325 -0.69375,-0.22 -1.11375,-0.3325 -1.27,-0.3325 -0.14625,0 -0.2725,0.0687 -0.39,0.19625 -0.1075,0.11625 -0.16625,0.26375 -0.17625,0.44875 l -0.42875,0 -0.60625,-4.23875 0.46875,0 c 0.47875,1.21125 1.045,2.105 1.7,2.67625 0.66375,0.57625 1.435,0.86 2.32375,0.86 0.7425,0 1.3325,-0.205 1.7775,-0.625 0.45375,-0.415 0.68375,-0.9575 0.68375,-1.62125 z m 16.24997,2.32375 0,0.37125 -5.0975,0 0,-0.37125 c 0.5313,-0.01 0.8975,-0.0638 1.0938,-0.15625 0.205,-0.1025 0.3125,-0.27875 0.3125,-0.5275 0,-0.3225 -0.1325,-0.77125 -0.3913,-1.3475 l -0.82,-1.91375 -5.235,0 -0.9175,2.34375 c -0.1175,0.27375 -0.1762,0.53625 -0.1762,0.78125 0,0.54625 0.455,0.82 1.3675,0.82 l 0,0.37125 -3.96502,0 0,-0.37125 c 0.49375,-0.0387 0.87875,-0.23375 1.1525,-0.58625 0.27375,-0.35125 0.7125,-1.25 1.32872,-2.695 l 4.16,-9.82375 0.41,0 4.98,11.3475 c 0.3125,0.7425 0.5713,1.21125 0.7813,1.40625 0.22,0.195 0.5575,0.3125 1.0162,0.35125 z m -9.805,-4.765 4.6288,0 -2.3238,-5.50875 z"
         inkscape:connector-curvature="0" />
      <path
         id="path24"
         style="fill:#000000;fill-opacity:1;fill-rule:nonzero;stroke:none"
         d="m 93.563392,772.97548 c 0.35125,0 0.67375,-0.0188 0.97625,-0.0588 0.2975,-0.0387 0.55625,-0.0775 0.78125,-0.11625 0.23375,-0.05 0.45375,-0.1275 0.66375,-0.235 0.22,-0.1175 0.395,-0.205 0.5275,-0.27375 0.1275,-0.0625 0.26375,-0.16625 0.41,-0.3125 0.14125,-0.15625 0.24375,-0.26375 0.3125,-0.33125 0.0787,-0.0788 0.16125,-0.20125 0.25375,-0.37125 0.0888,-0.18125 0.14625,-0.2975 0.17625,-0.35125 0.0238,-0.0637 0.0775,-0.18125 0.15625,-0.3525 0.0875,-0.18 0.13625,-0.2775 0.13625,-0.2925 l 0.48875,0 -0.9575,3.47625 -10.76125,0 0,-0.37125 c 0.7425,-0.0637 1.215,-0.2 1.425,-0.41 0.205,-0.22 0.3125,-0.68875 0.3125,-1.40625 l 0,-8.8675 c 0,-0.7125 -0.1075,-1.17625 -0.3125,-1.38625 -0.21,-0.22 -0.6825,-0.35625 -1.425,-0.41 l 0,-0.39125 5.64375,0 0,0.39125 c -0.78125,0.0537 -1.28875,0.19 -1.5225,0.41 -0.225,0.21 -0.3325,0.67375 -0.3325,1.38625 l 0,9.45375 c 0,0.35125 0.1025,0.58125 0.3125,0.68375 0.205,0.0925 0.67375,0.13625 1.40625,0.13625 l 1.32875,0 z m 18.261248,-5.89875 c 0,0.60125 -0.0687,1.1875 -0.195,1.75875 -0.1325,0.57625 -0.38125,1.16625 -0.7425,1.7775 -0.35125,0.615 -0.81,1.14625 -1.3675,1.60125 -0.56125,0.44375 -1.30875,0.815 -2.24625,1.1125 -0.9275,0.28875 -1.9725,0.43 -3.14375,0.43 l -5.683748,0 0,-0.37125 c 0.76625,-0.0637 1.25,-0.2 1.445,-0.41 0.204998,-0.205 0.312498,-0.67375 0.312498,-1.40625 l 0,-8.8675 c 0,-0.74125 -0.0975,-1.21 -0.292498,-1.40625 -0.18625,-0.195 -0.67375,-0.32125 -1.465,-0.39 l 0,-0.39125 5.409998,0 c 1.21125,0 2.29,0.1375 3.2425,0.41125 0.94625,0.2725 1.71875,0.63375 2.30375,1.07375 0.58625,0.43 1.065,0.9475 1.44625,1.5425 0.375,0.58625 0.63,1.1675 0.76125,1.73875 0.14125,0.57625 0.215,1.17125 0.215,1.79625 z m -2.1675,0.1375 c 0,-0.57125 -0.0587,-1.11875 -0.17625,-1.64125 -0.1175,-0.53125 -0.3275,-1.06375 -0.625,-1.60125 -0.28875,-0.54625 -0.66375,-1.00625 -1.1325,-1.38625 -0.45875,-0.39125 -1.07,-0.70875 -1.83625,-0.9575 -0.7575,-0.24375 -1.62125,-0.37125 -2.5975,-0.37125 -0.42,0 -0.69875,0.0537 -0.84,0.15625 -0.1325,0.1075 -0.195,0.3125 -0.195,0.625 l 0,10.15625 c 0,0.3275 0.0675,0.5475 0.215,0.66375 0.14125,0.1075 0.415,0.15625 0.82,0.15625 4.2425,0 6.3675,-1.9325 6.3675,-5.8 z m 15.83875,6.17125 0,0.37125 -5.0975,0 0,-0.37125 c 0.5325,-0.01 0.89875,-0.0637 1.09375,-0.15625 0.205,-0.1025 0.3125,-0.2775 0.3125,-0.5275 0,-0.32125 -0.13125,-0.77125 -0.39,-1.3475 l -0.82,-1.91375 -5.235,0 -0.9175,2.34375 c -0.1175,0.27375 -0.17625,0.5375 -0.17625,0.78125 0,0.5475 0.45375,0.82 1.3675,0.82 l 0,0.37125 -3.965,0 0,-0.37125 c 0.4925,-0.0387 0.87875,-0.23375 1.1525,-0.585 0.27375,-0.3525 0.7125,-1.25 1.3275,-2.69625 l 4.16,-9.82375 0.41125,0 4.98,11.3475 c 0.3125,0.7425 0.57125,1.21125 0.78125,1.40625 0.22,0.195 0.55625,0.3125 1.015,0.35125 z m -9.80375,-4.765 4.62875,0 -2.325,-5.5075 -2.30375,5.5075 z"
         inkscape:connector-curvature="0" />
      <path
         id="path30"
         style="fill:#000000;fill-opacity:1;fill-rule:nonzero;stroke:none"
         d="m 93.563392,796.97423 c 0.35125,0 0.67375,-0.0188 0.97625,-0.0575 0.2975,-0.04 0.55625,-0.0788 0.78125,-0.1175 0.23375,-0.0487 0.45375,-0.1275 0.66375,-0.235 0.22,-0.1175 0.395,-0.205 0.5275,-0.2725 0.1275,-0.0638 0.26375,-0.16625 0.41,-0.3125 0.14125,-0.1575 0.24375,-0.26375 0.3125,-0.3325 0.0787,-0.0788 0.16125,-0.2 0.25375,-0.37125 0.0888,-0.18125 0.14625,-0.2975 0.17625,-0.35125 0.0238,-0.0638 0.0775,-0.18125 0.15625,-0.3525 0.0875,-0.18 0.13625,-0.2775 0.13625,-0.2925 l 0.48875,0 -0.9575,3.47625 -10.76125,0 0,-0.37125 c 0.7425,-0.0625 1.215,-0.2 1.425,-0.41 0.205,-0.21875 0.3125,-0.6875 0.3125,-1.40625 l 0,-8.86625 c 0,-0.71375 -0.1075,-1.1775 -0.3125,-1.3875 -0.21,-0.22 -0.6825,-0.35625 -1.425,-0.41 l 0,-0.39 5.64375,0 0,0.39 c -0.78125,0.0538 -1.28875,0.19 -1.5225,0.41 -0.225,0.21 -0.3325,0.67375 -0.3325,1.3875 l 0,9.4525 c 0,0.35125 0.1025,0.58125 0.3125,0.68375 0.205,0.0925 0.67375,0.13625 1.40625,0.13625 l 1.32875,0 z m 18.261248,-5.8975 c 0,0.6 -0.0687,1.18625 -0.195,1.7575 -0.1325,0.57625 -0.38125,1.16625 -0.7425,1.7775 -0.35125,0.615 -0.81,1.1475 -1.3675,1.60125 -0.56125,0.44375 -1.30875,0.815 -2.24625,1.11375 -0.9275,0.2875 -1.9725,0.42875 -3.14375,0.42875 l -5.683748,0 0,-0.37125 c 0.76625,-0.0625 1.25,-0.2 1.445,-0.41 0.204998,-0.205 0.312498,-0.67375 0.312498,-1.40625 l 0,-8.86625 c 0,-0.7425 -0.0975,-1.21125 -0.292498,-1.40625 -0.18625,-0.19625 -0.67375,-0.3225 -1.465,-0.39125 l 0,-0.39 5.409998,0 c 1.21125,0 2.29,0.13625 3.2425,0.41 0.94625,0.2725 1.71875,0.635 2.30375,1.07375 0.58625,0.43 1.065,0.9475 1.44625,1.54375 0.375,0.585 0.63,1.16625 0.76125,1.7375 0.14125,0.57625 0.215,1.1725 0.215,1.7975 z m -2.1675,0.13625 c 0,-0.57125 -0.0587,-1.11875 -0.17625,-1.64125 -0.1175,-0.53125 -0.3275,-1.06375 -0.625,-1.60125 -0.28875,-0.54625 -0.66375,-1.005 -1.1325,-1.38625 -0.45875,-0.39125 -1.07,-0.70875 -1.83625,-0.9575 -0.7575,-0.24375 -1.62125,-0.37125 -2.5975,-0.37125 -0.42,0 -0.69875,0.0538 -0.84,0.15625 -0.1325,0.1075 -0.195,0.3125 -0.195,0.625 l 0,10.15625 c 0,0.3275 0.0675,0.5475 0.215,0.665 0.14125,0.1075 0.415,0.15625 0.82,0.15625 4.2425,0 6.3675,-1.93375 6.3675,-5.80125 z m 15.83875,6.17125 0,0.37125 -5.0975,0 0,-0.37125 c 0.5325,-0.009 0.89875,-0.0625 1.09375,-0.155 0.205,-0.10375 0.3125,-0.27875 0.3125,-0.5275 0,-0.3225 -0.13125,-0.7725 -0.39,-1.3475 l -0.82,-1.915 -5.235,0 -0.9175,2.34375 c -0.1175,0.27375 -0.17625,0.5375 -0.17625,0.78125 0,0.5475 0.45375,0.82 1.3675,0.82 l 0,0.37125 -3.965,0 0,-0.37125 c 0.4925,-0.0388 0.87875,-0.23375 1.1525,-0.585 0.27375,-0.3525 0.7125,-1.25 1.3275,-2.695 l 4.16,-9.825 0.41125,0 4.98,11.3475 c 0.3125,0.7425 0.57125,1.21125 0.78125,1.40625 0.22,0.19625 0.55625,0.3125 1.015,0.35125 z m -9.80375,-4.765 4.62875,0 -2.325,-5.5075 -2.30375,5.5075 z m 20.13625,-4.0625 c 1.275,0 2.32375,0.43 3.145,1.28875 0.83,0.85 1.25,1.92375 1.25,3.2225 0,1.3975 -0.43,2.55875 -1.29,3.49625 -0.84875,0.9275 -1.89375,1.3875 -3.14375,1.3875 -1.25,0 -2.295,-0.45 -3.125,-1.3475 -0.835,-0.89875 -1.25,-2.0175 -1.25,-3.36 0,-1.3775 0.41,-2.505 1.23,-3.37875 0.82,-0.86875 1.88,-1.30875 3.18375,-1.30875 z m -2.6175,3.69125 c 0,1.43625 0.25875,2.65125 0.78125,3.6525 0.5175,1.00625 1.19625,1.50375 2.03125,1.50375 0.7525,0 1.33875,-0.3175 1.75875,-0.9575 0.42875,-0.64875 0.64375,-1.5425 0.64375,-2.675 0,-1.3675 -0.26875,-2.48 -0.8,-3.34 -0.5375,-0.86875 -1.22125,-1.30875 -2.05125,-1.30875 -0.7175,0 -1.28875,0.28875 -1.71875,0.86 -0.43,0.57625 -0.645,1.3275 -0.645,2.265 z m 7.6175,-2.46125 0,-0.33125 c 0.98625,-0.28375 1.91375,-0.58625 2.77375,-0.89875 l 0.13625,0.0387 0,1.5825 c 0.67375,-0.635 1.21125,-1.065 1.60125,-1.28875 0.40125,-0.22 0.83,-0.3325 1.29,-0.3325 0.74125,0 1.3175,0.26875 1.7375,0.80125 0.415,0.5225 0.625,1.25875 0.625,2.20625 l 0,4.57 c 0,0.49875 0.0788,0.83125 0.235,0.99625 0.16625,0.17125 0.4975,0.28375 0.99625,0.3325 l 0,0.2925 -4.16,0 0,-0.2925 c 0.5075,-0.0388 0.83875,-0.16625 0.995,-0.39125 0.16625,-0.23375 0.255,-0.66375 0.255,-1.28875 l 0,-4.17875 c 0,-1.3 -0.48875,-1.95375 -1.465,-1.95375 -0.3275,0 -0.635,0.0787 -0.91875,0.23375 -0.2725,0.1575 -0.65375,0.465 -1.1325,0.91875 l 0,5.605 c 0,0.36625 0.0875,0.625 0.27375,0.78125 0.195,0.14625 0.54625,0.235 1.055,0.27375 l 0,0.2925 -4.25875,0 0,-0.2925 c 0.50875,-0.0388 0.84,-0.15625 0.99625,-0.35125 0.16625,-0.195 0.25375,-0.57625 0.25375,-1.1525 l 0,-4.96125 c 0,-0.4925 -0.0538,-0.83 -0.15625,-1.015 -0.1075,-0.18125 -0.3025,-0.27375 -0.585,-0.27375 -0.25,0 -0.43,0.0288 -0.5475,0.0775 z m 25.5275,-1.66 c 0,0.3525 -0.0387,0.69375 -0.1175,1.01625 -0.0775,0.3125 -0.23375,0.65375 -0.46875,1.015 -0.23375,0.36625 -0.54625,0.67875 -0.9375,0.9375 -0.39,0.24875 -0.9175,0.46375 -1.58125,0.645 -0.665,0.17125 -1.43625,0.25375 -2.305,0.25375 -0.405,0 -0.86875,-0.02 -1.3875,-0.0588 l 0,3.6325 c 0,0.7425 0.1175,1.22625 0.3525,1.44625 0.23375,0.21 0.74125,0.33125 1.5225,0.37 l 0,0.37125 -5.605,0 0,-0.37125 c 0.76625,-0.0775 1.235,-0.21875 1.40625,-0.42875 0.18125,-0.22 0.27375,-0.7525 0.27375,-1.60125 l 0,-8.6525 c 0,-0.7275 -0.0925,-1.1925 -0.27375,-1.3875 -0.185,-0.195 -0.65375,-0.33125 -1.40625,-0.41 l 0,-0.39 5.2925,0 c 0.59625,0 1.1775,0.0575 1.73875,0.175 0.55625,0.1175 1.11375,0.3025 1.66,0.5475 0.5575,0.24875 1.00125,0.62 1.32875,1.1125 0.33625,0.49875 0.5075,1.08875 0.5075,1.7775 z m -6.7975,-2.1875 0,5.195 c 0.455,0.04 0.83125,0.0587 1.13375,0.0587 2.31375,0 3.47625,-0.97625 3.47625,-2.92875 0,-1.02625 -0.3225,-1.7825 -0.9575,-2.26625 -0.63875,-0.4925 -1.63,-0.7425 -2.96875,-0.7425 -0.2725,0 -0.45875,0.0488 -0.54625,0.1375 -0.0925,0.0925 -0.1375,0.27375 -0.1375,0.54625 z m 13.77,11.035 c 0.35125,0 0.67375,-0.0188 0.97625,-0.0575 0.29875,-0.04 0.5575,-0.0788 0.78125,-0.1175 0.235,-0.0487 0.455,-0.1275 0.665,-0.235 0.21875,-0.1175 0.395,-0.205 0.52625,-0.2725 0.1275,-0.0638 0.26375,-0.16625 0.41125,-0.3125 0.14125,-0.1575 0.24375,-0.26375 0.3125,-0.3325 0.0775,-0.0788 0.16,-0.2 0.25375,-0.37125 0.0875,-0.18125 0.14625,-0.2975 0.175,-0.35125 0.025,-0.0638 0.0788,-0.18125 0.15625,-0.3525 0.0888,-0.18 0.1375,-0.2775 0.1375,-0.2925 l 0.4875,0 -0.95625,3.47625 -10.7625,0 0,-0.37125 c 0.7425,-0.0625 1.21625,-0.2 1.42625,-0.41 0.205,-0.21875 0.3125,-0.6875 0.3125,-1.40625 l 0,-8.86625 c 0,-0.71375 -0.1075,-1.1775 -0.3125,-1.3875 -0.21,-0.22 -0.68375,-0.35625 -1.42625,-0.41 l 0,-0.39 5.645,0 0,0.39 c -0.78125,0.0538 -1.28875,0.19 -1.52375,0.41 -0.22375,0.21 -0.33125,0.67375 -0.33125,1.3875 l 0,9.4525 c 0,0.35125 0.1025,0.58125 0.3125,0.68375 0.205,0.0925 0.67375,0.13625 1.40625,0.13625 l 1.3275,0 z m 12.55875,-1.91375 c 0,-0.625 -0.225,-1.17625 -0.66375,-1.66 -0.43,-0.49375 -0.9575,-0.90875 -1.5825,-1.25 -0.625,-0.35125 -1.25,-0.7075 -1.875,-1.07375 -0.625,-0.37625 -1.1625,-0.85 -1.60125,-1.42625 -0.43,-0.57125 -0.645,-1.235 -0.645,-1.9925 0,-1.015 0.3375,-1.83625 1.01625,-2.46125 0.6875,-0.63375 1.50375,-0.95625 2.44125,-0.95625 0.55625,0 1.1625,0.1175 1.81625,0.35125 0.64875,0.225 1.04,0.3325 1.17125,0.3325 0.3525,0 0.5675,-0.225 0.645,-0.68375 l 0.43,0 0.43,4.2575 -0.48875,0 c -0.3275,-1.17125 -0.82,-2.03625 -1.485,-2.5975 -0.65375,-0.55625 -1.38125,-0.84 -2.1875,-0.84 -0.615,0 -1.1125,0.17625 -1.50375,0.5275 -0.38,0.34125 -0.56625,0.78125 -0.56625,1.32875 0,0.53625 0.22,1.04375 0.66375,1.5225 0.455,0.48375 1.21125,1.01625 2.26625,1.6025 1.3275,0.7025 2.285,1.40125 2.87125,2.08875 0.58625,0.67875 0.87875,1.43625 0.87875,2.26625 0,1.03 -0.4,1.895 -1.19125,2.5975 -0.78125,0.69375 -1.74875,1.035 -2.89125,1.035 -0.66375,0 -1.3425,-0.1125 -2.03125,-0.3325 -0.6925,-0.21875 -1.1125,-0.33125 -1.26875,-0.33125 -0.14625,0 -0.27375,0.0687 -0.39125,0.195 -0.1075,0.1175 -0.16625,0.26375 -0.175,0.44875 l -0.43,0 -0.60625,-4.2375 0.46875,0 c 0.47875,1.21125 1.045,2.10375 1.7,2.675 0.66375,0.57625 1.435,0.86 2.32375,0.86 0.7425,0 1.33375,-0.205 1.7775,-0.625 0.45375,-0.415 0.68375,-0.9575 0.68375,-1.62125 z m 16.25,2.32375 0,0.37125 -5.0975,0 0,-0.37125 c 0.5325,-0.009 0.89875,-0.0625 1.09375,-0.155 0.205,-0.10375 0.3125,-0.27875 0.3125,-0.5275 0,-0.3225 -0.1325,-0.7725 -0.39125,-1.3475 l -0.82,-1.915 -5.23375,0 -0.91875,2.34375 c -0.1175,0.27375 -0.175,0.5375 -0.175,0.78125 0,0.5475 0.45375,0.82 1.36625,0.82 l 0,0.37125 -3.965,0 0,-0.37125 c 0.49375,-0.0388 0.88,-0.23375 1.1525,-0.585 0.27375,-0.3525 0.71375,-1.25 1.32875,-2.695 l 4.16,-9.825 0.41,0 4.98,11.3475 c 0.3125,0.7425 0.57125,1.21125 0.78125,1.40625 0.22,0.19625 0.5575,0.3125 1.01625,0.35125 z m -9.805,-4.765 4.62875,0 -2.32375,-5.5075 -2.305,5.5075 z"
         inkscape:connector-curvature="0" />
      <path
         id="path36"
         style="fill:#000000;fill-opacity:1;fill-rule:nonzero;stroke:none"
         d="m 100.18339,815.07548 c 0,0.6 -0.0675,1.18625 -0.194998,1.7575 -0.13125,0.57625 -0.38125,1.1675 -0.7425,1.7775 -0.35125,0.615 -0.81,1.1475 -1.36625,1.60125 -0.5625,0.445 -1.30875,0.81625 -2.24625,1.11375 -0.9275,0.2875 -1.9725,0.43 -3.145,0.43 l -5.68375,0 0,-0.37125 c 0.7675,-0.0638 1.25,-0.2 1.44625,-0.41 0.205,-0.205 0.3125,-0.67375 0.3125,-1.40625 l 0,-8.8675 c 0,-0.7425 -0.0987,-1.21125 -0.29375,-1.40625 -0.185,-0.195 -0.67375,-0.3225 -1.465,-0.39125 l 0,-0.39 5.41,0 c 1.21125,0 2.29,0.13625 3.2425,0.41 0.9475,0.27375 1.71875,0.635 2.305,1.07375 0.58625,0.43 1.065,0.9475 1.445,1.54375 0.37625,0.585 0.63,1.16625 0.7625,1.7375 0.141248,0.57625 0.213748,1.1725 0.213748,1.7975 z m -2.167498,0.13625 c 0,-0.57125 -0.0588,-1.1175 -0.17625,-1.64 -0.11625,-0.5325 -0.32625,-1.065 -0.625,-1.6025 -0.2875,-0.54625 -0.66375,-1.005 -1.1325,-1.38625 -0.45875,-0.39 -1.06875,-0.7075 -1.83625,-0.9575 -0.75625,-0.24375 -1.62,-0.37 -2.5975,-0.37 -0.42,0 -0.6975,0.0537 -0.84,0.15625 -0.13125,0.1075 -0.195,0.3125 -0.195,0.625 l 0,10.15625 c 0,0.32625 0.0687,0.54625 0.215,0.66375 0.14125,0.1075 0.415,0.15625 0.82,0.15625 4.24375,0 6.3675,-1.93375 6.3675,-5.80125 z m 12.499998,5.5475 0,0.2725 c -1.03,0.28875 -1.94375,0.58625 -2.73375,0.89875 l -0.0787,-0.0388 0,-1.66 c -0.0387,0.0388 -0.15625,0.16625 -0.35125,0.37125 -0.195,0.195 -0.3325,0.33125 -0.41,0.41 -0.0788,0.0688 -0.215,0.175 -0.41,0.33125 -0.19625,0.15625 -0.36625,0.26875 -0.50875,0.3325 -0.14625,0.0688 -0.33125,0.1225 -0.56625,0.17625 -0.225,0.0638 -0.44375,0.0975 -0.66375,0.0975 -0.7425,0 -1.3375,-0.235 -1.7775,-0.70375 -0.43,-0.46875 -0.645,-1.09875 -0.645,-1.89375 l 0,-5.04 c 0,-0.46875 -0.0925,-0.785 -0.2725,-0.95625 -0.17125,-0.18125 -0.49875,-0.28375 -0.9775,-0.3125 l 0,-0.29375 2.93,0 0,6.52375 c 0,0.42 0.1375,0.77625 0.41,1.075 0.28375,0.3025 0.61625,0.44875 0.99625,0.44875 0.15625,0 0.3325,-0.02 0.5275,-0.0587 0.195,-0.0388 0.42,-0.1175 0.68375,-0.23375 0.25875,-0.1175 0.47875,-0.29875 0.66375,-0.5475 0.18125,-0.24375 0.27375,-0.54625 0.27375,-0.89875 l 0,-4.70625 c 0,-0.49375 -0.0925,-0.82125 -0.27375,-0.9775 -0.185,-0.15625 -0.58625,-0.24375 -1.21125,-0.2725 l 0,-0.3525 3.165,0 0,6.85625 c 0,0.46875 0.0775,0.78125 0.23375,0.9375 0.15625,0.14625 0.45375,0.215 0.89875,0.215 l 0.0975,0 z m 0.78125,-0.9375 c 0,-0.245 0.025,-0.47375 0.0787,-0.68375 0.0488,-0.205 0.14125,-0.39625 0.2725,-0.56625 0.1425,-0.18125 0.27375,-0.3425 0.39125,-0.48875 0.1175,-0.15625 0.2925,-0.3025 0.5275,-0.44875 0.24375,-0.15625 0.44875,-0.28375 0.605,-0.39125 0.15625,-0.1025 0.395,-0.22 0.7225,-0.35125 0.3375,-0.14125 0.59125,-0.24375 0.7625,-0.3125 0.165,-0.0787 0.43875,-0.185 0.82,-0.3325 0.37625,-0.15625 0.64875,-0.26375 0.82,-0.33125 l 0,-1.21125 c 0,-1.10375 -0.5075,-1.66 -1.52375,-1.66 -0.405,0 -0.75125,0.0975 -1.035,0.2925 -0.27375,0.18625 -0.41,0.41 -0.41,0.68375 0,0.1075 0.01,0.25375 0.0387,0.44875 0.04,0.18625 0.0588,0.30375 0.0588,0.3525 0,0.22375 -0.0925,0.42 -0.27375,0.585 -0.17,0.17125 -0.38,0.255 -0.625,0.255 -0.22375,0 -0.42375,-0.0838 -0.605,-0.255 -0.17125,-0.18 -0.25375,-0.38 -0.25375,-0.605 0,-0.625 0.3225,-1.1525 0.97625,-1.5825 0.65,-0.43875 1.445,-0.66375 2.3825,-0.66375 1.09375,0 1.84625,0.26875 2.26625,0.80125 0.415,0.5225 0.625,1.3225 0.625,2.4025 l 0,3.88625 c 0,0.445 0.0387,0.7525 0.1175,0.9175 0.0875,0.17125 0.25375,0.255 0.4875,0.255 0.27375,0 0.56625,-0.1275 0.87875,-0.39125 l 0,0.5275 c -0.35125,0.39 -0.65875,0.65875 -0.9175,0.80125 -0.26375,0.12625 -0.56125,0.195 -0.89875,0.195 -0.405,0 -0.7025,-0.1125 -0.8975,-0.3325 -0.19625,-0.23375 -0.3225,-0.61 -0.37125,-1.1325 -1.1475,0.97625 -2.125,1.465 -2.93,1.465 -0.615,0 -1.11375,-0.195 -1.50375,-0.58625 -0.39125,-0.4 -0.58625,-0.9175 -0.58625,-1.5425 z m 5,-0.5275 0,-2.89125 c -1.20125,0.43 -2.04125,0.855 -2.52,1.27 -0.4825,0.42 -0.7225,0.9175 -0.7225,1.50375 0,0.5475 0.1275,0.9575 0.39125,1.23 0.27375,0.26375 0.56625,0.39125 0.87875,0.39125 0.44,0 0.9225,-0.15625 1.445,-0.46875 0.22,-0.1175 0.36125,-0.23875 0.43,-0.37125 0.0637,-0.12625 0.0975,-0.35125 0.0975,-0.66375 z m 3.105,-10 0,-0.3125 c 1.32875,-0.3225 2.38875,-0.615 3.18375,-0.87875 l 0.0788,0.0387 0,11.93375 c 0,0.54625 0.0875,0.9075 0.27375,1.07375 0.18,0.17125 0.59,0.27375 1.23,0.3125 l 0,0.29375 -4.7075,0 0,-0.29375 c 0.625,-0.0488 1.035,-0.16625 1.23125,-0.35125 0.195,-0.195 0.2925,-0.55625 0.2925,-1.09375 l 0,-9.55125 c 0,-0.45375 -0.0588,-0.76625 -0.17625,-0.9375 -0.11625,-0.18 -0.34125,-0.2725 -0.66375,-0.2725 -0.26375,0 -0.5075,0.0137 -0.7425,0.0387 z m 9.35625,5.27375 6.055,0 0,-3.8675 c 0,-0.7275 -0.0987,-1.19125 -0.29375,-1.3875 -0.195,-0.205 -0.68375,-0.34125 -1.465,-0.41 l 0,-0.39 5.56625,0 0,0.39 c -0.78125,0.0688 -1.26875,0.205 -1.46375,0.41 -0.19625,0.19625 -0.29375,0.66 -0.29375,1.3875 l 0,8.8675 c 0,0.7175 0.1025,1.18125 0.3125,1.38625 0.22,0.21 0.70375,0.35125 1.445,0.43 l 0,0.37125 -5.56625,0 0,-0.37125 c 0.78125,-0.0638 1.27,-0.205 1.465,-0.43 0.195,-0.22 0.29375,-0.7525 0.29375,-1.60125 l 0,-3.90625 -6.055,0 0,4.12125 c 0,0.7175 0.1025,1.18125 0.3125,1.38625 0.22,0.21 0.7025,0.35125 1.445,0.43 l 0,0.37125 -5.56625,0 0,-0.37125 c 0.78125,-0.0638 1.27,-0.205 1.465,-0.43 0.205,-0.22 0.3125,-0.7525 0.3125,-1.60125 l 0,-8.6525 c 0,-0.7275 -0.1075,-1.19125 -0.3125,-1.3875 -0.195,-0.205 -0.68375,-0.34125 -1.465,-0.41 l 0,-0.39 5.56625,0 0,0.39 c -0.77125,0.0688 -1.26,0.205 -1.465,0.41 -0.195,0.19625 -0.2925,0.66 -0.2925,1.3875 l 0,3.8675 z m 23.965,0.5075 c 0,0.6 -0.0688,1.18625 -0.19625,1.7575 -0.13125,0.57625 -0.38,1.1675 -0.74125,1.7775 -0.3525,0.615 -0.81125,1.1475 -1.3675,1.60125 -0.56125,0.445 -1.30875,0.81625 -2.24625,1.11375 -0.9275,0.2875 -1.9725,0.43 -3.145,0.43 l -5.6825,0 0,-0.37125 c 0.76625,-0.0638 1.25,-0.2 1.445,-0.41 0.205,-0.205 0.3125,-0.67375 0.3125,-1.40625 l 0,-8.8675 c 0,-0.7425 -0.0975,-1.21125 -0.29375,-1.40625 -0.185,-0.195 -0.67375,-0.3225 -1.46375,-0.39125 l 0,-0.39 5.41,0 c 1.21,0 2.29,0.13625 3.24125,0.41 0.9475,0.27375 1.71875,0.635 2.305,1.07375 0.58625,0.43 1.065,0.9475 1.445,1.54375 0.37625,0.585 0.63,1.16625 0.7625,1.7375 0.14125,0.57625 0.215,1.1725 0.215,1.7975 z m -2.16875,0.13625 c 0,-0.57125 -0.0588,-1.1175 -0.175,-1.64 -0.1175,-0.5325 -0.3275,-1.065 -0.625,-1.6025 -0.28875,-0.54625 -0.665,-1.005 -1.13375,-1.38625 -0.45875,-0.39 -1.06875,-0.7075 -1.835,-0.9575 -0.7575,-0.24375 -1.62125,-0.37 -2.5975,-0.37 -0.42,0 -0.69875,0.0537 -0.84,0.15625 -0.1325,0.1075 -0.19625,0.3125 -0.19625,0.625 l 0,10.15625 c 0,0.32625 0.0687,0.54625 0.215,0.66375 0.1425,0.1075 0.415,0.15625 0.82125,0.15625 4.2425,0 6.36625,-1.93375 6.36625,-5.80125 z m 13.18375,-3.08625 c 0,0.3525 -0.0387,0.69375 -0.1175,1.01625 -0.0775,0.3125 -0.23375,0.65375 -0.46875,1.015 -0.23375,0.36625 -0.54625,0.67875 -0.9375,0.9375 -0.39,0.25 -0.9175,0.465 -1.58125,0.645 -0.66375,0.17125 -1.43625,0.25375 -2.305,0.25375 -0.405,0 -0.86875,-0.0187 -1.38625,-0.0588 l 0,3.63375 c 0,0.74125 0.11625,1.225 0.35125,1.445 0.23375,0.21 0.7425,0.33125 1.52375,0.37125 l 0,0.37125 -5.60625,0 0,-0.37125 c 0.7675,-0.0788 1.23625,-0.22 1.40625,-0.43 0.18125,-0.22 0.27375,-0.7525 0.27375,-1.60125 l 0,-8.6525 c 0,-0.7275 -0.0925,-1.19125 -0.27375,-1.3875 -0.185,-0.195 -0.65375,-0.33125 -1.40625,-0.41 l 0,-0.39 5.29375,0 c 0.595,0 1.17625,0.0588 1.7375,0.175 0.5575,0.1175 1.11375,0.30375 1.66,0.5475 0.5575,0.24875 1.00125,0.62 1.32875,1.11375 0.33625,0.4975 0.5075,1.08875 0.5075,1.77625 z m -6.79625,-2.1875 0,5.19625 c 0.45375,0.0387 0.83,0.0588 1.1325,0.0588 2.315,0 3.47625,-0.9775 3.47625,-2.93 0,-1.025 -0.3225,-1.7825 -0.95625,-2.26625 -0.64,-0.4925 -1.63125,-0.74125 -2.96875,-0.74125 -0.27375,0 -0.46,0.0487 -0.5475,0.13625 -0.0925,0.0925 -0.13625,0.27375 -0.13625,0.54625 z"
         inkscape:connector-curvature="0" />
    </g>
  </g>
</svg>
