<?xml version="1.0" encoding="UTF-8" standalone="no"?>
<!-- Created with Inkscape (http://www.inkscape.org/) -->

<svg
   xmlns:dc="http://purl.org/dc/elements/1.1/"
   xmlns:cc="http://creativecommons.org/ns#"
   xmlns:rdf="http://www.w3.org/1999/02/22-rdf-syntax-ns#"
   xmlns:svg="http://www.w3.org/2000/svg"
   xmlns="http://www.w3.org/2000/svg"
   xmlns:sodipodi="http://sodipodi.sourceforge.net/DTD/sodipodi-0.dtd"
   xmlns:inkscape="http://www.inkscape.org/namespaces/inkscape"
   id="svg2"
   version="1.1"
   inkscape:version="0.48.3.1 r9886"
   width="720.20828"
   height="178.19719"
   xml:space="preserve"
   sodipodi:docname="tdoa-road.pdf"><metadata
     id="metadata8"><rdf:RDF><cc:Work
         rdf:about=""><dc:format>image/svg+xml</dc:format><dc:type
           rdf:resource="http://purl.org/dc/dcmitype/StillImage" /><dc:title></dc:title></cc:Work></rdf:RDF></metadata><defs
     id="defs6" /><sodipodi:namedview
     pagecolor="#ffffff"
     bordercolor="#666666"
     borderopacity="1"
     objecttolerance="10"
     gridtolerance="10"
     guidetolerance="10"
     inkscape:pageopacity="0"
     inkscape:pageshadow="2"
     inkscape:window-width="1909"
     inkscape:window-height="993"
     id="namedview4"
     showgrid="false"
     inkscape:zoom="1.0274806"
     inkscape:cx="58.162095"
     inkscape:cy="167.59182"
     inkscape:window-x="0"
     inkscape:window-y="27"
     inkscape:window-maximized="1"
     inkscape:current-layer="g12" /><g
     id="g10"
     inkscape:groupmode="layer"
     inkscape:label="tdoa-road"
     transform="matrix(1.25,0,0,-1.25,0,178.19719)"><g
       id="g12"><g
         id="g14"
         transform="matrix(1,0,0,-1,0,142.55775)"><path
           d="m 289.273,118.98 -5,-6.312"
           style="fill:none;stroke:#000080;stroke-opacity:1;stroke-width:0.4;stroke-linecap:butt;stroke-linejoin:miter;stroke-miterlimit:4;stroke-dasharray:0.4,0.4;stroke-dashoffset:0"
           id="path16" /></g><g
         id="g18"
         transform="matrix(1,0,0,-1,0,142.55775)"><path
           d="m 386.891,35.047 0.488,0 0,0.41 -0.488,0 0,-0.41 z"
           style="fill:#fff6d5;fill-opacity:1;fill-rule:nonzero;stroke:#ffeeaa;stroke-opacity:1;stroke-width:0.443355;stroke-linecap:butt;stroke-linejoin:miter;stroke-miterlimit:4;stroke-dasharray:none"
           id="path20" /></g><g
         id="g22"
         transform="matrix(1,0,0,-1,0,142.55775)"><path
           d="m 283.32,121.422 2.715,11.144 3.57,-11.144 -6.285,0 z"
           style="fill:#808080;fill-opacity:1;fill-rule:nonzero;stroke:#000000;stroke-opacity:1;stroke-width:0.8;stroke-linecap:butt;stroke-linejoin:miter;stroke-miterlimit:4;stroke-dasharray:none"
           id="path24" /></g><g
         id="g26"
         transform="matrix(1,0,0,-1,0,142.55775)"><path
           d="m 278.781,32.121 1.715,0 0,3.43 -1.715,0 0,-3.43 z"
           style="fill:#fff6d5;fill-opacity:1;fill-rule:nonzero;stroke:#ffeeaa;stroke-opacity:1;stroke-width:2.4;stroke-linecap:butt;stroke-linejoin:miter;stroke-miterlimit:4;stroke-dasharray:none"
           id="path28" /></g><g
         id="g30"
         transform="matrix(1,0,0,-1,0,142.55775)"><path
           d="m 289.582,121.098 c 0,1.683 -1.367,3.05 -3.055,3.05 -1.687,0 -3.054,-1.367 -3.054,-3.05 0,-1.688 1.367,-3.055 3.054,-3.055 1.688,0 3.055,1.367 3.055,3.055 z"
           style="fill:#cccccc;fill-opacity:1;fill-rule:nonzero;stroke:#000000;stroke-opacity:1;stroke-width:1.425339;stroke-linecap:butt;stroke-linejoin:miter;stroke-miterlimit:4;stroke-dasharray:none"
           id="path32" /></g><g
         id="g34"
         transform="matrix(1,0,0,-1,0,142.55775)"><path
           d="m 270.066,121.422 2.711,11.144 3.575,-11.144 -6.286,0 z"
           style="fill:#666666;fill-opacity:1;fill-rule:nonzero;stroke:#000000;stroke-opacity:1;stroke-width:0.8;stroke-linecap:butt;stroke-linejoin:miter;stroke-miterlimit:4;stroke-dasharray:none"
           id="path36" /></g><g
         id="g38"
         transform="matrix(1,0,0,-1,0,142.55775)"><path
           d="m 1.199,1.199 573.766,0"
           style="fill:none;stroke:#000000;stroke-opacity:1;stroke-width:2.4;stroke-linecap:butt;stroke-linejoin:miter;stroke-miterlimit:4;stroke-dasharray:none"
           id="path40" /></g><g
         id="g42"
         transform="matrix(1,0,0,-1,0,142.55775)"><path
           d="m 9.199,49.199 560.434,0"
           style="fill:none;stroke:#000000;stroke-opacity:1;stroke-width:2.4;stroke-linecap:butt;stroke-linejoin:miter;stroke-miterlimit:4;stroke-dasharray:19.2,19.2;stroke-dashoffset:0"
           id="path44" /></g><g
         id="g46"
         transform="matrix(1,0,0,-1,0,142.55775)"><path
           d="m 103.98,73.199 95.079,0"
           style="fill:none;stroke:#000000;stroke-opacity:1;stroke-width:0.8;stroke-linecap:butt;stroke-linejoin:miter;stroke-miterlimit:4;stroke-dasharray:none"
           id="path48" /></g><g
         id="g50"
         transform="matrix(-1,0,0,1,0,142.55775)"><path
           d="m -191.059,-73.199 3.2,-3.199 -11.2,3.199 11.2,3.199 -3.2,-3.199 z"
           style="fill:#000000;fill-opacity:1;fill-rule:evenodd;stroke:#000000;stroke-opacity:1;stroke-width:0.8;stroke-linecap:butt;stroke-linejoin:miter;stroke-miterlimit:4;stroke-dasharray:none"
           id="path52" /></g><g
         id="g54"
         transform="matrix(1,0,0,-1,0,142.55775)"><path
           d="m 272.633,133.695 13.539,0"
           style="fill:none;stroke:#000000;stroke-opacity:1;stroke-width:0.8;stroke-linecap:butt;stroke-linejoin:miter;stroke-miterlimit:4;stroke-dasharray:none"
           id="path56" /></g><path
         d="m 310.59475,9.3917045 5.24997,0 0,-1.2643893 -7.06409,0 0,1.2643893 c 0.57417,0.5848567 1.34838,1.3834985 2.33943,2.3867635 0.98341,1.001739 1.60491,1.64615 1.85993,1.931706 0.47796,0.537518 0.81239,0.991049 1.00327,1.360593 0.19088,0.38176 0.28555,0.751304 0.28555,1.120848 0,0.584856 -0.20767,1.061293 -0.61998,1.432363 -0.41688,0.38176 -0.9544,0.57264 -1.62171,0.57264 -0.47797,0 -0.97884,-0.0901 -1.50414,-0.262651 -0.51308,-0.161866 -1.0674,-0.406192 -1.67058,-0.740614 l 0,1.52704 c 0.60318,0.239745 1.16971,0.418409 1.69502,0.549735 0.52377,0.125217 1.00784,0.19088 1.45526,0.19088 1.14529,0 2.05846,-0.287084 2.7441,-0.859724 0.69785,-0.57264 1.04907,-1.348376 1.04907,-2.313466 0,-0.465747 -0.0886,-0.900954 -0.26265,-1.313255 -0.17866,-0.398557 -0.48865,-0.876521 -0.92997,-1.430836 -0.13132,-0.143542 -0.5253,-0.566532 -1.19261,-1.26439 -0.66885,-0.687168 -1.61103,-1.646149 -2.81587,-2.8876325 z m 8.04751,9.8784235 5.91728,0 0,-1.288822 -4.53379,0 0,-2.719659 c 0.2199,0.07788 0.43521,0.131325 0.64442,0.166447 0.21989,0.03054 0.44131,0.04734 0.66731,0.04734 1.24149,0 2.21879,-0.345111 2.93497,-1.024644 0.7284,-0.668844 1.09795,-1.588122 1.09795,-2.744092 0,-1.210943 -0.37566,-2.1485448 -1.12238,-2.8158617 -0.73298,-0.6566273 -1.78358,-0.9788328 -3.14876,-0.9788328 -0.46574,0 -0.94218,0.042757 -1.43236,0.1191091 -0.47644,0.083987 -0.97731,0.1969882 -1.50261,0.3588545 l 0,1.5026081 c 0.45964,-0.238219 0.92997,-0.422991 1.40793,-0.5482079 0.47644,-0.113001 0.97884,-0.1679745 1.50261,-0.1679745 0.85972,0 1.53315,0.2214209 2.02791,0.6688434 0.50698,0.4596388 0.76352,1.0796178 0.76352,1.8614618 0,0.76352 -0.25654,1.365174 -0.76352,1.812597 -0.49476,0.459639 -1.16819,0.691749 -2.02791,0.691749 -0.39856,0 -0.80475,-0.04734 -1.21705,-0.142014 -0.39856,-0.08399 -0.80475,-0.215313 -1.21552,-0.406193 l 0,5.607292 z m 19.79655,-3.101419 0,-1.288822 c -0.38176,0.203096 -0.77421,0.363436 -1.16819,0.476437 -0.38176,0.108419 -0.77574,0.167974 -1.16971,0.167974 -0.89485,0 -1.5866,-0.287084 -2.07525,-0.859724 -0.49476,-0.560423 -0.74062,-1.348376 -0.74062,-2.362331 0,-1.020063 0.24586,-1.812597 0.74062,-2.3852368 0.48865,-0.5604236 1.1804,-0.8352909 2.07525,-0.8352909 0.39397,0 0.78795,0.047338 1.16971,0.1435418 0.39398,0.1068928 0.78643,0.2733401 1.16819,0.5008691 l 0,-1.2888219 c -0.38176,-0.1786637 -0.78032,-0.303881 -1.19262,-0.38176 -0.40009,-0.094677 -0.82919,-0.1435418 -1.28882,-0.1435418 -1.27661,0 -2.28446,0.3878682 -3.02965,1.1697128 -0.73298,0.7925339 -1.09794,1.8675697 -1.09794,3.2205277 0,1.348377 0.36954,2.415778 1.12237,3.197622 0.7452,0.775737 1.77137,1.169713 3.07699,1.169713 0.43062,0 0.8414,-0.04276 1.24148,-0.119109 0.39398,-0.08399 0.78643,-0.209205 1.16819,-0.38176 z m 8.57891,-1.288822 c 0.33289,0.619978 0.73909,1.073509 1.21552,1.359066 0.47797,0.287083 1.03839,0.430625 1.69502,0.430625 0.87041,0 1.53925,-0.305408 2.00347,-0.907062 0.47797,-0.609289 0.71619,-1.473594 0.71619,-2.600549 l 0,-5.0346518 -1.3835,0 0,4.9873128 c 0,0.810859 -0.14355,1.406404 -0.4291,1.788165 -0.27487,0.38176 -0.70397,0.57264 -1.28882,0.57264 -0.71619,0 -1.28272,-0.238219 -1.69502,-0.714655 -0.39856,-0.465747 -0.59554,-1.097942 -0.59554,-1.9088 l 0,-4.7246628 -1.3835,0 0,4.9873128 c 0,0.810859 -0.14354,1.406404 -0.43063,1.788165 -0.28555,0.38176 -0.72687,0.57264 -1.31173,0.57264 -0.70396,0 -1.25828,-0.238219 -1.67058,-0.714655 -0.41688,-0.465747 -0.61998,-1.097942 -0.61998,-1.9088 l 0,-4.7246628 -1.38349,0 0,8.3513828 1.38349,0 0,-1.288822 c 0.3161,0.506977 0.69175,0.882629 1.12085,1.120848 0.44132,0.239745 0.96051,0.358854 1.55147,0.358854 0.61998,0 1.13307,-0.155758 1.55148,-0.453531 0.4291,-0.303881 0.74519,-0.751304 0.9544,-1.33616 z"
         style="fill:#000000;fill-opacity:1;fill-rule:nonzero;stroke:none"
         id="path58"
         inkscape:connector-curvature="0" /><path
         d="m 63.805467,12.473727 7.502773,0 0,-3.2316593 -12.390726,0 0,3.2316593 6.20975,5.477816 c 0.56109,0.507139 0.969318,0.990899 1.235476,1.46207 0.260763,0.48376 0.393842,0.990898 0.393842,1.517819 0,0.800272 -0.273351,1.445884 -0.814659,1.938636 -0.52692,0.48376 -1.230081,0.730136 -2.107682,0.730136 -0.695967,0 -1.454876,-0.15466 -2.276729,-0.449591 -0.807465,-0.302125 -1.677873,-0.730136 -2.613022,-1.293024 l 0,3.737 c 0.990898,0.316512 1.96741,0.562888 2.922341,0.731934 0.969318,0.181635 1.924249,0.280545 2.866592,0.280545 2.037546,0 3.625501,-0.449591 4.749478,-1.348773 1.136566,-0.899182 1.713841,-2.156238 1.713841,-3.765774 0,-0.940544 -0.246376,-1.81275 -0.731934,-2.613022 -0.490953,-0.785885 -1.501634,-1.854113 -3.03384,-3.202886 l -3.625501,-3.202886 z m 31.09191,7.418251 c 0.507139,0.800272 1.111389,1.411715 1.827138,1.825339 0.710354,0.408228 1.496239,0.618637 2.361252,0.618637 1.460273,0 2.569863,-0.463978 3.343153,-1.377547 0.76611,-0.899182 1.15276,-2.211987 1.15276,-3.933021 l 0,-7.7833183 -4.10387,0 0,6.6593413 c 0,0.111498 0,0.210408 0,0.309318 0.01439,0.111499 0.02877,0.258964 0.02877,0.449591 0,0.91177 -0.140273,1.573568 -0.420817,1.965612 -0.267957,0.408228 -0.688774,0.618637 -1.266049,0.618637 -0.785884,0 -1.397328,-0.323706 -1.825339,-0.954931 -0.415422,-0.640218 -0.633024,-1.566375 -0.647411,-2.782069 l 0,-6.2654993 -4.102067,0 0,6.6593413 c 0,1.418909 -0.125886,2.332477 -0.365068,2.724521 -0.246376,0.408228 -0.674387,0.618637 -1.293024,0.618637 -0.785885,0 -1.397328,-0.323706 -1.825339,-0.954931 -0.437002,-0.640218 -0.647411,-1.559182 -0.647411,-2.753295 l 0,-6.2942733 -4.102067,0 0,12.7845673 4.102067,0 0,-1.882886 c 0.50534,0.730135 1.082615,1.271443 1.742615,1.629317 0.652806,0.372261 1.363159,0.562888 2.136456,0.562888 0.899182,0 1.685067,-0.217602 2.359453,-0.645613 0.674386,-0.437002 1.18692,-1.034059 1.544794,-1.798363 z m 12.146153,2.134657 4.07509,0 0,-12.7845673 -4.07509,0 0,12.7845673 z m 0,4.974274 4.07509,0 0,-3.316182 -4.07509,0 0,3.316182 z m 18.25878,-5.368115 0,-3.343158 c -0.56288,0.372261 -1.12397,0.652806 -1.68686,0.843432 -0.56109,0.181635 -1.14556,0.280545 -1.74262,0.280545 -1.14376,0 -2.03574,-0.338092 -2.66877,-1.012479 -0.63842,-0.659999 -0.95493,-1.586157 -0.95493,-2.78027 0,-1.201307 0.31651,-2.136456 0.95493,-2.810843 0.63303,-0.659999 1.52501,-0.983705 2.66877,-0.983705 0.63303,0 1.24447,0.09172 1.82714,0.280545 0.57548,0.205014 1.10959,0.485558 1.60234,0.843433 l 0,-3.3431585 c -0.66179,-0.2247954 -1.3146,-0.3938416 -1.96741,-0.5053402 -0.66,-0.1276838 -1.3146,-0.19782 -1.96741,-0.19782 -2.3037,0 -4.11645,0.5898633 -5.42386,1.7713887 -1.29123,1.194113 -1.93864,2.845011 -1.93864,4.9455 0,2.113077 0.64741,3.763975 1.93864,4.9455 1.30741,1.179727 3.12016,1.76959 5.42386,1.76959 0.67439,0 1.3272,-0.07014 1.96741,-0.196022 0.65281,-0.113297 1.30562,-0.282343 1.96741,-0.507138 z m 12.82054,-3.089589 c -0.35967,0.167248 -0.71755,0.287738 -1.06823,0.365068 -0.35787,0.08992 -0.71755,0.140272 -1.06823,0.140272 -1.05384,0 -1.8685,-0.338092 -2.44397,-1.012479 -0.56289,-0.674386 -0.84344,-1.643704 -0.84344,-2.893567 l 0,-5.9004313 -4.07509,0 0,12.7845673 4.07509,0 0,-2.107682 c 0.51973,0.843433 1.12398,1.447683 1.79837,1.827138 0.68877,0.393841 1.51782,0.589863 2.47275,0.589863 0.12588,0 0.26615,-0.01439 0.42081,-0.02877 0.16905,0 0.40104,-0.01978 0.70316,-0.05575 l 0.0288,-3.708226 z m 7.95056,0.870408 c -0.89918,0 -1.59335,-0.330899 -2.0789,-0.983705 -0.47118,-0.638419 -0.70137,-1.573568 -0.70137,-2.809044 0,-1.222888 0.23019,-2.158037 0.70137,-2.810843 0.48555,-0.659999 1.17972,-0.983705 2.0789,-0.983705 0.89919,0 1.58077,0.323706 2.05194,0.983705 0.46397,0.652806 0.70316,1.587955 0.70316,2.810843 0,1.235476 -0.23919,2.170625 -0.70316,2.809044 -0.47117,0.652806 -1.15275,0.983705 -2.05194,0.983705 z m 0,2.922341 c 2.2066,0 3.93482,-0.60425 5.1703,-1.798364 1.23727,-1.179726 1.85591,-2.823431 1.85591,-4.916726 0,-2.100489 -0.61864,-3.751387 -1.85591,-4.9455 -1.23548,-1.1815254 -2.9637,-1.7713887 -5.1703,-1.7713887 -2.1904,0 -3.91863,0.5898633 -5.17029,1.7713887 -1.23548,1.194113 -1.85411,2.845011 -1.85411,4.9455 0,2.093295 0.61863,3.737 1.85411,4.916726 1.25166,1.194114 2.97989,1.798364 5.17029,1.798364 z m 13.82582,-11.239773 0,-6.7150905 -4.07509,0 0,17.6455445 4.07509,0 0,-1.882886 c 0.56109,0.744522 1.18692,1.300217 1.88289,1.658091 0.68877,0.350681 1.47466,0.534114 2.35945,0.534114 1.57357,0 2.8666,-0.633024 3.87907,-1.882887 1.01069,-1.257056 1.51603,-2.866592 1.51603,-4.832203 0,-1.96741 -0.50534,-3.584139 -1.51603,-4.834002 -1.01247,-1.2570561 -2.3055,-1.8828867 -3.87907,-1.8828867 -0.88479,0 -1.67068,0.1834331 -2.35945,0.534114 -0.69597,0.350681 -1.3218,0.9063757 -1.88289,1.6580917 z m 2.72632,8.261683 c -0.88659,0 -1.56098,-0.323706 -2.02316,-0.95673 -0.47117,-0.638419 -0.70316,-1.566375 -0.70316,-2.78027 0,-1.201307 0.23199,-2.129263 0.70316,-2.782069 0.46218,-0.640217 1.13657,-0.956729 2.02316,-0.956729 0.87761,0 1.5448,0.316512 1.99439,0.956729 0.46398,0.631226 0.70316,1.559181 0.70316,2.782069 0,1.213895 -0.23918,2.141851 -0.70316,2.78027 -0.44959,0.633024 -1.11678,0.95673 -1.99439,0.95673 z m 22.54249,-2.332478 0,-7.7833183 -4.10386,0 0,5.9292053 c 0,1.123977 -0.027,1.888282 -0.0827,2.303704 -0.0432,0.42801 -0.12768,0.737329 -0.25357,0.926157 -0.15466,0.260763 -0.36506,0.463978 -0.64561,0.618637 -0.26796,0.147466 -0.57727,0.224796 -0.92796,0.224796 -0.86501,0 -1.53939,-0.329101 -2.02315,-0.983705 -0.49276,-0.66 -0.73014,-1.566375 -0.73014,-2.724521 l 0,-6.2942733 -4.07509,0 0,17.7588413 4.07509,0 0,-6.85716 c 0.61684,0.744522 1.27144,1.300217 1.96561,1.658091 0.68877,0.350681 1.46207,0.534114 2.3055,0.534114 1.47466,0 2.59145,-0.463978 3.34316,-1.377547 0.7661,-0.899182 1.15275,-2.211987 1.15275,-3.933021 z m 9.63743,2.388227 c -0.89918,0 -1.59514,-0.330899 -2.0789,-0.983705 -0.47118,-0.638419 -0.70316,-1.573568 -0.70316,-2.809044 0,-1.222888 0.23198,-2.158037 0.70316,-2.810843 0.48376,-0.659999 1.17972,-0.983705 2.0789,-0.983705 0.89919,0 1.58077,0.323706 2.05194,0.983705 0.46218,0.652806 0.70136,1.587955 0.70136,2.810843 0,1.235476 -0.23918,2.170625 -0.70136,2.809044 -0.47117,0.652806 -1.15275,0.983705 -2.05194,0.983705 z m 0,2.922341 c 2.2066,0 3.93482,-0.60425 5.1703,-1.798364 1.23727,-1.179726 1.85411,-2.823431 1.85411,-4.916726 0,-2.100489 -0.61684,-3.751387 -1.85411,-4.9455 -1.23548,-1.1815254 -2.9637,-1.7713887 -5.1703,-1.7713887 -2.1922,0 -3.92043,0.5898633 -5.17029,1.7713887 -1.23548,1.194113 -1.85411,2.845011 -1.85411,4.9455 0,2.093295 0.61863,3.737 1.85411,4.916726 1.24986,1.194114 2.97809,1.798364 5.17029,1.798364 z m 22.59824,-5.310568 0,-7.7833183 -4.10206,0 0,5.9561803 c 0,1.102397 -0.027,1.861307 -0.0845,2.276729 -0.0414,0.42801 -0.12588,0.737329 -0.25177,0.926157 -0.15466,0.260763 -0.36507,0.463978 -0.64741,0.618637 -0.26616,0.147466 -0.57548,0.224796 -0.92616,0.224796 -0.86501,0 -1.5394,-0.329101 -2.02316,-0.983705 -0.49275,-0.66 -0.73193,-1.566375 -0.73193,-2.724521 l 0,-6.2942733 -4.07329,0 0,12.7845673 4.07329,0 0,-1.882886 c 0.61864,0.744522 1.27144,1.300217 1.96741,1.658091 0.68877,0.350681 1.46207,0.534114 2.3037,0.534114 1.47646,0 2.59324,-0.463978 3.34496,-1.377547 0.7661,-0.899182 1.15095,-2.211987 1.15095,-3.933021 z m 16.32735,-1.348773 0,-1.179727 -9.55471,0 c 0.0917,-0.956729 0.4352,-1.679671 1.03945,-2.165229 0.59706,-0.469373 1.4333,-0.701362 2.50153,-0.701362 0.84343,0 1.71384,0.118692 2.61302,0.365068 0.91357,0.258964 1.85411,0.652806 2.80905,1.179726 l 0,-3.147136 c -0.97472,-0.3794551 -1.95123,-0.6599999 -2.92235,-0.843433 -0.95493,-0.1816347 -1.92424,-0.2805447 -2.89356,-0.2805447 -2.30371,0 -4.10207,0.5898633 -5.39509,1.7713887 -1.27864,1.179726 -1.90987,2.823431 -1.90987,4.9455 0,2.078908 0.62404,3.715419 1.88109,4.916726 1.25166,1.194114 2.98708,1.798364 5.19907,1.798364 2.00158,0 3.60392,-0.611444 4.80523,-1.827138 1.21569,-1.201307 1.82714,-2.809044 1.82714,-4.832203 z m -4.18839,1.348773 c 0,0.785885 -0.23739,1.411715 -0.70136,1.882887 -0.44959,0.462179 -1.03946,0.701362 -1.77139,0.701362 -0.78589,0 -1.4315,-0.224796 -1.93864,-0.674387 -0.49095,-0.435204 -0.78588,-1.06643 -0.89918,-1.909862 l 5.31057,0 z m 17.00892,4.607408 0,-3.118363 c -0.86501,0.372261 -1.70844,0.645613 -2.5303,0.814659 -0.80746,0.183433 -1.57356,0.280545 -2.3037,0.280545 -0.7733,0 -1.34877,-0.09711 -1.74261,-0.280545 -0.37946,-0.188828 -0.56109,-0.490953 -0.56109,-0.899182 0,-0.323706 0.14027,-0.575476 0.42081,-0.75891 0.29494,-0.169046 0.81466,-0.302125 1.5448,-0.393841 l 0.73193,-0.08272 c 2.0933,-0.267956 3.49782,-0.70316 4.21357,-1.321797 0.73193,-0.60425 1.097,-1.559182 1.097,-2.866592 0,-1.368555 -0.50534,-2.402614 -1.51782,-3.0895889 -0.99809,-0.6743864 -2.49433,-1.0124788 -4.49591,-1.0124788 -0.84343,0 -1.71384,0.070136 -2.61302,0.19782 -0.89918,0.1330789 -1.82714,0.336294 -2.78207,0.6168388 l 0,3.0913869 c 0.80027,-0.393841 1.63651,-0.695966 2.50152,-0.899182 0.85603,-0.188828 1.72823,-0.280544 2.61303,-0.280544 0.80027,0 1.40452,0.09711 1.79836,0.309318 0.40643,0.224796 0.61864,0.56109 0.61864,1.010681 0,0.350681 -0.14027,0.618637 -0.42262,0.787683 -0.28054,0.181635 -0.83624,0.336294 -1.65809,0.449591 l -0.73013,0.08452 c -1.81995,0.224795 -3.09139,0.645613 -3.82153,1.26425 -0.73013,0.616838 -1.0952,1.551988 -1.0952,2.809044 0,1.348773 0.45678,2.346865 1.37575,3.006864 0.93515,0.652806 2.36844,0.983705 4.29988,0.983705 0.74453,0 1.53221,-0.05575 2.36126,-0.169046 0.82185,-0.111499 1.72103,-0.294932 2.69754,-0.534114 z"
         style="fill:#000000;fill-opacity:1;fill-rule:nonzero;stroke:none"
         id="path60"
         inkscape:connector-curvature="0" /><g
         id="g62"
         transform="matrix(1,0,0,-1,0,142.55775)"><path
           d="m 183.059,25.199 -95.079,0"
           style="fill:none;stroke:#000000;stroke-opacity:1;stroke-width:0.8;stroke-linecap:butt;stroke-linejoin:miter;stroke-miterlimit:4;stroke-dasharray:none"
           id="path64" /></g><g
         id="g66"
         transform="matrix(1,0,0,-1,0,142.55775)"><path
           d="m 95.98,25.199 3.2,-3.199 -11.2,3.199 11.2,3.199 -3.2,-3.199 z"
           style="fill:#000000;fill-opacity:1;fill-rule:evenodd;stroke:#000000;stroke-opacity:1;stroke-width:0.8;stroke-linecap:butt;stroke-linejoin:miter;stroke-miterlimit:4;stroke-dasharray:none"
           id="path68" /></g><g
         id="g70"
         transform="matrix(1,0,0,-1,0,142.55775)"><path
           d="m 276.277,121.098 c 0,1.683 -1.367,3.05 -3.054,3.05 -1.684,0 -3.055,-1.367 -3.055,-3.05 0,-1.688 1.371,-3.055 3.055,-3.055 1.687,0 3.054,1.367 3.054,3.055 z"
           style="fill:#cccccc;fill-opacity:1;fill-rule:nonzero;stroke:#000000;stroke-opacity:1;stroke-width:1.425339;stroke-linecap:butt;stroke-linejoin:miter;stroke-miterlimit:4;stroke-dasharray:none"
           id="path72" /></g><g
         id="g74"
         transform="matrix(1,0,0,-1,0,142.55775)"><path
           d="m 270.066,121.422 2.711,11.144 3.575,-11.144 -6.286,0 z"
           style="fill:none;stroke:#000000;stroke-opacity:1;stroke-width:0.8;stroke-linecap:butt;stroke-linejoin:miter;stroke-miterlimit:4;stroke-dasharray:none"
           id="path76" /></g><g
         id="g78"
         transform="matrix(1,0,0,-1,0,142.55775)"><path
           d="m 279.512,35.551 -6.063,82.5"
           style="fill:none;stroke:#800000;stroke-opacity:1;stroke-width:0.8;stroke-linecap:butt;stroke-linejoin:miter;stroke-miterlimit:4;stroke-dasharray:none"
           id="path80" /></g><g
         id="g82"
         transform="matrix(1,0,0,-1,0,142.55775)"><path
           d="m 279.773,35.551 6.512,82.5"
           style="fill:none;stroke:#800000;stroke-opacity:1;stroke-width:0.8;stroke-linecap:butt;stroke-linejoin:miter;stroke-miterlimit:4;stroke-dasharray:none"
           id="path84" /></g><g
         id="g86"
         transform="matrix(1,0,0,-1,0,142.55775)"><path
           d="m 242.18,10.078 73.715,0 0,25.715 -73.715,0 0,-25.715 z"
           style="fill:#fff6d5;fill-opacity:1;fill-rule:nonzero;stroke:#800000;stroke-opacity:1;stroke-width:2.4;stroke-linecap:butt;stroke-linejoin:miter;stroke-miterlimit:4;stroke-dasharray:none"
           id="path88" /></g><path
         d="m 260.16,114.851 -3.609,9.484 1.328,0 3,-7.984 3.016,7.984 1.328,0 -3.61,-9.484 -1.453,0 z m 11.344,3.843 0,-0.562 -5.375,0 c 0.051,-0.813 0.289,-1.43 0.719,-1.844 0.437,-0.418 1.039,-0.625 1.812,-0.625 0.445,0 0.879,0.051 1.297,0.156 0.426,0.114 0.848,0.282 1.266,0.5 l 0,-1.109 c -0.418,-0.18 -0.852,-0.312 -1.297,-0.406 -0.438,-0.094 -0.883,-0.141 -1.328,-0.141 -1.137,0 -2.039,0.328 -2.703,0.985 -0.657,0.664 -0.985,1.562 -0.985,2.687 0,1.164 0.313,2.086 0.938,2.766 0.632,0.687 1.484,1.031 2.547,1.031 0.957,0 1.71,-0.309 2.265,-0.922 0.563,-0.617 0.844,-1.453 0.844,-2.516 z m -1.172,0.344 c -0.012,0.633 -0.195,1.145 -0.547,1.531 -0.344,0.383 -0.805,0.579 -1.375,0.579 -0.656,0 -1.183,-0.188 -1.578,-0.563 -0.387,-0.367 -0.609,-0.883 -0.672,-1.547 l 4.172,0 z m 8.875,0.11 0,-4.297 -1.172,0 0,4.25 c 0,0.676 -0.133,1.179 -0.39,1.515 -0.262,0.332 -0.657,0.5 -1.188,0.5 -0.625,0 -1.121,-0.203 -1.484,-0.609 -0.368,-0.398 -0.547,-0.945 -0.547,-1.641 l 0,-4.015 -1.172,0 0,9.875 1.172,0 0,-3.875 c 0.281,0.426 0.609,0.742 0.984,0.953 0.375,0.219 0.813,0.328 1.313,0.328 0.812,0 1.425,-0.258 1.843,-0.766 0.426,-0.5 0.641,-1.242 0.641,-2.218 z m 2.203,2.812 1.172,0 0,-7.109 -1.172,0 0,7.109 z m 0,2.766 1.172,0 0,-1.485 -1.172,0 0,1.485 z m 8.672,-3.032 0,-1.093 c -0.336,0.176 -0.668,0.312 -1,0.406 -0.336,0.094 -0.668,0.141 -1,0.141 -0.762,0 -1.352,-0.246 -1.766,-0.735 -0.418,-0.48 -0.625,-1.152 -0.625,-2.015 0,-0.868 0.207,-1.539 0.625,-2.016 0.414,-0.48 1.004,-0.719 1.766,-0.719 0.332,0 0.664,0.039 1,0.125 0.332,0.094 0.664,0.235 1,0.422 l 0,-1.094 c -0.324,-0.148 -0.664,-0.257 -1.016,-0.328 -0.343,-0.082 -0.714,-0.125 -1.109,-0.125 -1.074,0 -1.93,0.332 -2.562,1 -0.625,0.676 -0.938,1.586 -0.938,2.735 0,1.156 0.316,2.066 0.953,2.734 0.633,0.664 1.508,1 2.625,1 0.352,0 0.703,-0.039 1.047,-0.109 0.344,-0.075 0.676,-0.184 1,-0.329 z m 1.926,3.032 1.172,0 0,-9.875 -1.172,0 0,9.875 z m 9.644,-6.032 0,-0.562 -5.375,0 c 0.051,-0.813 0.289,-1.43 0.719,-1.844 0.438,-0.418 1.039,-0.625 1.813,-0.625 0.445,0 0.879,0.051 1.296,0.156 0.426,0.114 0.848,0.282 1.266,0.5 l 0,-1.109 c -0.418,-0.18 -0.851,-0.312 -1.297,-0.406 -0.437,-0.094 -0.883,-0.141 -1.328,-0.141 -1.137,0 -2.039,0.328 -2.703,0.985 -0.656,0.664 -0.984,1.562 -0.984,2.687 0,1.164 0.312,2.086 0.937,2.766 0.633,0.687 1.484,1.031 2.547,1.031 0.957,0 1.711,-0.309 2.266,-0.922 0.562,-0.617 0.843,-1.453 0.843,-2.516 z m -1.172,0.344 c -0.011,0.633 -0.195,1.145 -0.546,1.531 -0.344,0.383 -0.805,0.579 -1.375,0.579 -0.657,0 -1.184,-0.188 -1.579,-0.563 -0.386,-0.367 -0.609,-0.883 -0.671,-1.547 l 4.171,0 z"
         style="fill:#000000;fill-opacity:1;fill-rule:nonzero;stroke:none"
         id="path90" /><g
         id="g92"
         transform="matrix(1,0,0,-1,0,142.55775)"><path
           d="m 1.199,97.199 573.766,0"
           style="fill:none;stroke:#000000;stroke-opacity:1;stroke-width:2.4;stroke-linecap:butt;stroke-linejoin:miter;stroke-miterlimit:4;stroke-dasharray:none"
           id="path94" /></g><g
         id="g96"
         transform="matrix(1,0,0,-1,0,142.55775)"><path
           d="m 386.18,10.078 73.715,0 0,25.715 -73.715,0 0,-25.715 z"
           style="fill:#fff6d5;fill-opacity:1;fill-rule:nonzero;stroke:#000080;stroke-opacity:1;stroke-width:2.4;stroke-linecap:butt;stroke-linejoin:miter;stroke-miterlimit:4;stroke-dasharray:none"
           id="path98" /></g><path
         d="m 404.16,114.851 -3.609,9.484 1.328,0 3,-7.984 3.016,7.984 1.328,0 -3.61,-9.484 -1.453,0 z m 11.344,3.843 0,-0.562 -5.375,0 c 0.051,-0.813 0.289,-1.43 0.719,-1.844 0.437,-0.418 1.039,-0.625 1.812,-0.625 0.445,0 0.879,0.051 1.297,0.156 0.426,0.114 0.848,0.282 1.266,0.5 l 0,-1.109 c -0.418,-0.18 -0.852,-0.312 -1.297,-0.406 -0.438,-0.094 -0.883,-0.141 -1.328,-0.141 -1.137,0 -2.039,0.328 -2.703,0.985 -0.657,0.664 -0.985,1.562 -0.985,2.687 0,1.164 0.313,2.086 0.938,2.766 0.632,0.687 1.484,1.031 2.547,1.031 0.957,0 1.71,-0.309 2.265,-0.922 0.563,-0.617 0.844,-1.453 0.844,-2.516 z m -1.172,0.344 c -0.012,0.633 -0.195,1.145 -0.547,1.531 -0.344,0.383 -0.805,0.579 -1.375,0.579 -0.656,0 -1.183,-0.188 -1.578,-0.563 -0.387,-0.367 -0.609,-0.883 -0.672,-1.547 l 4.172,0 z m 8.875,0.11 0,-4.297 -1.172,0 0,4.25 c 0,0.676 -0.133,1.179 -0.39,1.515 -0.262,0.332 -0.657,0.5 -1.188,0.5 -0.625,0 -1.121,-0.203 -1.484,-0.609 -0.368,-0.398 -0.547,-0.945 -0.547,-1.641 l 0,-4.015 -1.172,0 0,9.875 1.172,0 0,-3.875 c 0.281,0.426 0.609,0.742 0.984,0.953 0.375,0.219 0.813,0.328 1.313,0.328 0.812,0 1.425,-0.258 1.843,-0.766 0.426,-0.5 0.641,-1.242 0.641,-2.218 z m 2.203,2.812 1.172,0 0,-7.109 -1.172,0 0,7.109 z m 0,2.766 1.172,0 0,-1.485 -1.172,0 0,1.485 z m 8.672,-3.032 0,-1.093 c -0.336,0.176 -0.668,0.312 -1,0.406 -0.336,0.094 -0.668,0.141 -1,0.141 -0.762,0 -1.352,-0.246 -1.766,-0.735 -0.418,-0.48 -0.625,-1.152 -0.625,-2.015 0,-0.868 0.207,-1.539 0.625,-2.016 0.414,-0.48 1.004,-0.719 1.766,-0.719 0.332,0 0.664,0.039 1,0.125 0.332,0.094 0.664,0.235 1,0.422 l 0,-1.094 c -0.324,-0.148 -0.664,-0.257 -1.016,-0.328 -0.343,-0.082 -0.714,-0.125 -1.109,-0.125 -1.074,0 -1.93,0.332 -2.562,1 -0.625,0.676 -0.938,1.586 -0.938,2.735 0,1.156 0.316,2.066 0.953,2.734 0.633,0.664 1.508,1 2.625,1 0.352,0 0.703,-0.039 1.047,-0.109 0.344,-0.075 0.676,-0.184 1,-0.329 z m 1.926,3.032 1.172,0 0,-9.875 -1.172,0 0,9.875 z m 9.644,-6.032 0,-0.562 -5.375,0 c 0.051,-0.813 0.289,-1.43 0.719,-1.844 0.438,-0.418 1.039,-0.625 1.813,-0.625 0.445,0 0.879,0.051 1.296,0.156 0.426,0.114 0.848,0.282 1.266,0.5 l 0,-1.109 c -0.418,-0.18 -0.851,-0.312 -1.297,-0.406 -0.437,-0.094 -0.883,-0.141 -1.328,-0.141 -1.137,0 -2.039,0.328 -2.703,0.985 -0.656,0.664 -0.984,1.562 -0.984,2.687 0,1.164 0.312,2.086 0.937,2.766 0.633,0.687 1.484,1.031 2.547,1.031 0.957,0 1.711,-0.309 2.266,-0.922 0.562,-0.617 0.843,-1.453 0.843,-2.516 z m -1.172,0.344 c -0.011,0.633 -0.195,1.145 -0.546,1.531 -0.344,0.383 -0.805,0.579 -1.375,0.579 -0.657,0 -1.184,-0.188 -1.579,-0.563 -0.386,-0.367 -0.609,-0.883 -0.671,-1.547 l 4.171,0 z"
         style="fill:#000000;fill-opacity:1;fill-rule:nonzero;stroke:none"
         id="path100" /><g
         id="g102"
         transform="matrix(1,0,0,-1,0,142.55775)"><path
           d="m 283.32,121.422 2.715,11.144 3.57,-11.144 -6.285,0 z"
           style="fill:none;stroke:#000000;stroke-opacity:1;stroke-width:0.8;stroke-linecap:butt;stroke-linejoin:miter;stroke-miterlimit:4;stroke-dasharray:none"
           id="path104" /></g><g
         id="g106"
         transform="matrix(1,0,0,-1,0,142.55775)"><path
           d="m 386.895,35.457 -98.043,83.656"
           style="fill:none;stroke:#000080;stroke-opacity:1;stroke-width:0.8;stroke-linecap:butt;stroke-linejoin:miter;stroke-miterlimit:4;stroke-dasharray:none"
           id="path108" /></g><g
         id="g110"
         transform="matrix(1,0,0,-1,0,142.55775)"><path
           d="m 273.516,117.566 12.726,0.102"
           style="fill:none;stroke:#800000;stroke-opacity:1;stroke-width:0.4;stroke-linecap:butt;stroke-linejoin:miter;stroke-miterlimit:4;stroke-dasharray:0.4,0.4;stroke-dashoffset:0"
           id="path112" /></g><g
         id="g114"
         transform="matrix(1,0,0,-1,0,142.55775)"><path
           d="M 386.891,35.434 275.664,119.258"
           style="fill:none;stroke:#000080;stroke-opacity:1;stroke-width:0.8;stroke-linecap:butt;stroke-linejoin:miter;stroke-miterlimit:4;stroke-dasharray:none"
           id="path116" /></g></g></g></svg>